<?xml version="1.0" encoding="UTF-8" standalone="no"?>
<!-- Created with Inkscape (http://www.inkscape.org/) -->

<svg
   width="256"
   height="256"
   viewBox="0 0 67.733332 67.733333"
   version="1.1"
   id="svg1"
   xml:space="preserve"
   inkscape:version="1.3.2 (091e20e, 2023-11-25, custom)"
   sodipodi:docname="MSS_FP_Mushris_Immature.svg"
   inkscape:export-filename="MSS_FP_Mushris_Immature.png"
   inkscape:export-xdpi="96"
   inkscape:export-ydpi="96"
   xmlns:inkscape="http://www.inkscape.org/namespaces/inkscape"
   xmlns:sodipodi="http://sodipodi.sourceforge.net/DTD/sodipodi-0.dtd"
   xmlns:xlink="http://www.w3.org/1999/xlink"
   xmlns="http://www.w3.org/2000/svg"
   xmlns:svg="http://www.w3.org/2000/svg"><sodipodi:namedview
     id="namedview1"
     pagecolor="#ffffff"
     bordercolor="#000000"
     borderopacity="0.25"
     inkscape:showpageshadow="2"
     inkscape:pageopacity="0.0"
     inkscape:pagecheckerboard="0"
     inkscape:deskcolor="#d1d1d1"
     inkscape:document-units="mm"
     inkscape:zoom="2.0899411"
     inkscape:cx="-100.24206"
     inkscape:cy="75.839458"
     inkscape:window-width="2560"
     inkscape:window-height="1369"
     inkscape:window-x="2552"
     inkscape:window-y="-8"
     inkscape:window-maximized="1"
     inkscape:current-layer="layer1" /><defs
     id="defs1"><linearGradient
       id="linearGradient64"
       inkscape:collect="always"><stop
         style="stop-color:#000000;stop-opacity:0.43970317;"
         offset="0"
         id="stop60" /><stop
         style="stop-color:#6f6f6f;stop-opacity:0.50278294;"
         offset="0.06423358"
         id="stop61" /><stop
         style="stop-color:#b7b7b7;stop-opacity:1;"
         offset="0.13722628"
         id="stop62" /><stop
         style="stop-color:#ffffff;stop-opacity:0;"
         offset="0.40000001"
         id="stop63" /><stop
         style="stop-color:#ffffff;stop-opacity:0;"
         offset="1"
         id="stop64" /></linearGradient><linearGradient
       id="linearGradient25"
       inkscape:collect="always"><stop
         style="stop-color:#000000;stop-opacity:1;"
         offset="0"
         id="stop26" /><stop
         style="stop-color:#6f6f6f;stop-opacity:1;"
         offset="0.0367372"
         id="stop28" /><stop
         style="stop-color:#e9e9e9;stop-opacity:1;"
         offset="0.10538837"
         id="stop29" /><stop
         style="stop-color:#ffffff;stop-opacity:1;"
         offset="0.40000001"
         id="stop30" /><stop
         style="stop-color:#ffffff;stop-opacity:1;"
         offset="1"
         id="stop27" /></linearGradient><linearGradient
       id="linearGradient21"
       inkscape:collect="always"><stop
         style="stop-color:#a8a8a8;stop-opacity:1;"
         offset="0"
         id="stop22" /><stop
         style="stop-color:#b5b5b5;stop-opacity:1;"
         offset="0.12616168"
         id="stop24" /><stop
         style="stop-color:#ffffff;stop-opacity:1;"
         offset="0.53284669"
         id="stop25" /><stop
         style="stop-color:#ffffff;stop-opacity:1;"
         offset="1"
         id="stop23" /></linearGradient><linearGradient
       id="swatch13"
       inkscape:swatch="solid"><stop
         style="stop-color:#ffffff;stop-opacity:1;"
         offset="0"
         id="stop13" /></linearGradient><linearGradient
       id="linearGradient9"
       inkscape:swatch="gradient"><stop
         style="stop-color:#ffffff;stop-opacity:1;"
         offset="0"
         id="stop10" /><stop
         style="stop-color:#ffffff;stop-opacity:0;"
         offset="1"
         id="stop11" /></linearGradient><linearGradient
       inkscape:collect="always"
       xlink:href="#linearGradient21"
       id="linearGradient23"
       x1="34.766098"
       y1="22.372463"
       x2="40.936462"
       y2="45.487301"
       gradientUnits="userSpaceOnUse" /><linearGradient
       inkscape:collect="always"
       xlink:href="#linearGradient25"
       id="linearGradient27"
       x1="36.449055"
       y1="36.619957"
       x2="40.567459"
       y2="65.463432"
       gradientUnits="userSpaceOnUse" /><linearGradient
       inkscape:collect="always"
       xlink:href="#linearGradient64"
       id="linearGradient59"
       gradientUnits="userSpaceOnUse"
       x1="25.01613"
       y1="56.403576"
       x2="51.462276"
       y2="51.842072" /></defs><g
     inkscape:label="Layer 1"
     inkscape:groupmode="layer"
     id="layer1"><g
       id="g1"
       inkscape:label="Stalk"
       style="display:inline;stroke-width:0.788657;stroke-dasharray:none"
       transform="matrix(0.61875336,0,0,0.61875336,12.278848,22.624619)"><path
         style="display:inline;fill:url(#linearGradient27);fill-opacity:1;stroke:#cecece;stroke-width:0.788657;stroke-linecap:round;stroke-linejoin:round;stroke-miterlimit:4.2;stroke-dasharray:none;stroke-opacity:1"
         d="M 27.345269,41.081203 25.699488,51.20908 c 0,0 -0.43865,5.075296 0.696292,7.975703 1.139385,2.911763 3.544758,6.140024 9.368287,5.76023 5.82353,-0.379796 9.738613,-0.574367 12.786445,-3.671356 2.504167,-2.544556 2.785164,-6.329923 2.911763,-9.431586 0.129642,-3.176212 -1.835676,-8.165602 -3.101663,-9.558184 -1.265983,-1.392584 -3.544755,-5.063939 -3.544755,-5.063939 z"
         id="path16"
         sodipodi:nodetypes="ccssssscc" /><path
         style="display:inline;fill:url(#linearGradient59);fill-opacity:1;stroke:#cecece;stroke-width:0.788657;stroke-linecap:round;stroke-linejoin:round;stroke-miterlimit:4.2;stroke-dasharray:none;stroke-opacity:1"
         d="M 27.345269,41.081203 25.699488,51.20908 c 0,0 -0.43865,5.075296 0.696292,7.975703 1.139385,2.911763 3.544758,6.140024 9.368287,5.76023 5.82353,-0.379796 9.738613,-0.574367 12.786445,-3.671356 2.504167,-2.544556 2.785164,-6.329923 2.911763,-9.431586 0.129642,-3.176212 -1.835676,-8.165602 -3.101663,-9.558184 -1.265983,-1.392584 -3.544755,-5.063939 -3.544755,-5.063939 z"
         id="path16-5"
         sodipodi:nodetypes="ccssssscc" /><path
         style="display:inline;fill:url(#linearGradient23);fill-opacity:1;stroke:#cecece;stroke-width:0.788657;stroke-linecap:round;stroke-linejoin:round;stroke-miterlimit:4.2;stroke-dasharray:none;stroke-opacity:1"
         d="m 27.557332,28.733268 -0.401962,4.30893 c 0,0 0.147889,0.02794 -1.519181,5.507035 -1.189959,3.910993 -1.525347,5.968026 1.079919,6.403729 1.354332,0.226498 2.761131,0.432587 4.300517,-1.213192 1.512787,-1.617342 1.265983,-4.177749 1.265983,-4.177749 0,0 0.743363,3.162467 2.658568,3.608054 2.040533,0.474746 4.582037,0.316497 5.507032,-1.012785 0.551887,-0.7931 0.632995,-2.595269 0.316498,-3.671356 -0.316498,-1.076087 -0.569693,-2.152174 -0.569693,-2.152174 0,0 1.58248,3.797954 3.481456,4.051149 1.898978,0.253199 3.530982,-0.732844 4.131013,-1.533881 0.674573,-0.900547 1.758997,-2.175211 -1.163741,-4.516737 -0.796564,-0.63816 -2.463444,-1.986725 -3.853459,-4.140557 -1.343608,-2.081923 -2.297096,-4.834572 -4.046703,-5.934493 -3.883046,-2.353377 -6.977703,-1.503116 -9.619669,0.571175 -1.439746,1.160344 -1.476421,1.767744 -1.566578,3.902852 z"
         id="path15"
         sodipodi:nodetypes="ccssscssscssssccc" /></g><path
       style="display:none;fill:none;stroke:#000000;stroke-width:1.2;stroke-linecap:round;stroke-linejoin:round;stroke-miterlimit:4.2"
       d="m 28.733885,12.550425 2.970829,-0.417489"
       id="path2" /><path
       style="display:none;fill:none;stroke:#000000;stroke-width:1.2;stroke-linecap:round;stroke-linejoin:round;stroke-miterlimit:4.2"
       d="m 47.417587,15.463005 2.770103,1.026313"
       id="path4" /></g></svg>
