<?xml version="1.0" encoding="UTF-8" standalone="no"?>
<!-- Created with Inkscape (http://www.inkscape.org/) -->

<svg
   width="512"
   height="512"
   viewBox="0 0 135.46666 135.46667"
   version="1.1"
   id="svg1"
   inkscape:version="1.4 (86a8ad7, 2024-10-11)"
   sodipodi:docname="MSS_FP_RetirementOutpost.svg"
   inkscape:export-filename="MSS_FP_RetirementOutpost.png"
   inkscape:export-xdpi="96"
   inkscape:export-ydpi="96"
   xmlns:inkscape="http://www.inkscape.org/namespaces/inkscape"
   xmlns:sodipodi="http://sodipodi.sourceforge.net/DTD/sodipodi-0.dtd"
   xmlns="http://www.w3.org/2000/svg"
   xmlns:svg="http://www.w3.org/2000/svg">
  <sodipodi:namedview
     id="namedview1"
     pagecolor="#ffffff"
     bordercolor="#000000"
     borderopacity="0.25"
     inkscape:showpageshadow="2"
     inkscape:pageopacity="0.0"
     inkscape:pagecheckerboard="0"
     inkscape:deskcolor="#d1d1d1"
     inkscape:document-units="mm"
     inkscape:zoom="1.4803312"
     inkscape:cx="325.26505"
     inkscape:cy="281.35596"
     inkscape:window-width="2560"
     inkscape:window-height="1377"
     inkscape:window-x="2552"
     inkscape:window-y="-8"
     inkscape:window-maximized="1"
     inkscape:current-layer="g32" />
  <defs
     id="defs1" />
  <g
     inkscape:label="Layer 1"
     inkscape:groupmode="layer"
     id="layer1">
    <g
       id="g32"
       transform="matrix(1.0295211,0,0,1.0295211,-21.250041,7.7198842)">
      <rect
         style="fill:#ffffff;fill-opacity:0.01;stroke:none;stroke-width:2.75518;stroke-linejoin:round;stroke-opacity:1"
         id="rect1"
         width="131.58221"
         height="131.58221"
         x="20.640705"
         y="-7.4985194" />
      <path
         style="fill:#ffffff;fill-opacity:1;stroke:#000000;stroke-width:3.51344;stroke-linejoin:round;stroke-dasharray:none;stroke-opacity:1"
         d="m 109.93827,103.53541 5.54071,6.52374 -3.93211,-7.50676 z"
         id="path31" />
      <path
         style="fill:#ffffff;fill-opacity:1;stroke:#000000;stroke-width:3.51344;stroke-linejoin:round;stroke-dasharray:none;stroke-opacity:1"
         d="m 114.94278,100.22887 5.27261,7.14929 -3.66402,-9.115352 z"
         id="path32" />
      <g
         id="g30"
         transform="translate(24.414761,4.9644296)">
        <g
           id="g29"
           transform="translate(21.28759,15.853122)">
          <circle
             style="fill:#ffffff;stroke:#000000;stroke-width:1.5;stroke-linejoin:round;stroke-dasharray:none;stroke-opacity:1"
             id="path1"
             cx="46.445744"
             cy="51.880211"
             r="35.324043" />
          <path
             style="fill:none;stroke:#9a9a9a;stroke-width:1;stroke-linejoin:round;stroke-opacity:1"
             d="m 19.392479,29.1334 c 0,0 15.639095,25.469384 61.930819,26.452414"
             id="path2" />
          <path
             style="fill:none;stroke:#9a9a9a;stroke-width:1;stroke-linejoin:round;stroke-opacity:1"
             d="m 16.622124,33.333615 c 0,0 17.783887,28.775935 64.075609,26.363046"
             id="path3" />
          <path
             style="fill:none;stroke:#9a9a9a;stroke-width:1;stroke-linejoin:round;stroke-opacity:1"
             d="m 14.119869,38.248759 c 0,0 23.503328,31.188826 64.969272,26.363048"
             id="path4" />
          <path
             style="fill:none;stroke:#9a9a9a;stroke-width:1;stroke-linejoin:round;stroke-opacity:1"
             d="m 11.885713,43.163905 c 0,0 25.380018,32.171851 64.701173,27.077976"
             id="path5" />
          <path
             style="fill:none;stroke:#9a9a9a;stroke-width:1;stroke-linejoin:round;stroke-opacity:1"
             d="m 10.99205,48.704611 c 0,0 19.392477,30.295164 62.109551,26.899245"
             id="path6" />
          <path
             style="fill:none;stroke:#9a9a9a;stroke-width:1;stroke-linejoin:round;stroke-opacity:1"
             d="m 23.235228,25.55875 c 0,0 1.608592,3.217185 0.983028,9.651558"
             id="path7" />
          <path
             style="fill:none;stroke:#9a9a9a;stroke-width:1;stroke-linejoin:round;stroke-opacity:1"
             d="m 28.597203,21.9841 c 0,0 3.306551,8.489796 0.08937,16.979589"
             id="path8" />
          <path
             style="fill:none;stroke:#9a9a9a;stroke-width:1;stroke-linejoin:round;stroke-opacity:1"
             d="m 33.333615,19.213746 c 0,0 6.166271,10.634585 0.893662,23.41396"
             id="path9" />
          <path
             style="fill:none;stroke:#9a9a9a;stroke-width:1;stroke-linejoin:round;stroke-opacity:1"
             d="m 39.499886,17.605153 c 0,0 6.076908,12.153812 0.178734,28.061006"
             id="path10" />
          <path
             style="fill:none;stroke:#9a9a9a;stroke-width:1;stroke-linejoin:round;stroke-opacity:1"
             d="m 45.755525,16.800857 c 0,0 7.059935,13.226208 0.625565,31.993122"
             id="path11" />
          <path
             style="fill:none;stroke:#9a9a9a;stroke-width:1;stroke-linejoin:round;stroke-opacity:1"
             d="m 51.385599,16.800857 c 0,0 8.400428,14.11987 1.340496,34.227277"
             id="path12" />
          <path
             style="fill:none;stroke:#9a9a9a;stroke-width:1;stroke-linejoin:round;stroke-opacity:1"
             d="m 58.5349,18.677548 c 0,0 7.238666,15.370998 0.625565,34.495378"
             id="path13" />
          <path
             style="fill:none;stroke:#9a9a9a;stroke-width:1;stroke-linejoin:round;stroke-opacity:1"
             d="m 65.773566,22.341565 c 0,0 4.736412,11.438881 -0.446831,31.546291"
             id="path14" />
          <path
             style="fill:none;stroke:#9a9a9a;stroke-width:1;stroke-linejoin:round;stroke-opacity:1"
             d="m 72.118571,27.346076 c 0,0 3.306553,11.706979 -0.893662,27.346076"
             id="path15" />
          <path
             style="fill:none;stroke:#9a9a9a;stroke-width:1;stroke-linejoin:round;stroke-opacity:1"
             d="m 77.838013,36.014604 c 0,0 1.608593,12.332544 -0.625565,19.303111"
             id="path16" />
          <path
             style="fill:none;stroke:#9a9a9a;stroke-width:1;stroke-linejoin:round;stroke-opacity:1"
             d="m 15.817828,54.692152 c 0,0 -1.072395,2.680986 -4.378947,3.217186"
             id="path17" />
          <path
             style="fill:none;stroke:#9a9a9a;stroke-width:1;stroke-linejoin:round;stroke-opacity:1"
             d="m 19.481845,58.177435 c 0,0 0.71493,1.429861 -6.523737,4.110849"
             id="path18" />
          <path
             style="fill:none;stroke:#9a9a9a;stroke-width:1;stroke-linejoin:round;stroke-opacity:1"
             d="m 23.860791,62.10955 c 0,0 -1.876691,4.468313 -8.936626,5.451343"
             id="path19" />
          <path
             style="fill:none;stroke:#9a9a9a;stroke-width:1;stroke-linejoin:round;stroke-opacity:1"
             d="m 28.954669,65.416104 c 0,0 -4.021482,5.987539 -11.528248,6.43437"
             id="path20" />
          <path
             style="fill:none;stroke:#9a9a9a;stroke-width:1;stroke-linejoin:round;stroke-opacity:1"
             d="m 33.333615,68.275824 c 0,0 -5.630073,7.059932 -12.332544,7.685497"
             id="path21" />
          <path
             style="fill:none;stroke:#9a9a9a;stroke-width:1;stroke-linejoin:round;stroke-opacity:1"
             d="m 37.712562,69.79505 c 0,0 -2.770354,7.953598 -13.13684,9.830287"
             id="path22" />
          <path
             style="fill:none;stroke:#9a9a9a;stroke-width:1;stroke-linejoin:round;stroke-opacity:1"
             d="m 47.900314,73.816532 c 0,0 -2.32352,6.255636 -14.298599,11.349513"
             id="path24" />
          <path
             style="fill:none;stroke:#9a9a9a;stroke-width:1;stroke-linejoin:round;stroke-opacity:1"
             d="m 42.80644,72.029205 c 0,0 -2.502258,6.434371 -13.226209,10.723952"
             id="path25" />
          <path
             style="fill:none;stroke:#9a9a9a;stroke-width:1;stroke-linejoin:round;stroke-opacity:1"
             d="m 40.929747,86.506541 c 0,0 10.634586,-4.378947 13.13684,-11.528248"
             id="path26" />
          <path
             style="fill:none;stroke:#9a9a9a;stroke-width:1;stroke-linejoin:round;stroke-opacity:1"
             d="m 48.883344,87.042738 c 0,0 9.204725,-6.076905 10.902683,-10.992051"
             id="path27" />
          <path
             style="fill:none;stroke:#9a9a9a;stroke-width:1;stroke-linejoin:round;stroke-opacity:1"
             d="m 60.769057,84.004284 c 0.625563,0 1.787324,-0.893662 4.825778,-8.311063"
             id="path28" />
          <path
             style="fill:none;stroke:#9a9a9a;stroke-width:1;stroke-linejoin:round;stroke-opacity:1"
             d="m 69.08012,78.821041 0.983027,-3.217185"
             id="path29" />
        </g>
        <circle
           style="fill:none;stroke:#000000;stroke-width:5.0372;stroke-linejoin:round;stroke-dasharray:none;stroke-opacity:1"
           id="path1-8"
           cx="67.73333"
           cy="67.73333"
           r="35.324043" />
      </g>
      <path
         id="path30"
         style="fill:#ffffff;fill-opacity:1;stroke:#000000;stroke-width:3.5147;stroke-linejoin:round;stroke-dasharray:none;stroke-opacity:1"
         d="m 47.862797,10.439779 a 1.5323936,2.4960637 65.441101 0 0 -1.513602,0.343648 1.5323936,2.4960637 65.441101 0 0 -1.633493,2.430859 1.5323936,2.4960637 65.441101 0 0 1.392163,0.699699 L 72.225651,53.937382 74.37074,52.418095 48.966088,12.534741 a 1.5323936,2.4960637 65.441101 0 0 0.290422,-1.395264 1.5323936,2.4960637 65.441101 0 0 -1.393713,-0.699698 z" />
      <path
         id="path30-5"
         style="fill:#ffffff;fill-opacity:1;stroke:#000000;stroke-width:3.5147;stroke-linejoin:round;stroke-dasharray:none;stroke-opacity:1"
         d="m 55.550385,6.5279966 a 1.5323936,2.4960637 65.441101 0 0 -1.513603,0.343648 1.5323936,2.4960637 65.441101 0 0 -1.633492,2.430859 1.5323936,2.4960637 65.441101 0 0 1.392163,0.6996994 L 79.913239,50.0256 82.058328,48.506313 56.653676,8.6229586 a 1.5323936,2.4960637 65.441101 0 0 0.290422,-1.395264 1.5323936,2.4960637 65.441101 0 0 -1.393713,-0.699698 z" />
    </g>
  </g>
</svg>
