<?xml version="1.0" encoding="UTF-8" standalone="no"?>
<!-- Created with Inkscape (http://www.inkscape.org/) -->

<svg
   width="512"
   height="512"
   viewBox="0 0 135.46666 135.46667"
   version="1.1"
   id="svg1"
   inkscape:version="1.4 (86a8ad7, 2024-10-11)"
   sodipodi:docname="MSS_DemonCore.svg"
   inkscape:export-filename="MSS_DemonCore.png"
   inkscape:export-xdpi="96"
   inkscape:export-ydpi="96"
   xmlns:inkscape="http://www.inkscape.org/namespaces/inkscape"
   xmlns:sodipodi="http://sodipodi.sourceforge.net/DTD/sodipodi-0.dtd"
   xmlns:xlink="http://www.w3.org/1999/xlink"
   xmlns="http://www.w3.org/2000/svg"
   xmlns:svg="http://www.w3.org/2000/svg">
  <sodipodi:namedview
     id="namedview1"
     pagecolor="#ffffff"
     bordercolor="#000000"
     borderopacity="0.25"
     inkscape:showpageshadow="2"
     inkscape:pageopacity="0.0"
     inkscape:pagecheckerboard="0"
     inkscape:deskcolor="#d1d1d1"
     inkscape:document-units="mm"
     inkscape:zoom="1.4142136"
     inkscape:cx="247.84093"
     inkscape:cy="288.14601"
     inkscape:window-width="2560"
     inkscape:window-height="1377"
     inkscape:window-x="2552"
     inkscape:window-y="-8"
     inkscape:window-maximized="1"
     inkscape:current-layer="layer1" />
  <defs
     id="defs1">
    <linearGradient
       id="linearGradient27"
       inkscape:collect="always">
      <stop
         style="stop-color:#6a4815;stop-opacity:1;"
         offset="0"
         id="stop27" />
      <stop
         style="stop-color:#a6721b;stop-opacity:1;"
         offset="1"
         id="stop28" />
    </linearGradient>
    <linearGradient
       id="linearGradient21"
       inkscape:collect="always">
      <stop
         style="stop-color:#d2d2d2;stop-opacity:1;"
         offset="0"
         id="stop22" />
      <stop
         style="stop-color:#a2a2a2;stop-opacity:1;"
         offset="1"
         id="stop23" />
    </linearGradient>
    <linearGradient
       id="linearGradient20"
       inkscape:collect="always">
      <stop
         style="stop-color:#6e6e6e;stop-opacity:1;"
         offset="0"
         id="stop20" />
      <stop
         style="stop-color:#a3a3a3;stop-opacity:1;"
         offset="1"
         id="stop21" />
    </linearGradient>
    <linearGradient
       id="linearGradient12"
       inkscape:collect="always">
      <stop
         style="stop-color:#6e6e6e;stop-opacity:1;"
         offset="0"
         id="stop13" />
      <stop
         style="stop-color:#afafaf;stop-opacity:1;"
         offset="1"
         id="stop14" />
    </linearGradient>
    <linearGradient
       id="linearGradient10"
       inkscape:collect="always">
      <stop
         style="stop-color:#6e6e6e;stop-opacity:1;"
         offset="0"
         id="stop11" />
      <stop
         style="stop-color:#afafaf;stop-opacity:1;"
         offset="1"
         id="stop12" />
    </linearGradient>
    <linearGradient
       id="linearGradient9"
       inkscape:collect="always">
      <stop
         style="stop-color:#6e6e6e;stop-opacity:1;"
         offset="0"
         id="stop9" />
      <stop
         style="stop-color:#afafaf;stop-opacity:1;"
         offset="1"
         id="stop10" />
    </linearGradient>
    <radialGradient
       inkscape:collect="always"
       xlink:href="#linearGradient9"
       id="radialGradient10"
       cx="30.747183"
       cy="74.716423"
       fx="30.747183"
       fy="74.716423"
       r="41.072281"
       gradientTransform="matrix(0.96442043,-0.26437329,0.1761158,0.64246155,-32.377089,36.884058)"
       gradientUnits="userSpaceOnUse" />
    <radialGradient
       inkscape:collect="always"
       xlink:href="#linearGradient10"
       id="radialGradient12"
       cx="32.837982"
       cy="80.881935"
       fx="32.837982"
       fy="80.881935"
       r="40.686543"
       gradientTransform="matrix(1,0,0,0.4505671,0,64.442855)"
       gradientUnits="userSpaceOnUse" />
    <radialGradient
       inkscape:collect="always"
       xlink:href="#linearGradient12"
       id="radialGradient14"
       cx="32.565933"
       cy="95.808006"
       fx="32.565933"
       fy="95.808006"
       r="41.056621"
       gradientTransform="matrix(1,0,0,0.35486425,0,60.847156)"
       gradientUnits="userSpaceOnUse" />
    <radialGradient
       inkscape:collect="always"
       xlink:href="#linearGradient20"
       id="radialGradient21"
       cx="56.260941"
       cy="91.23983"
       fx="56.260941"
       fy="91.23983"
       r="19.219271"
       gradientTransform="matrix(1,0,0,0.67724464,0,27.556752)"
       gradientUnits="userSpaceOnUse" />
    <linearGradient
       inkscape:collect="always"
       xlink:href="#linearGradient21"
       id="linearGradient23"
       x1="112.2583"
       y1="60.447609"
       x2="79.036133"
       y2="60.821785"
       gradientUnits="userSpaceOnUse" />
    <linearGradient
       inkscape:collect="always"
       xlink:href="#linearGradient27"
       id="linearGradient28"
       x1="108.19854"
       y1="48.12856"
       x2="135.01673"
       y2="48.12856"
       gradientUnits="userSpaceOnUse" />
  </defs>
  <g
     inkscape:label="Layer 1"
     inkscape:groupmode="layer"
     id="layer1">
    <g
       id="g29"
       transform="translate(5.2384828,-2.9934187)">
      <g
         id="g21"
         transform="translate(-20.108333,-20.240625)">
        <path
           id="path9"
           style="fill:url(#radialGradient14);fill-opacity:1;stroke:#000000;stroke-width:0.723767;stroke-linejoin:round"
           d="m 54.917587,81.633752 c 5.179082,-1.005293 10.779309,-1.52457 16.44196,-1.52457 4.620904,0 9.208002,0.345813 13.564228,1.022583 m 0,0 c 16.241405,2.523213 27.098355,9.266278 27.098355,16.83032 v 0 c -0.0547,1.039107 -0.48375,2.591135 -0.5377,2.696275 -0.6981,1.36044 -9.20359,3.74472 -14.413174,5.01699 -7.591548,1.85398 -21.091355,2.66535 -24.721435,2.82371 -4.299754,0.22422 -20.490285,-1.03343 -32.23387,-4.97099 -5.366904,-1.7995 -9.125064,-3.943902 -9.340534,-4.048399 -0.06195,-0.03004 -0.142764,-0.883168 -0.142763,-1.511739 1.2e-5,-7.067924 9.497124,-13.47041 24.220621,-16.328333"
           sodipodi:nodetypes="csccsssscsssc" />
        <path
           id="path7"
           style="fill:url(#radialGradient12);fill-opacity:1;stroke:#000000;stroke-width:1;stroke-linejoin:round"
           d="m 71.314278,135.12178 c 19.981803,0 36.988632,-14.54875 39.942552,-34.16126 -1.02873,0.50816 -2.12975,0.9975 -3.29429,1.4659 -9.298736,3.74017 -22.646461,6.14578 -35.562853,6.14578 -16.046257,0 -31.280252,-3.28071 -41.515969,-9.114498 2.553812,20.278318 19.866052,35.664078 40.43056,35.664078 z"
           sodipodi:nodetypes="scsscs" />
        <path
           id="path14-2"
           style="fill:url(#radialGradient21);fill-opacity:1;stroke:#000000;stroke-width:1;stroke-linejoin:round"
           d="m 51.829167,91.582811 c 0,-10.338368 8.380902,-18.71927 18.71927,-18.719271 10.338368,10e-7 18.71927,8.380903 18.71927,18.719271 v 0 c -10e-7,0.838802 -0.05638,1.676655 -0.06005,2.532346 -4.489351,2.410469 -11.156039,3.780678 -18.167029,3.780678 -7.383268,0 -14.362962,-1.518913 -19.017777,-4.111449 -0.149758,-0.721504 -0.193682,-1.461213 -0.193683,-2.201575 z"
           sodipodi:nodetypes="sssscscs" />
      </g>
      <g
         id="g28"
         transform="translate(-8.73125,2.6458333)">
        <path
           style="fill:url(#linearGradient23);fill-opacity:1;stroke:#000000;stroke-width:1;stroke-linejoin:round"
           d="m 79.456506,65.775668 1.439847,3.412873 7.443757,-2.04582 -0.56459,-1.327618 23.96887,-11.119148 -1.27615,-2.428022 -23.48647,10.7029 -0.583964,-1.233385 z"
           id="path21"
           sodipodi:nodetypes="ccccccccc" />
        <path
           style="fill:url(#linearGradient28);fill-opacity:1;stroke:#000000;stroke-width:1;stroke-linejoin:round"
           d="m 108.69852,49.578496 3.74177,7.764181 22.07646,-10.617283 -3.64823,-7.810951 z"
           id="path23"
           sodipodi:nodetypes="ccccc" />
      </g>
      <path
         id="path6"
         style="fill:url(#radialGradient10);fill-opacity:1;stroke:#000000;stroke-width:1;stroke-linejoin:round"
         d="M 19.573617,35.443874 A 40.572281,40.572281 0 0 1 38.072664,24.457511 40.572281,40.572281 0 0 1 58.261431,24.132853 m 0,0 c 14.386817,3.450548 25.754842,14.458739 29.666202,28.727168 v 0 c 0.55618,2.028921 0.95371,4.098029 1.148,5.880082 -8.658585,7.020632 -21.413234,13.309684 -35.43011,17.152084 -15.47534,4.242202 -31.034648,5.105677 -42.494767,2.650941 -0.548647,-1.185618 -1.059618,-2.695084 -1.4805596,-4.23066 -3.781919,-13.7961 -0.01909,-28.564274 9.9034206,-38.868594" />
    </g>
  </g>
</svg>
