<?xml version="1.0" encoding="UTF-8" standalone="no"?>
<!-- Created with Inkscape (http://www.inkscape.org/) -->

<svg
   width="512"
   height="512"
   viewBox="0 0 135.46666 135.46667"
   version="1.1"
   id="svg1"
   xml:space="preserve"
   inkscape:version="1.4 (86a8ad7, 2024-10-11)"
   sodipodi:docname="MSS_WombatExtended.svg"
   inkscape:export-filename="MSS_WombatExtended.png"
   inkscape:export-xdpi="96"
   inkscape:export-ydpi="96"
   xmlns:inkscape="http://www.inkscape.org/namespaces/inkscape"
   xmlns:sodipodi="http://sodipodi.sourceforge.net/DTD/sodipodi-0.dtd"
   xmlns:xlink="http://www.w3.org/1999/xlink"
   xmlns="http://www.w3.org/2000/svg"
   xmlns:svg="http://www.w3.org/2000/svg"><sodipodi:namedview
     id="namedview1"
     pagecolor="#ffffff"
     bordercolor="#000000"
     borderopacity="0.25"
     inkscape:showpageshadow="2"
     inkscape:pageopacity="0.0"
     inkscape:pagecheckerboard="0"
     inkscape:deskcolor="#d1d1d1"
     inkscape:document-units="mm"
     inkscape:zoom="1.4142136"
     inkscape:cx="157.68481"
     inkscape:cy="129.04698"
     inkscape:window-width="2560"
     inkscape:window-height="1377"
     inkscape:window-x="-8"
     inkscape:window-y="-8"
     inkscape:window-maximized="1"
     inkscape:current-layer="layer1" /><defs
     id="defs1"><linearGradient
       id="linearGradient8"
       inkscape:collect="always"><stop
         style="stop-color:#af7c17;stop-opacity:1;"
         offset="0"
         id="stop8" /><stop
         style="stop-color:#633f0c;stop-opacity:1;"
         offset="1"
         id="stop9" /></linearGradient><linearGradient
       id="linearGradient3"
       inkscape:collect="always"><stop
         style="stop-color:#855f31;stop-opacity:1;"
         offset="0"
         id="stop3" /><stop
         style="stop-color:#d5b691;stop-opacity:1;"
         offset="1"
         id="stop4" /></linearGradient><linearGradient
       inkscape:collect="always"
       xlink:href="#linearGradient3"
       id="linearGradient4"
       x1="71.817986"
       y1="72.476013"
       x2="61.671734"
       y2="62.747398"
       gradientUnits="userSpaceOnUse"
       gradientTransform="matrix(0.82546429,0,0,0.82546429,1.0658507,21.908313)" /><filter
       inkscape:label="Cubes"
       inkscape:menu="Scatter"
       inkscape:menu-tooltip="Scattered cubes; adjust the Morphology primitive to vary size"
       style="color-interpolation-filters:sRGB;"
       id="filter6"
       x="-0.073623406"
       y="-0.075709056"
       width="1.1472468"
       height="1.1514181"><feTurbulence
         baseFrequency="0.14"
         numOctaves="1"
         type="fractalNoise"
         id="feTurbulence5" /><feColorMatrix
         values="1 0 0 0 0 0 1 0 0 0 0 0 1 0 0 0 0 0 6 -3.5 "
         result="result5"
         id="feColorMatrix5" /><feComposite
         in2="result5"
         operator="in"
         in="SourceGraphic"
         result="result6"
         id="feComposite5" /><feMorphology
         result="result3"
         radius="5"
         operator="dilate"
         in="result6"
         id="feMorphology5" /><feDisplacementMap
         result="result4"
         scale="0"
         yChannelSelector="A"
         xChannelSelector="R"
         in="result3"
         in2="result3"
         id="feDisplacementMap5" /><feComposite
         in2="result4"
         operator="arithmetic"
         result="result2"
         k1="1"
         k3="1"
         id="feComposite6" /><feBlend
         mode="darken"
         in="result2"
         in2="result2"
         id="feBlend6" /><feConvolveMatrix
         order="3 3"
         kernelMatrix="2 0 0 0 1 0 0 0 -1 "
         targetX="1"
         targetY="1"
         divisor="2"
         edgeMode="duplicate"
         id="feConvolveMatrix6" /></filter><radialGradient
       inkscape:collect="always"
       xlink:href="#linearGradient8"
       id="radialGradient9"
       cx="83.273689"
       cy="19.50959"
       fx="83.273689"
       fy="19.50959"
       r="28.229028"
       gradientTransform="matrix(0.51855509,-0.01041955,0.00764184,0.3803155,42.509682,17.153975)"
       gradientUnits="userSpaceOnUse" /></defs><g
     inkscape:label="Layer 1"
     inkscape:groupmode="layer"
     id="layer1"><path
       style="fill:url(#linearGradient4);fill-opacity:1;stroke:#000000;stroke-width:2.47639;stroke-linejoin:round;stroke-dasharray:none;stroke-opacity:1"
       d="m 11.658449,114.94846 -2.0202375,-0.0546 -2.2932432,2.23864 0.163803,1.63804 5.2416977,5.2417 2.347844,0.273 2.238642,-2.18404 -0.163802,-1.63803 L 46.4393,90.650959 87.663072,52.976254 106.17282,34.029699 l 0.0546,-2.566248 -5.18706,-5.40546 -2.457041,-0.163803 -26.04469,25.553278 -31.177184,34.12564 z"
       id="path1"
       inkscape:label="Bat" /><g
       id="g11"
       transform="translate(2.80633,3.5546846)"><path
         id="path2-4"
         style="fill:#000000;fill-opacity:1;stroke:none;stroke-width:3;stroke-linejoin:round"
         d="M 106.10352,8.9570312 C 95.921378,9.508478 86.104858,12.587136 76.523628,15.874333 c -0.452761,0.0054 -0.687252,-0.734422 -1.036826,-1.044122 -1.105904,-1.394965 -2.069631,-2.938034 -3.371216,-4.156034 -1.508448,-1.0359355 -3.935712,0.255566 -3.735499,2.132745 -0.146309,2.120971 0.07701,4.2937 -0.05782,6.386437 -1.03684,1.013212 -0.653727,2.601957 -0.15424,3.777054 1.943095,6.223142 3.706069,12.517228 6.074755,18.595037 1.747688,3.25845 5.316425,4.917514 8.699356,5.951016 5.95318,1.777216 12.362893,1.970303 18.430582,0.678387 4.47023,-1.317708 7.8634,-4.743531 10.93521,-8.077211 5.94331,-6.634465 10.69657,-14.235027 14.94254,-22.036826 0.57183,-1.179131 1.47699,-2.628491 0.67609,-3.912356 -0.22865,-0.608422 -1.0463,-0.739164 -1.07359,-1.420566 -0.78244,-2.245054 -3.28413,-3.2737013 -5.49842,-3.4008209 -3.4722,-0.3191208 -6.96605,-0.2545284 -10.4487,-0.361076 -1.60052,-0.030527 -3.20168,-0.022779 -4.80233,-0.028966 z" /><g
         id="g9"><path
           style="fill:url(#radialGradient9);fill-opacity:1;stroke-width:3;stroke-linejoin:round"
           d="m 69.585413,20.769791 c 0,0 23.8125,-9.921875 38.364587,-9.657291 14.55208,0.264583 14.81666,0.132291 16.53645,1.852083 1.7198,1.719792 -3.70416,5.423958 -3.70416,5.423958 l 4.10104,-3.175 c 0,0 1.2237,-0.529166 1.15755,0.330729 -0.0661,0.859896 -15.18047,29.038021 -26.160676,30.890104 C 88.899996,48.286458 77.655205,45.111458 75.803121,40.216666 73.951038,35.321875 69.585413,20.769791 69.585413,20.769791 Z"
           id="path2" /><path
           id="path2-5"
           style="fill:#9b6413;fill-opacity:1;stroke-width:3;stroke-linejoin:round"
           d="m 123.45012,16.318659 c -0.41293,0.527826 -0.76778,1.093389 -0.85421,1.560112 -0.12391,0.66912 0.57889,1.375629 1.26763,1.893941 1.34704,-2.392071 2.17035,-4.043376 2.18539,-4.239018 0.0662,-0.859895 -1.15755,-0.330729 -1.15755,-0.330729 z" /><path
           id="path6"
           style="fill:#492f09;fill-opacity:1;stroke-width:3;stroke-linejoin:round"
           d="m 120.10909,11.43276 c -0.0986,2.276254 0.014,5.034003 1.13482,5.143356 1.1657,0.113727 2.08719,-0.411493 2.63239,-0.841293 0.85092,-0.991915 1.37519,-2.048377 0.66043,-2.763138 -0.96945,-0.969452 -1.56313,-1.343673 -4.42764,-1.538925 z" /><ellipse
           style="fill:#d8c2a5;fill-opacity:0.578358;stroke-width:5.20663;stroke-linejoin:round"
           id="path3"
           cx="69.422241"
           cy="55.566574"
           rx="4.3623576"
           ry="2.6403744"
           transform="rotate(-23.434752)" /><ellipse
           style="fill:#000000;fill-opacity:1;stroke-width:3;stroke-linejoin:round"
           id="path3-1"
           cx="69.359398"
           cy="55.462585"
           rx="2.5135417"
           ry="1.5213542"
           transform="rotate(-23.434752)" /><path
           style="fill:#9e7845;fill-opacity:1;stroke:none;stroke-width:1;stroke-linejoin:round;stroke-dasharray:none;stroke-opacity:1"
           d="m 70.392109,20.486209 -0.04677,-7.015825 c 0,0 -0.187087,-2.198292 1.262848,-0.09354 1.449938,2.104748 4.115951,5.285255 4.115951,5.285255 z"
           id="path9" /></g></g></g></svg>
