<?xml version="1.0" encoding="UTF-8" standalone="no"?>
<!-- Created with Inkscape (http://www.inkscape.org/) -->

<svg
   width="256"
   height="256"
   viewBox="0 0 67.733332 67.733333"
   version="1.1"
   id="svg1"
   xml:space="preserve"
   inkscape:version="1.3.2 (091e20e, 2023-11-25, custom)"
   sodipodi:docname="MSS_FP_Mushris_A.svg"
   inkscape:export-filename="MSS_FP_Mushris_A.png"
   inkscape:export-xdpi="96"
   inkscape:export-ydpi="96"
   xmlns:inkscape="http://www.inkscape.org/namespaces/inkscape"
   xmlns:sodipodi="http://sodipodi.sourceforge.net/DTD/sodipodi-0.dtd"
   xmlns:xlink="http://www.w3.org/1999/xlink"
   xmlns="http://www.w3.org/2000/svg"
   xmlns:svg="http://www.w3.org/2000/svg"><sodipodi:namedview
     id="namedview1"
     pagecolor="#ffffff"
     bordercolor="#000000"
     borderopacity="0.25"
     inkscape:showpageshadow="2"
     inkscape:pageopacity="0.0"
     inkscape:pagecheckerboard="0"
     inkscape:deskcolor="#d1d1d1"
     inkscape:document-units="mm"
     inkscape:zoom="0.73890575"
     inkscape:cx="-259.16702"
     inkscape:cy="-186.08598"
     inkscape:window-width="2560"
     inkscape:window-height="1369"
     inkscape:window-x="2552"
     inkscape:window-y="-8"
     inkscape:window-maximized="1"
     inkscape:current-layer="layer1" /><defs
     id="defs1"><linearGradient
       id="linearGradient64"
       inkscape:collect="always"><stop
         style="stop-color:#000000;stop-opacity:0.43970317;"
         offset="0"
         id="stop60" /><stop
         style="stop-color:#6f6f6f;stop-opacity:0.50278294;"
         offset="0.06423358"
         id="stop61" /><stop
         style="stop-color:#b7b7b7;stop-opacity:1;"
         offset="0.13722628"
         id="stop62" /><stop
         style="stop-color:#ffffff;stop-opacity:0;"
         offset="0.40000001"
         id="stop63" /><stop
         style="stop-color:#ffffff;stop-opacity:0;"
         offset="1"
         id="stop64" /></linearGradient><linearGradient
       id="linearGradient57"
       inkscape:collect="always"><stop
         style="stop-color:#868686;stop-opacity:1;"
         offset="0.88277858"
         id="stop59" /><stop
         style="stop-color:#ffffff;stop-opacity:0;"
         offset="1"
         id="stop58" /></linearGradient><linearGradient
       id="linearGradient54"
       inkscape:collect="always"><stop
         style="stop-color:#666666;stop-opacity:1;"
         offset="0"
         id="stop55" /><stop
         style="stop-color:#ffffff;stop-opacity:1;"
         offset="0.13314036"
         id="stop57" /><stop
         style="stop-color:#ffffff;stop-opacity:1;"
         offset="1"
         id="stop56" /></linearGradient><linearGradient
       id="linearGradient52"
       inkscape:collect="always"><stop
         style="stop-color:#ffffff;stop-opacity:1;"
         offset="0"
         id="stop52" /><stop
         style="stop-color:#ffffff;stop-opacity:1;"
         offset="0.77424026"
         id="stop54" /><stop
         style="stop-color:#a9a9a9;stop-opacity:1;"
         offset="1"
         id="stop53" /></linearGradient><linearGradient
       id="linearGradient48"
       inkscape:collect="always"><stop
         style="stop-color:#d0d0d0;stop-opacity:1;"
         offset="0"
         id="stop48" /><stop
         style="stop-color:#ffffff;stop-opacity:1;"
         offset="0.22575982"
         id="stop50" /><stop
         style="stop-color:#ffffff;stop-opacity:1;"
         offset="1"
         id="stop49" /></linearGradient><linearGradient
       id="linearGradient25"
       inkscape:collect="always"><stop
         style="stop-color:#000000;stop-opacity:1;"
         offset="0"
         id="stop26" /><stop
         style="stop-color:#6f6f6f;stop-opacity:1;"
         offset="0.0367372"
         id="stop28" /><stop
         style="stop-color:#e9e9e9;stop-opacity:1;"
         offset="0.10538837"
         id="stop29" /><stop
         style="stop-color:#ffffff;stop-opacity:1;"
         offset="0.40000001"
         id="stop30" /><stop
         style="stop-color:#ffffff;stop-opacity:1;"
         offset="1"
         id="stop27" /></linearGradient><linearGradient
       id="linearGradient21"
       inkscape:collect="always"><stop
         style="stop-color:#232323;stop-opacity:1;"
         offset="0"
         id="stop22" /><stop
         style="stop-color:#b5b5b5;stop-opacity:1;"
         offset="0.11386862"
         id="stop24" /><stop
         style="stop-color:#ffffff;stop-opacity:1;"
         offset="0.53284669"
         id="stop25" /><stop
         style="stop-color:#ffffff;stop-opacity:1;"
         offset="1"
         id="stop23" /></linearGradient><linearGradient
       id="linearGradient14"
       inkscape:collect="always"><stop
         style="stop-color:#1e170d;stop-opacity:1;"
         offset="0"
         id="stop14" /><stop
         style="stop-color:#6e5639;stop-opacity:1;"
         offset="1"
         id="stop15" /></linearGradient><linearGradient
       id="swatch13"
       inkscape:swatch="solid"><stop
         style="stop-color:#ffffff;stop-opacity:1;"
         offset="0"
         id="stop13" /></linearGradient><linearGradient
       id="linearGradient9"
       inkscape:swatch="gradient"><stop
         style="stop-color:#ffffff;stop-opacity:1;"
         offset="0"
         id="stop10" /><stop
         style="stop-color:#ffffff;stop-opacity:0;"
         offset="1"
         id="stop11" /></linearGradient><radialGradient
       inkscape:collect="always"
       xlink:href="#linearGradient14"
       id="radialGradient15"
       cx="27.931555"
       cy="37.775661"
       fx="27.931555"
       fy="37.775661"
       r="19.383233"
       gradientTransform="matrix(1,0,0,0.45147486,0,20.7209)"
       gradientUnits="userSpaceOnUse" /><linearGradient
       inkscape:collect="always"
       xlink:href="#linearGradient21"
       id="linearGradient23"
       x1="34.766098"
       y1="22.372463"
       x2="40.936462"
       y2="45.487301"
       gradientUnits="userSpaceOnUse" /><linearGradient
       inkscape:collect="always"
       xlink:href="#linearGradient25"
       id="linearGradient27"
       x1="36.449055"
       y1="36.619957"
       x2="40.567459"
       y2="65.463432"
       gradientUnits="userSpaceOnUse" /><linearGradient
       inkscape:collect="always"
       xlink:href="#linearGradient48"
       id="linearGradient49"
       x1="13.723619"
       y1="15.161468"
       x2="6.8136516"
       y2="11.363009"
       gradientUnits="userSpaceOnUse" /><linearGradient
       inkscape:collect="always"
       xlink:href="#linearGradient52"
       id="linearGradient53"
       x1="51.897251"
       y1="2.3638821"
       x2="48.841808"
       y2="7.2743788"
       gradientUnits="userSpaceOnUse" /><linearGradient
       inkscape:collect="always"
       xlink:href="#linearGradient54"
       id="linearGradient56"
       x1="7.6359634"
       y1="29.667545"
       x2="58.640945"
       y2="17.672049"
       gradientUnits="userSpaceOnUse" /><radialGradient
       inkscape:collect="always"
       xlink:href="#linearGradient57"
       id="radialGradient59"
       cx="34.508556"
       cy="31.661106"
       fx="34.508556"
       fy="31.661106"
       r="20.924216"
       gradientTransform="matrix(1.0526428,-0.2187964,0.10039124,0.48298836,-5.1219592,23.839848)"
       gradientUnits="userSpaceOnUse" /><linearGradient
       inkscape:collect="always"
       xlink:href="#linearGradient64"
       id="linearGradient59"
       gradientUnits="userSpaceOnUse"
       x1="25.01613"
       y1="56.403576"
       x2="51.462276"
       y2="51.842072" /></defs><g
     inkscape:label="Layer 1"
     inkscape:groupmode="layer"
     id="layer1"><path
       id="path1"
       style="display:inline;fill:url(#linearGradient56);stroke:#cecece;stroke-width:1.31274;stroke-linecap:round;stroke-linejoin:round;stroke-miterlimit:4.2;stroke-opacity:1"
       d="m 48.601168,1.3807943 c -2.103025,0.0021 -4.064262,1.1063052 -5.219837,2.9388387 -2.6949,-0.8938692 -5.658281,-1.3652914 -8.808248,-1.3652914 -7.015028,0 -13.329201,3.1002855 -17.744653,8.0480874 C 15.641622,9.4592623 13.847488,8.5611502 11.950692,8.5607178 8.4964852,8.5608875 5.6963637,11.481315 5.6962931,15.083834 c 0.00474,3.302598 2.3753568,6.080451 5.5200769,6.468339 -0.528824,2.060529 -0.814421,4.223833 -0.814421,6.45697 -10e-7,13.837592 6.390601,14.547949 19.73988,14.547949 8.60824,0 15.033171,-3.017395 20.624065,-6.937561 3.079217,-2.159056 7.21868,-5.544327 7.21868,-10.458793 0,-5.423988 -1.551442,-10.002882 -4.2354,-13.571781 0.716836,-1.083603 1.102532,-2.3680546 1.106392,-3.6845299 2.03e-4,-3.6027206 -2.799998,-6.5234626 -6.254398,-6.5236328 z"
       sodipodi:nodetypes="ccsccccssssccc" /><ellipse
       style="display:inline;fill:url(#radialGradient15);stroke:#000000;stroke-width:1.02146;stroke-linecap:round;stroke-linejoin:round;stroke-miterlimit:4.2"
       id="path3"
       cx="27.931555"
       cy="37.775661"
       rx="18.872503"
       ry="8.2403126"
       transform="matrix(0.98113612,-0.19331815,0.196006,0.9806027,0,0)" /><path
       id="path38"
       style="display:inline;fill:none;fill-opacity:1;stroke:#000000;stroke-width:0.4;stroke-linecap:round;stroke-linejoin:round;stroke-miterlimit:4.2;stroke-dasharray:none"
       d="m 32.464473,24.091757 c -2.231618,4.968549 -6.592558,14.130069 -9.079157,15.72346" /><path
       id="path39"
       style="fill:none;fill-opacity:1;stroke:#000000;stroke-width:0.4;stroke-linecap:round;stroke-linejoin:round;stroke-miterlimit:4.2;stroke-dasharray:none"
       d="M 31.207774,24.011875 C 27.038417,28.875503 19.317306,37.733949 18.169288,37.996657" /><path
       id="path46"
       style="fill:none;fill-opacity:1;stroke:#000000;stroke-width:0.4;stroke-linecap:round;stroke-linejoin:round;stroke-miterlimit:4.2;stroke-dasharray:none"
       d="m 20.672426,39.305867 c 1.284198,0.593442 8.055528,-10.04897 11.36717,-15.417707" /><path
       id="path40"
       style="fill:none;fill-opacity:1;stroke:#000000;stroke-width:0.4;stroke-linecap:round;stroke-linejoin:round;stroke-miterlimit:4.2;stroke-dasharray:none"
       d="M 36.282574,23.360017 C 40.079065,27.153881 47.294663,33.97946 50.067365,33.97946" /><path
       id="path45"
       style="fill:none;fill-opacity:1;stroke:#000000;stroke-width:0.4;stroke-linecap:round;stroke-linejoin:round;stroke-miterlimit:4.2;stroke-dasharray:none"
       d="m 16.292419,35.291635 c 0,0 7.715738,-6.173682 12.98482,-10.508903" /><path
       id="path41"
       style="fill:none;fill-opacity:1;stroke:#000000;stroke-width:0.4;stroke-linecap:round;stroke-linejoin:round;stroke-miterlimit:4.2;stroke-dasharray:none"
       d="m 38.2138,23.179192 c 5.348451,2.800654 13.819425,7.172789 14.57776,7.172789" /><path
       id="path43"
       style="fill:none;fill-opacity:1;stroke:#000000;stroke-width:0.4;stroke-linecap:round;stroke-linejoin:round;stroke-miterlimit:4.2;stroke-dasharray:none"
       d="m 37.181709,23.448031 c -0.01374,-0.01036 -0.02745,-0.02069 -0.04113,-0.03101" /><path
       id="path44"
       style="fill:none;fill-opacity:1;stroke:#000000;stroke-width:0.4;stroke-linecap:round;stroke-linejoin:round;stroke-miterlimit:4.2;stroke-dasharray:none"
       d="M 51.978382,32.139032 C 49.60071,32.484892 41.726699,26.873565 37.181709,23.448031" /><path
       id="path42"
       style="fill:none;fill-opacity:1;stroke:#000000;stroke-width:0.4;stroke-linecap:round;stroke-linejoin:round;stroke-miterlimit:4.2;stroke-dasharray:none"
       d="M 39.723213,23.027485 53.325408,27.99484" /><g
       id="g2"
       transform="translate(0.13220728,-0.22029671)"
       style="stroke-width:0.9;stroke-dasharray:none"><path
         style="display:inline;fill:url(#linearGradient27);fill-opacity:1;stroke:#cecece;stroke-width:0.9;stroke-linecap:round;stroke-linejoin:round;stroke-miterlimit:4.2;stroke-opacity:1;stroke-dasharray:none"
         d="M 27.345269,41.081203 25.699488,51.20908 c 0,0 -0.43865,5.075296 0.696292,7.975703 1.139385,2.911763 3.544758,6.140024 9.368287,5.76023 5.82353,-0.379796 9.738613,-0.574367 12.786445,-3.671356 2.504167,-2.544556 2.785164,-6.329923 2.911763,-9.431586 0.129642,-3.176212 -1.835676,-8.165602 -3.101663,-9.558184 -1.265983,-1.392584 -3.544755,-5.063939 -3.544755,-5.063939 z"
         id="path16"
         sodipodi:nodetypes="ccssssscc" /><path
         style="display:inline;fill:url(#linearGradient59);fill-opacity:1;stroke:#cecece;stroke-width:0.9;stroke-linecap:round;stroke-linejoin:round;stroke-miterlimit:4.2;stroke-opacity:1;stroke-dasharray:none"
         d="M 27.345269,41.081203 25.699488,51.20908 c 0,0 -0.43865,5.075296 0.696292,7.975703 1.139385,2.911763 3.544758,6.140024 9.368287,5.76023 5.82353,-0.379796 9.738613,-0.574367 12.786445,-3.671356 2.504167,-2.544556 2.785164,-6.329923 2.911763,-9.431586 0.129642,-3.176212 -1.835676,-8.165602 -3.101663,-9.558184 -1.265983,-1.392584 -3.544755,-5.063939 -3.544755,-5.063939 z"
         id="path16-5"
         sodipodi:nodetypes="ccssssscc" /><path
         style="display:inline;fill:url(#linearGradient23);fill-opacity:1;stroke:#cecece;stroke-width:0.9;stroke-linecap:round;stroke-linejoin:round;stroke-miterlimit:4.2;stroke-opacity:1;stroke-dasharray:none"
         d="m 28.363,25.018245 -1.20763,8.023953 c 0,0 0.147889,0.02794 -1.519181,5.507035 -1.189959,3.910993 -1.525347,5.968026 1.079919,6.403729 1.354332,0.226498 2.761131,0.432587 4.300517,-1.213192 1.512787,-1.617342 1.265983,-4.177749 1.265983,-4.177749 0,0 0.743363,3.162467 2.658568,3.608054 2.040533,0.474746 4.582037,0.316497 5.507032,-1.012785 0.551887,-0.7931 0.632995,-2.595269 0.316498,-3.671356 -0.316498,-1.076087 -0.569693,-2.152174 -0.569693,-2.152174 0,0 1.58248,3.797954 3.481456,4.051149 1.898978,0.253199 3.530982,-0.732844 4.131013,-1.533881 0.674573,-0.900547 1.758997,-2.175211 -1.163741,-4.516737 -0.796564,-0.63816 -2.460877,-1.988384 -3.853459,-4.140557 -1.392584,-2.152174 -2.899176,-7.221273 -2.899176,-7.221273 -3.7558,0.198805 -6.94836,0.561394 -11.528105,2.045784 z"
         id="path15"
         sodipodi:nodetypes="ccssscssscssssccc" /></g><ellipse
       style="display:inline;fill:#ffffff;fill-opacity:1;stroke:#000000;stroke-width:1.2;stroke-linecap:round;stroke-linejoin:round;stroke-miterlimit:4.2"
       id="path30"
       cx="23.901474"
       cy="14.748195"
       rx="1.4770573"
       ry="1.5889558" /><ellipse
       style="fill:#ffffff;fill-opacity:1;stroke:#000000;stroke-width:1.2;stroke-linecap:round;stroke-linejoin:round;stroke-miterlimit:4.2"
       id="path30-1"
       cx="42.57975"
       cy="11.678204"
       rx="1.4770573"
       ry="1.5889558" /><ellipse
       style="fill:#ffffff;fill-opacity:1;stroke:#000000;stroke-width:1.2;stroke-linecap:round;stroke-linejoin:round;stroke-miterlimit:4.2"
       id="path31"
       cx="31.604422"
       cy="19.623985"
       rx="2.7750776"
       ry="1.0966033"
       transform="rotate(-9.1800792)" /><path
       style="fill:none;fill-opacity:1;stroke:#000000;stroke-width:1.2;stroke-linecap:round;stroke-linejoin:round;stroke-miterlimit:4.2"
       d="m 29.943983,17.769448 c 0,0 0.358074,1.34278 3.088391,0.895187 2.73032,-0.447593 1.472973,-3.251545 1.472973,-3.251545 0,0 0.630717,3.922935 2.823923,2.580155 2.193207,-1.342779 1.700854,-1.89142 1.700854,-1.89142"
       id="path32" /><path
       id="path48"
       style="display:inline;fill:url(#linearGradient49);fill-opacity:1;stroke:#cecece;stroke-width:1.2;stroke-linecap:round;stroke-linejoin:round;stroke-miterlimit:4.2;stroke-dasharray:none;stroke-opacity:1"
       d="M 16.82843,11.002429 C 15.658462,9.5364323 13.801046,8.5607178 11.950692,8.5607178 c -3.4023258,10e-8 -6.2543987,3.0437142 -6.2543989,6.5231162 -1e-7,3.181886 2.4319634,6.079779 5.5200769,6.468339 0.959388,-4.082515 3.078948,-7.663047 5.61206,-10.549744 z"
       sodipodi:nodetypes="csscc" /><path
       id="path35"
       style="fill:#888888;fill-opacity:1;stroke:#cecece;stroke-width:1.2;stroke-linecap:round;stroke-linejoin:round;stroke-miterlimit:4.2;stroke-opacity:1"
       d="m 12.565107,12.307503 a 2.2471225,2.8168159 21.056461 0 0 -2.476851,1.942 2.2471225,2.8168159 21.056461 0 0 1.084688,3.435966 2.2471225,2.8168159 21.056461 0 0 1.596285,-0.101285 l 1.711007,-3.397209 A 2.2471225,2.8168159 21.056461 0 0 13.19711,12.428426 2.2471225,2.8168159 21.056461 0 0 12.565107,12.307503 Z" /><path
       id="path50"
       style="fill:url(#linearGradient53);fill-opacity:1;stroke:#cecece;stroke-width:1.27871;stroke-linecap:round;stroke-linejoin:round;stroke-miterlimit:4.2;stroke-dasharray:none;stroke-opacity:1"
       d="m 48.601168,1.3807943 c -2.171046,3e-7 -3.938095,1.1519824 -4.99246,3.0349568 l 0.126607,0.089917 C 43.617256,4.4436892 43.498654,4.3805545 43.381331,4.319633 c 3.554588,1.5371593 7.01101,3.9560033 10.367843,7.269324 1.199643,-1.477468 1.972748,-5.171134 -0.663525,-8.2315392 -1.093296,-1.269189 -3.037351,-1.9766237 -4.484481,-1.9766235 z"
       sodipodi:nodetypes="sccccss" /><path
       id="path33-0"
       style="fill:#888888;fill-opacity:1;stroke:#cecece;stroke-width:1.2;stroke-linecap:round;stroke-linejoin:round;stroke-miterlimit:4.2;stroke-opacity:1"
       d="M 37.265732 31.707772 A 2.2471225 2.8168159 0 0 0 36.142004 31.330541 A 2.2471225 2.8168159 0 0 0 35.096266 31.654412 L 36.914947 36.792409 A 2.2471225 2.8168159 0 0 0 38.389508 34.147499 A 2.2471225 2.8168159 0 0 0 37.265732 31.707772 z "
       transform="rotate(-34.731959)" /><path
       style="display:none;fill:none;fill-opacity:1;stroke:#000000;stroke-width:1.3;stroke-linecap:round;stroke-linejoin:round;stroke-miterlimit:4.2;stroke-dasharray:none"
       d="m 16.82843,11.002429 c -2.845202,2.878106 -4.491346,6.541802 -5.61206,10.549744"
       id="path34"
       sodipodi:nodetypes="cc"
       sodipodi:insensitive="true" /><path
       style="display:inline;fill:none;fill-opacity:1;stroke:#cecece;stroke-width:1.3;stroke-linecap:round;stroke-linejoin:round;stroke-miterlimit:4.2;stroke-dasharray:none;stroke-opacity:1"
       d="m 43.381331,4.319633 c 3.789902,1.5047324 7.253115,3.9078582 10.367841,7.269324"
       id="path36"
       sodipodi:nodetypes="cc" /><path
       id="path57-7"
       style="display:inline;fill:url(#radialGradient59);stroke:none;stroke-width:1.49881;stroke-linecap:round;stroke-linejoin:round;stroke-miterlimit:4.2"
       d="m 40.549137,19.870702 c -3.110905,0.03271 -7.190036,0.549945 -10.261063,1.348158 -11.127515,2.892233 -17.760084,7.777763 -17.125907,13.913971 0.193921,1.876353 0.910091,4.507575 3.268138,5.277019 2.153067,0.702559 4.537977,1.09163 7.833171,1.339481 l 0.201986,-1.004853 c -5.079154,-0.896649 -8.281394,-3.008773 -8.615783,-5.548177 -0.561337,-4.262868 5.718471,-9.508818 16.158186,-11.846305 2.747992,-0.615284 6.212078,-1.091 8.888864,-1.086755 6.840673,0.01085 12.420629,2.414104 12.871565,5.715413 0.32376,2.37025 -1.316523,5.057066 -5.093078,7.631246 l 0.225844,0.462852 C 54.054594,32.820508 57.249999,29.36123 56.323368,25.376826 55.535367,21.98852 48.499226,19.787107 40.549137,19.870702 Z"
       sodipodi:nodetypes="ssssccssssccss" /><path
       style="fill:none;fill-opacity:1;stroke:#000000;stroke-width:0.974;stroke-linecap:round;stroke-linejoin:round;stroke-miterlimit:4.2;stroke-dasharray:none;stroke-opacity:1"
       d="m 26.356011,25.511162 c 4.507153,-1.828138 10.43688,-2.943918 14.645894,-2.733831"
       id="path2"
       sodipodi:nodetypes="cc" /></g></svg>
