<?xml version="1.0" encoding="UTF-8" standalone="no"?>
<!-- Created with Inkscape (http://www.inkscape.org/) -->

<svg
   width="512"
   height="512"
   viewBox="0 0 135.46666 135.46667"
   version="1.1"
   id="svg1"
   inkscape:version="1.4 (86a8ad7, 2024-10-11)"
   xml:space="preserve"
   sodipodi:docname="MSSFP_CC_north.svg"
   inkscape:export-filename="MSSFP_CC_north.png"
   inkscape:export-xdpi="96"
   inkscape:export-ydpi="96"
   xmlns:inkscape="http://www.inkscape.org/namespaces/inkscape"
   xmlns:sodipodi="http://sodipodi.sourceforge.net/DTD/sodipodi-0.dtd"
   xmlns:xlink="http://www.w3.org/1999/xlink"
   xmlns="http://www.w3.org/2000/svg"
   xmlns:svg="http://www.w3.org/2000/svg"
   xmlns:rdf="http://www.w3.org/1999/02/22-rdf-syntax-ns#"
   xmlns:cc="http://creativecommons.org/ns#"
   xmlns:dc="http://purl.org/dc/elements/1.1/"><sodipodi:namedview
     id="namedview1"
     pagecolor="#ffffff"
     bordercolor="#000000"
     borderopacity="0.25"
     inkscape:showpageshadow="2"
     inkscape:pageopacity="0.0"
     inkscape:pagecheckerboard="0"
     inkscape:deskcolor="#d1d1d1"
     inkscape:document-units="mm"
     showguides="true"
     showgrid="true"
     inkscape:zoom="1.4803313"
     inkscape:cx="90.85804"
     inkscape:cy="63.837061"
     inkscape:window-width="2560"
     inkscape:window-height="1377"
     inkscape:window-x="2552"
     inkscape:window-y="-8"
     inkscape:window-maximized="1"
     inkscape:current-layer="layer1" /><defs
     id="defs1"><linearGradient
       id="linearGradient5"
       inkscape:collect="always"><stop
         style="stop-color:#373737;stop-opacity:1;"
         offset="0"
         id="stop5" /><stop
         style="stop-color:#747474;stop-opacity:1;"
         offset="1"
         id="stop6" /></linearGradient><linearGradient
       inkscape:collect="always"
       xlink:href="#linearGradient5"
       id="linearGradient6"
       x1="68.042694"
       y1="79.561005"
       x2="67.764595"
       y2="88.189453"
       gradientUnits="userSpaceOnUse"
       gradientTransform="matrix(0.96422398,0,0,2.2870752,3.0918642,-106.80457)" /></defs><g
     inkscape:label="Layer 1"
     inkscape:groupmode="layer"
     id="layer1"><rect
       style="fill:#000000;fill-opacity:0.01;stroke:none;stroke-width:4;stroke-linejoin:round;stroke-dasharray:none;stroke-opacity:1"
       id="rect19"
       width="135.46666"
       height="135.46666"
       x="1.0935465e-05"
       y="0" /><g
       id="g6"
       transform="translate(0.146557,-3.3788829)"><path
         id="path4-5"
         style="fill:none;stroke:#000000;stroke-width:4;stroke-linejoin:round;stroke-dasharray:none;stroke-opacity:1"
         d="m 67.617874,50.797213 a 18.777924,16.800856 0 0 0 -18.731673,16.216581 21.203836,11.868678 0 0 0 -2.4722,5.516459 21.203836,11.868678 0 0 0 4.338753,7.189742 c -0.35018,1.281593 -0.70314,2.723354 -0.982369,4.239018 -0.430132,2.334772 -0.701044,4.81048 -0.459403,7.103442 0.24164,2.292963 1.053192,4.603397 3.109371,5.890597 4.004384,2.506809 9.923958,3.511678 15.871382,3.511928 5.947425,2.6e-4 11.862408,-1.009036 15.870866,-3.408575 2.110762,-1.263542 2.962584,-3.602768 3.224609,-5.927804 0.262026,-2.325037 4.24e-4,-4.843823 -0.425813,-7.224366 -0.342672,-1.913829 -0.800606,-3.727294 -1.228349,-5.231722 a 21.203836,11.868678 0 0 0 3.0887,-6.14226 21.203836,11.868678 0 0 0 -2.441711,-5.524727 18.777924,16.800856 0 0 0 -18.762163,-16.208313 z m 14.925704,30.158365 c 0.290267,1.115374 0.575138,2.333768 0.800985,3.59513 0.390008,2.178208 0.587681,4.431683 0.392224,6.166032 -0.195457,1.734349 -0.719212,2.743418 -1.460893,3.187402 -2.958297,1.770893 -8.49213,2.886881 -13.984159,2.886646 -5.492028,-2.35e-4 -11.00077,-1.122412 -13.922147,-2.951241 -0.714644,-0.447378 -1.223994,-1.455062 -1.404049,-3.163632 -0.180055,-1.70857 0.0266,-3.917478 0.419613,-6.050793 0.191441,-1.03915 0.423976,-2.055745 0.665075,-3.002401 a 21.203836,11.868678 0 0 0 13.567647,2.776058 21.203836,11.868678 0 0 0 14.925704,-3.443201 z" /><path
         style="fill:none;fill-opacity:1;stroke:url(#linearGradient6);stroke-width:3.67466;stroke-linejoin:round;stroke-dasharray:none"
         d="m 53.916658,75.789077 c 0,0 -6.063425,16.13777 -0.521781,19.606927 6.925762,4.335637 22.858409,4.254011 29.825164,0.08358 5.704885,-3.415051 -0.412536,-19.942527 -0.412536,-19.942527"
         id="path4"
         sodipodi:nodetypes="cssc" /><ellipse
         style="fill:#c6bf05;fill-opacity:1;stroke-width:3.64969;stroke-linejoin:round"
         id="path3"
         cx="67.617874"
         cy="72.530106"
         rx="21.203836"
         ry="11.868678" /><ellipse
         style="fill:#f9f106;fill-opacity:1;stroke-width:4.48453;stroke-linejoin:round"
         id="path1"
         cx="67.617874"
         cy="67.597923"
         rx="18.777924"
         ry="16.800856" /></g></g><metadata
     id="metadata9"><rdf:RDF><cc:Work
         rdf:about=""><dc:creator><cc:Agent><dc:title>Kieran David Evans</dc:title></cc:Agent></dc:creator><dc:rights><cc:Agent><dc:title>CC BY-SA - https://creativecommons.org/licenses/by-sa/4.0/</dc:title></cc:Agent></dc:rights><cc:license
           rdf:resource="http://creativecommons.org/licenses/by-sa/4.0/" /></cc:Work><cc:License
         rdf:about="http://creativecommons.org/licenses/by-sa/4.0/"><cc:permits
           rdf:resource="http://creativecommons.org/ns#Reproduction" /><cc:permits
           rdf:resource="http://creativecommons.org/ns#Distribution" /><cc:requires
           rdf:resource="http://creativecommons.org/ns#Notice" /><cc:requires
           rdf:resource="http://creativecommons.org/ns#Attribution" /><cc:permits
           rdf:resource="http://creativecommons.org/ns#DerivativeWorks" /><cc:requires
           rdf:resource="http://creativecommons.org/ns#ShareAlike" /></cc:License></rdf:RDF></metadata></svg>
