<?xml version="1.0" encoding="UTF-8" standalone="no"?>
<!-- Created with Inkscape (http://www.inkscape.org/) -->

<svg
   width="512"
   height="512"
   viewBox="0 0 135.46666 135.46667"
   version="1.1"
   id="svg1"
   inkscape:version="1.4 (86a8ad7, 2024-10-11)"
   xml:space="preserve"
   sodipodi:docname="MSSFP_CC_south.svg"
   inkscape:export-filename="MSSFP_CC_south.png"
   inkscape:export-xdpi="96"
   inkscape:export-ydpi="96"
   xmlns:inkscape="http://www.inkscape.org/namespaces/inkscape"
   xmlns:sodipodi="http://sodipodi.sourceforge.net/DTD/sodipodi-0.dtd"
   xmlns:xlink="http://www.w3.org/1999/xlink"
   xmlns="http://www.w3.org/2000/svg"
   xmlns:svg="http://www.w3.org/2000/svg"
   xmlns:rdf="http://www.w3.org/1999/02/22-rdf-syntax-ns#"
   xmlns:cc="http://creativecommons.org/ns#"
   xmlns:dc="http://purl.org/dc/elements/1.1/"><sodipodi:namedview
     id="namedview1"
     pagecolor="#ffffff"
     bordercolor="#000000"
     borderopacity="0.25"
     inkscape:showpageshadow="2"
     inkscape:pageopacity="0.0"
     inkscape:pagecheckerboard="0"
     inkscape:deskcolor="#d1d1d1"
     inkscape:document-units="mm"
     showguides="true"
     showgrid="true"
     inkscape:zoom="0.74016565"
     inkscape:cx="99.302095"
     inkscape:cy="199.27972"
     inkscape:window-width="2560"
     inkscape:window-height="1377"
     inkscape:window-x="-8"
     inkscape:window-y="-8"
     inkscape:window-maximized="1"
     inkscape:current-layer="layer1" /><defs
     id="defs1"><linearGradient
       id="linearGradient17"
       inkscape:collect="always"><stop
         style="stop-color:#bababa;stop-opacity:1;"
         offset="0"
         id="stop18" /><stop
         style="stop-color:#737373;stop-opacity:1;"
         offset="1"
         id="stop19" /></linearGradient><linearGradient
       id="linearGradient16"
       inkscape:collect="always"><stop
         style="stop-color:#bababa;stop-opacity:1;"
         offset="0"
         id="stop16" /><stop
         style="stop-color:#737373;stop-opacity:1;"
         offset="1"
         id="stop17" /></linearGradient><linearGradient
       id="linearGradient3"
       inkscape:collect="always"><stop
         style="stop-color:#f9f106;stop-opacity:1;"
         offset="0"
         id="stop3" /><stop
         style="stop-color:#f9f106;stop-opacity:1;"
         offset="0.50635386"
         id="stop9" /><stop
         style="stop-color:#ccc00d;stop-opacity:1;"
         offset="0.55913979"
         id="stop8" /><stop
         style="stop-color:#ccc00d;stop-opacity:1;"
         offset="0.60899311"
         id="stop10" /><stop
         style="stop-color:#ccc00d;stop-opacity:1;"
         offset="1"
         id="stop4" /></linearGradient><linearGradient
       inkscape:collect="always"
       xlink:href="#linearGradient3"
       id="linearGradient4"
       x1="67.61499"
       y1="93.133316"
       x2="67.61499"
       y2="39.73711"
       gradientUnits="userSpaceOnUse" /><radialGradient
       inkscape:collect="always"
       xlink:href="#linearGradient16"
       id="radialGradient17"
       cx="83.041443"
       cy="97.679703"
       fx="83.041443"
       fy="97.679703"
       r="6.3852792"
       gradientTransform="matrix(1,0,0,1.858005,0,-78.49204)"
       gradientUnits="userSpaceOnUse" /><radialGradient
       inkscape:collect="always"
       xlink:href="#linearGradient17"
       id="radialGradient19"
       cx="55.006462"
       cy="97.840462"
       fx="55.006462"
       fy="97.840462"
       r="6.3852794"
       gradientTransform="matrix(1,0,0,1.8580049,0,-78.492033)"
       gradientUnits="userSpaceOnUse" /></defs><g
     inkscape:label="Layer 1"
     inkscape:groupmode="layer"
     id="layer1"><rect
       style="fill:#000000;fill-opacity:0.01;stroke:none;stroke-width:4;stroke-linejoin:round;stroke-dasharray:none;stroke-opacity:1"
       id="rect19"
       width="135.46666"
       height="135.46666"
       x="0"
       y="0" /><path
       id="path15-2"
       style="fill:none;stroke-linejoin:round;stroke:#000000;stroke-opacity:1;stroke-width:4;stroke-dasharray:none"
       d="M 67.614994,38.149608 C 53.730125,37.988959 48.868927,48.970339 49.264693,49.650198 h 0.05478 a 18.77796,12.585193 0 0 0 -0.482658,2.672188 18.77796,12.585193 0 0 0 9.358085,10.885125 c -3.180987,1.16625 -6.104818,2.9703 -8.390185,5.51491 -3.632436,3.92897 -4.559096,10.30913 -1.650546,14.9071 0.821781,1.40428 1.856034,2.6386 3.035474,3.7176 0.318131,0.36831 0.644834,0.72224 0.979785,1.06299 -0.22282,1.02003 -0.439925,2.14293 -0.608231,3.32382 -0.290893,2.04101 -0.445244,4.21909 -0.217041,6.20686 0.228202,1.98778 0.836657,3.849199 2.261877,5.056539 0.469584,0.39778 1.019271,0.38433 1.400431,0.29869 0.38116,-0.0856 0.684746,-0.24118 0.962732,-0.47646 2.391203,-2.02356 4.009605,-5.454859 5.173845,-9.061459 2.006317,0.58136 4.171276,0.90263 6.495727,0.96273 3.02739,-0.067 5.577044,-0.54397 7.756633,-1.30586 1.171615,3.73107 2.815942,7.316939 5.282881,9.404589 0.277618,0.23465 0.582192,0.39097 0.962732,0.47646 0.38116,0.0856 0.930849,0.0991 1.400432,-0.29869 1.425221,-1.20734 2.033674,-3.068759 2.261877,-5.056539 0.228203,-1.98777 0.07386,-4.16585 -0.217041,-6.20686 -0.237224,-1.66444 -0.568702,-3.22581 -0.88005,-4.51083 3.091344,-2.89832 5.131997,-7.14088 4.527889,-11.42049 -0.649397,-4.78495 -4.093646,-8.79401 -8.254793,-11.03034 -1.094494,-0.62395 -2.237766,-1.14629 -3.414262,-1.5782 a 18.77796,12.585193 0 0 0 9.327596,-10.871685 18.77796,12.585193 0 0 0 -0.433048,-2.672188 h 0.0047 C 86.258938,48.715685 81.499863,38.310257 67.614994,38.149608 Z m 14.933972,50.801553 c 0.204752,0.94791 0.402919,1.98436 0.557072,3.06596 0.276167,1.93768 0.407932,3.97847 0.21084,5.69526 -0.181108,1.57755 -0.675087,2.769169 -1.402498,3.515549 -1.900874,-1.648809 -3.474061,-5.001189 -4.629692,-8.582419 2.104858,-0.99259 3.817874,-2.27334 5.264278,-3.69435 z m -28.658716,1.02732 c 1.609323,1.31122 3.383058,2.3524 5.323706,3.12074 -1.140567,3.40838 -2.661017,6.54972 -4.48138,8.128709 -0.727479,-0.74637 -1.220864,-1.937909 -1.401981,-3.515549 -0.197092,-1.71679 -0.06533,-3.75758 0.210839,-5.69526 0.100314,-0.70383 0.221716,-1.38178 0.348816,-2.03864 z" /><path
       style="fill:none;fill-opacity:1;stroke:url(#radialGradient17);stroke-width:2;stroke-linejoin:round;stroke-dasharray:none;stroke-opacity:1"
       d="m 82.395689,84.398783 c 0,0 4.536476,13.993271 0,17.836217 -0.276517,0.23424 -0.795761,0.0554 -1.072396,-0.17874 C 75.311541,96.968784 73.637794,79.7147 73.637794,79.7147"
       id="path15"
       sodipodi:nodetypes="caac" /><path
       style="fill:none;fill-opacity:1;stroke:url(#radialGradient19);stroke-width:2;stroke-linejoin:round;stroke-dasharray:none;stroke-opacity:1"
       d="m 54.251766,84.398784 c 0,0 -4.536476,13.993271 0,17.836216 0.276517,0.23424 0.795761,0.0554 1.072396,-0.17874 6.011752,-5.087475 7.685499,-22.341559 7.685499,-22.341559"
       id="path15-1"
       sodipodi:nodetypes="caac" /><path
       style="fill:#e3e715;fill-opacity:1;stroke:none;stroke-width:8.61668;stroke-linejoin:round"
       d="M 49.264905,49.65034 H 85.964566 C 86.259242,48.715827 81.499861,38.310498 67.614992,38.149849 53.730123,37.9892 48.869139,48.970481 49.264905,49.65034 Z"
       id="path10"
       sodipodi:nodetypes="cczc" /><path
       style="fill:#adb00c;fill-opacity:1;stroke:none;stroke-width:1.12159;stroke-linejoin:round;stroke-dasharray:none"
       d="M 86.229837,84.398784 H 49.005918 C 53.246172,91.068572 59.457234,94.509243 67.639104,94.720801 78.093342,94.48942 82.880185,89.39766 86.229837,84.398784 Z"
       id="path12"
       sodipodi:nodetypes="cccc" /><path
       id="path2"
       style="fill:url(#linearGradient4);fill-opacity:1;stroke:none;stroke-width:7.47294;stroke-linejoin:round"
       d="M 67.614994 39.737109 A 18.77796 12.585193 0 0 0 48.836812 52.322388 A 18.77796 12.585193 0 0 0 58.194897 63.207511 C 55.01391 64.373755 52.090079 66.17781 49.804712 68.72242 C 46.172276 72.651383 45.245617 79.031546 48.154167 83.629521 C 50.93868 88.387777 56.11851 91.246317 61.375065 92.424849 C 68.869102 94.140218 77.243582 92.773051 83.35977 87.968791 C 86.917276 85.085297 89.392034 80.463403 88.734119 75.802608 C 88.084722 71.017653 84.640472 67.008604 80.479325 64.772274 C 79.384831 64.148326 78.241559 63.625989 77.065063 63.194076 A 18.77796 12.585193 0 0 0 86.39266 52.322388 A 18.77796 12.585193 0 0 0 67.614994 39.737109 z " /><path
       id="path10-7"
       style="fill:none;fill-opacity:1;stroke:none;stroke-width:8.61668;stroke-linejoin:round"
       d="M -34.165873 -54.502616 C -48.050742 -54.663265 -52.91194 -43.681885 -52.516174 -43.002026 L -52.461397 -43.002026 A 18.77796 12.585193 0 0 0 -52.944055 -40.329838 A 18.77796 12.585193 0 0 0 -43.58597 -29.444714 C -46.766957 -28.27847 -49.690789 -26.474416 -51.976156 -23.929806 C -54.482255 -21.219126 -55.698792 -17.342004 -55.258126 -13.688053 L -56.091667 -4.9841919 L -54.201343 -4.8048747 L -53.772428 -9.2795369 C -53.72204 -9.1947217 -53.679622 -9.1063658 -53.626701 -9.0227051 C -53.34216 -8.5364743 -53.027066 -8.0752659 -52.694975 -7.6284749 L -53.414311 9.3632528 L -51.515719 9.4433512 L -50.879582 -5.575887 C -50.785119 -5.4854357 -50.690303 -5.3954777 -50.593811 -5.3071696 C -46.50165 -0.56831517 -41.017993 1.8908182 -34.142102 2.0686076 C -25.904254 1.8862814 -21.191941 -1.3166474 -17.92242 -5.1113159 C -17.760376 -5.254375 -17.602069 -5.4019185 -17.445447 -5.5521159 L -16.810343 9.4433512 L -14.912268 9.3632528 L -15.632638 -7.6207235 C -15.239012 -8.1584909 -14.876364 -8.7191026 -14.557768 -9.3027913 L -14.126786 -4.8048747 L -12.234395 -4.9841919 L -13.067936 -13.690637 C -12.916787 -14.728536 -12.896831 -15.787571 -13.046749 -16.849618 C -13.696146 -21.634573 -17.140395 -25.643622 -21.301542 -27.879952 C -22.396036 -28.5039 -23.539308 -29.026237 -24.715804 -29.45815 A 18.77796 12.585193 0 0 0 -15.388208 -40.329838 A 18.77796 12.585193 0 0 0 -15.821257 -43.002026 L -15.816606 -43.002026 C -15.52193 -43.936539 -20.281004 -54.341967 -34.165873 -54.502616 z " /></g><metadata
     id="metadata9"><rdf:RDF><cc:Work
         rdf:about=""><dc:creator><cc:Agent><dc:title>Kieran David Evans</dc:title></cc:Agent></dc:creator><dc:rights><cc:Agent><dc:title>CC BY-SA - https://creativecommons.org/licenses/by-sa/4.0/</dc:title></cc:Agent></dc:rights><cc:license
           rdf:resource="http://creativecommons.org/licenses/by-sa/4.0/" /></cc:Work><cc:License
         rdf:about="http://creativecommons.org/licenses/by-sa/4.0/"><cc:permits
           rdf:resource="http://creativecommons.org/ns#Reproduction" /><cc:permits
           rdf:resource="http://creativecommons.org/ns#Distribution" /><cc:requires
           rdf:resource="http://creativecommons.org/ns#Notice" /><cc:requires
           rdf:resource="http://creativecommons.org/ns#Attribution" /><cc:permits
           rdf:resource="http://creativecommons.org/ns#DerivativeWorks" /><cc:requires
           rdf:resource="http://creativecommons.org/ns#ShareAlike" /></cc:License></rdf:RDF></metadata></svg>
