<?xml version="1.0" encoding="UTF-8" standalone="no"?>
<!-- Created with Inkscape (http://www.inkscape.org/) -->

<svg
   width="512"
   height="512"
   viewBox="0 0 135.46666 135.46667"
   version="1.1"
   id="svg1"
   inkscape:version="1.4 (86a8ad7, 2024-10-11)"
   xml:space="preserve"
   sodipodi:docname="MSSFP_CC_east.svg"
   inkscape:export-filename="MSSFP_CC_east.png"
   inkscape:export-xdpi="96"
   inkscape:export-ydpi="96"
   xmlns:inkscape="http://www.inkscape.org/namespaces/inkscape"
   xmlns:sodipodi="http://sodipodi.sourceforge.net/DTD/sodipodi-0.dtd"
   xmlns:xlink="http://www.w3.org/1999/xlink"
   xmlns="http://www.w3.org/2000/svg"
   xmlns:svg="http://www.w3.org/2000/svg"
   xmlns:rdf="http://www.w3.org/1999/02/22-rdf-syntax-ns#"
   xmlns:cc="http://creativecommons.org/ns#"
   xmlns:dc="http://purl.org/dc/elements/1.1/"><sodipodi:namedview
     id="namedview1"
     pagecolor="#ffffff"
     bordercolor="#000000"
     borderopacity="0.25"
     inkscape:showpageshadow="2"
     inkscape:pageopacity="0.0"
     inkscape:pagecheckerboard="0"
     inkscape:deskcolor="#d1d1d1"
     inkscape:document-units="mm"
     showguides="true"
     showgrid="true"
     inkscape:zoom="1.0467523"
     inkscape:cx="275.61439"
     inkscape:cy="49.199796"
     inkscape:window-width="2560"
     inkscape:window-height="1377"
     inkscape:window-x="2552"
     inkscape:window-y="-8"
     inkscape:window-maximized="1"
     inkscape:current-layer="layer1" /><defs
     id="defs1"><linearGradient
       id="linearGradient13"
       inkscape:collect="always"><stop
         style="stop-color:#f9f106;stop-opacity:1;"
         offset="0"
         id="stop13" /><stop
         style="stop-color:#f9f106;stop-opacity:1;"
         offset="0.75757575"
         id="stop21" /><stop
         style="stop-color:#f8f032;stop-opacity:1;"
         offset="0.75757575"
         id="stop15" /><stop
         style="stop-color:#d5ce06;stop-opacity:1;"
         offset="0.87781042"
         id="stop20" /><stop
         style="stop-color:#e0d605;stop-opacity:1;"
         offset="1"
         id="stop14" /></linearGradient><linearGradient
       id="linearGradient11"
       inkscape:collect="always"><stop
         style="stop-color:#898989;stop-opacity:1;"
         offset="0"
         id="stop11" /><stop
         style="stop-color:#515151;stop-opacity:1;"
         offset="1"
         id="stop12" /></linearGradient><linearGradient
       inkscape:collect="always"
       xlink:href="#linearGradient11"
       id="linearGradient12"
       x1="69.257866"
       y1="98.452332"
       x2="65.003632"
       y2="83.167938"
       gradientUnits="userSpaceOnUse"
       gradientTransform="matrix(0.84713064,0,0,1.007863,7.4169075,-2.1840347)" /><radialGradient
       inkscape:collect="always"
       xlink:href="#linearGradient13"
       id="radialGradient14"
       cx="69.13591"
       cy="68.479523"
       fx="69.13591"
       fy="68.479523"
       r="23.537582"
       gradientTransform="matrix(1.1898374,0.00676426,-0.00674649,0.94167858,-12.404222,6.6666255)"
       gradientUnits="userSpaceOnUse" /></defs><g
     inkscape:label="Layer 1"
     inkscape:groupmode="layer"
     id="layer1"><rect
       style="fill:#000000;fill-opacity:0.01;stroke:none;stroke-width:4;stroke-linejoin:round;stroke-dasharray:none;stroke-opacity:1"
       id="rect19"
       width="135.46666"
       height="135.46666"
       x="0"
       y="0" /><path
       id="path11-7"
       style="fill:none;stroke-linejoin:round;stroke:#000000;stroke-opacity:1;stroke-width:4;stroke-dasharray:none"
       d="m 48.134983,38.037032 c -2.351247,0.0678 -4.246879,1.942644 -5.39347,3.749125 -5.267496,8.29907 -5.795046,23.98282 -0.503845,29.484505 a 22.766562,14.400185 0 0 0 1.801441,5.549532 21.847881,13.00279 0 0 0 0.485241,1.786454 c -0.203121,1.788336 -0.394785,3.794627 -0.507979,5.843055 -0.168505,3.049362 -0.177211,6.144508 0.242362,8.69921 0.209787,1.277351 0.515469,2.424918 1.062468,3.41788 0.547,0.992962 1.459075,1.9002 2.687691,2.144572 10.883316,2.164695 26.117297,3.360575 36.380727,-0.31626 0.9827,-0.352046 1.64903,-1.051785 2.13889,-1.833997 0.48985,-0.782211 0.80861,-1.684706 0.82992,-2.668054 0.048,-2.210469 -0.96448,-4.240457 -2.31459,-6.066297 -0.91706,-1.240199 -2.0195,-2.396043 -3.16983,-3.464388 a 21.847881,13.00279 0 0 0 5.72937,-8.740035 21.847881,13.00279 0 0 0 -0.20671,-1.777669 22.766562,14.400185 0 0 0 0.37414,-2.574003 22.766562,14.400185 0 0 0 -22.766572,-14.400155 22.766562,14.400185 0 0 0 -6.069914,0.553972 9.1366034,20.939056 0 0 0 -9.102286,-19.122864 c -0.587555,-0.199905 -1.154459,-0.28023 -1.697054,-0.264583 z m -0.838709,44.498576 a 21.847881,13.00279 0 0 0 18.458822,6.08955 21.847881,13.00279 0 0 0 13.214183,-2.652551 c 1.33421,1.169723 2.60488,2.447035 3.54707,3.72122 1.11823,1.512255 1.72475,2.972441 1.69964,4.130498 -0.006,0.289995 -0.13934,0.73251 -0.34985,1.068668 -0.21052,0.336158 -0.4929,0.527904 -0.53537,0.543119 -9.08675,3.255299 -24.182712,2.286952 -34.708994,0.19327 -0.128098,-0.02548 -0.277735,-0.08619 -0.548804,-0.578259 -0.271068,-0.492068 -0.539605,-1.346229 -0.714685,-2.412256 -0.35016,-2.132054 -0.367054,-5.085737 -0.205156,-8.015532 0.03871,-0.700538 0.0881,-1.39913 0.143144,-2.087727 z" /><path
       style="fill:none;fill-opacity:1;stroke:url(#linearGradient12);stroke-width:3.14163;stroke-linejoin:round;stroke-dasharray:none;stroke-opacity:1"
       d="m 72.549418,79.423357 c 0,0 13.383641,7.697604 13.237521,14.434653 -0.02762,1.273343 -0.901969,2.68978 -1.927131,3.057041 -9.675093,3.466069 -24.840079,2.38394 -35.544878,0.254751 -5.426855,-1.079401 -1.391819,-24.456328 -1.391819,-24.456328"
       id="path11"
       sodipodi:nodetypes="csssc" /><ellipse
       style="fill:#c6bf05;fill-opacity:1;stroke:none;stroke-width:4.07985;stroke-linejoin:round;stroke-dasharray:none;stroke-opacity:1"
       id="path20"
       cx="65.755096"
       cy="75.622368"
       rx="21.847881"
       ry="13.00279"
       inkscape:label="path20" /><path
       style="fill:#fffd00;fill-opacity:1;stroke:none;stroke-width:3.4;stroke-linejoin:round;stroke-dasharray:none;stroke-opacity:1"
       d="M 42.237215,71.270585 C 36.946014,65.7689 37.473887,50.08516 42.741383,41.78609 c 1.411188,-2.223361 3.956576,-4.55071 7.090201,-3.484552 z"
       id="path21"
       sodipodi:nodetypes="cacc" /><path
       id="path9"
       style="fill:url(#radialGradient14);stroke:none;stroke-width:3.92625;stroke-linejoin:round;stroke-dasharray:none;stroke-opacity:1"
       d="M 49.831584 38.301538 A 9.1366034 20.939056 0 0 0 43.942021 43.286764 A 5.9399996 17.899519 0 0 0 40.69519 59.240312 A 5.9399996 17.899519 0 0 0 42.238249 71.258183 A 22.766562 14.400185 0 0 0 42.237215 71.270585 A 22.766562 14.400185 0 0 0 65.003784 85.671257 A 22.766562 14.400185 0 0 0 87.770353 71.270585 A 22.766562 14.400185 0 0 0 65.003784 56.870431 A 22.766562 14.400185 0 0 0 58.93387 57.424402 A 9.1366034 20.939056 0 0 0 49.831584 38.301538 z " /></g><metadata
     id="metadata9"><rdf:RDF><cc:Work
         rdf:about=""><dc:creator><cc:Agent><dc:title>Kieran David Evans</dc:title></cc:Agent></dc:creator><dc:rights><cc:Agent><dc:title>CC BY-SA - https://creativecommons.org/licenses/by-sa/4.0/</dc:title></cc:Agent></dc:rights><cc:license
           rdf:resource="http://creativecommons.org/licenses/by-sa/4.0/" /></cc:Work><cc:License
         rdf:about="http://creativecommons.org/licenses/by-sa/4.0/"><cc:permits
           rdf:resource="http://creativecommons.org/ns#Reproduction" /><cc:permits
           rdf:resource="http://creativecommons.org/ns#Distribution" /><cc:requires
           rdf:resource="http://creativecommons.org/ns#Notice" /><cc:requires
           rdf:resource="http://creativecommons.org/ns#Attribution" /><cc:permits
           rdf:resource="http://creativecommons.org/ns#DerivativeWorks" /><cc:requires
           rdf:resource="http://creativecommons.org/ns#ShareAlike" /></cc:License></rdf:RDF></metadata></svg>
