<?xml version="1.0" encoding="UTF-8" standalone="no"?>
<!-- Created with Inkscape (http://www.inkscape.org/) -->

<svg
   width="512"
   height="512"
   viewBox="0 0 135.46666 135.46667"
   version="1.1"
   id="svg1"
   xml:space="preserve"
   inkscape:version="1.4 (86a8ad7, 2024-10-11)"
   sodipodi:docname="MSS_Discordant.svg"
   inkscape:export-filename="MSS_Discordant.png"
   inkscape:export-xdpi="96"
   inkscape:export-ydpi="96"
   xmlns:inkscape="http://www.inkscape.org/namespaces/inkscape"
   xmlns:sodipodi="http://sodipodi.sourceforge.net/DTD/sodipodi-0.dtd"
   xmlns="http://www.w3.org/2000/svg"
   xmlns:svg="http://www.w3.org/2000/svg"><sodipodi:namedview
     id="namedview1"
     pagecolor="#ffffff"
     bordercolor="#000000"
     borderopacity="0.25"
     inkscape:showpageshadow="2"
     inkscape:pageopacity="0.0"
     inkscape:pagecheckerboard="0"
     inkscape:deskcolor="#d1d1d1"
     inkscape:document-units="mm"
     inkscape:zoom="1.4142136"
     inkscape:cx="205.76807"
     inkscape:cy="204.0003"
     inkscape:window-width="2560"
     inkscape:window-height="1377"
     inkscape:window-x="-8"
     inkscape:window-y="-8"
     inkscape:window-maximized="1"
     inkscape:current-layer="layer1" /><defs
     id="defs1" /><g
     inkscape:label="Layer 1"
     inkscape:groupmode="layer"
     id="layer1"><path
       style="fill:#ffffff;stroke:none;stroke-width:1.34312;fill-opacity:1"
       d="m 44.993194,104.20288 -9.594942,-4.264418 c 2.723217,-3.729816 9.763148,0.817008 13.503994,1.879948 11.936238,3.3916 25.360786,3.42401 37.313665,0.10145 3.832182,-1.06523 11.03829,-5.76434 13.859369,-1.981394 L 79.675148,106.967 c 0.456043,2.52698 3.151962,8.88481 5.830118,9.62723 1.529814,0.42408 15.297624,-2.96567 16.702224,-3.48931 4.80052,-1.7897 9.36291,-3.88591 13.85936,-6.33247 2.83125,-1.54051 10.04336,-4.58551 10.90344,-7.905295 1.38363,-5.340587 0.69895,-12.331434 0.1733,-17.763207 C 125.49421,64.059775 120.37294,46.851017 110.2573,32.780449 105.93202,26.764126 86.233729,18.559512 85.498324,18.841117 c -1.782319,0.682495 -3.572729,9.80026 -4.257568,11.445172 -8.153178,-1.963592 -18.854808,-1.963582 -27.007986,0 C 53.547931,28.641365 51.631867,19.774896 49.849555,19.092401 47.678956,18.261229 27.930468,29.113793 25.412841,32.437965 15.013201,46.169182 9.9611587,64.247599 8.3299384,81.103948 c -0.5253361,5.428617 -1.2269546,12.42751 0.173024,17.763207 0.8604926,3.279565 7.7800956,6.146235 10.5483496,7.723485 4.449917,2.53542 9.095732,4.55405 13.859361,6.42433 1.433854,0.56296 15.872807,4.01792 17.430672,3.57926 2.570119,-0.72368 5.488049,-7.43304 5.959598,-9.87851 M 48.902246,85.86412 C 35.31172,87.670449 28.390565,57.448614 34.500266,55.864562 c 8.089523,-2.43054 28.677171,28.102239 14.40198,29.999558 z m 48.03632,-31.246171 c 5.610864,1.202591 6.342484,28.559058 -7.52434,31.128752 -13.889728,2.573949 -1.083763,-32.973749 7.52434,-31.128752 z"
       id="path1"
       sodipodi:nodetypes="ccssccsssssssccscssssscscssss" /></g></svg>
