<?xml version="1.0" encoding="UTF-8" standalone="no"?>
<!-- Created with Inkscape (http://www.inkscape.org/) -->

<svg
   width="512"
   height="512"
   viewBox="0 0 135.46666 135.46667"
   version="1.1"
   id="svg1"
   inkscape:version="1.4 (86a8ad7, 2024-10-11)"
   xml:space="preserve"
   sodipodi:docname="MSSFP_PsychicGenTier1.svg"
   inkscape:export-filename="MSSFP_PsychicGenTier1_Full.png"
   inkscape:export-xdpi="96"
   inkscape:export-ydpi="96"
   xmlns:inkscape="http://www.inkscape.org/namespaces/inkscape"
   xmlns:sodipodi="http://sodipodi.sourceforge.net/DTD/sodipodi-0.dtd"
   xmlns:xlink="http://www.w3.org/1999/xlink"
   xmlns="http://www.w3.org/2000/svg"
   xmlns:svg="http://www.w3.org/2000/svg"
   xmlns:rdf="http://www.w3.org/1999/02/22-rdf-syntax-ns#"
   xmlns:cc="http://creativecommons.org/ns#"
   xmlns:dc="http://purl.org/dc/elements/1.1/"><sodipodi:namedview
     id="namedview1"
     pagecolor="#ffffff"
     bordercolor="#000000"
     borderopacity="0.25"
     inkscape:showpageshadow="2"
     inkscape:pageopacity="0.0"
     inkscape:pagecheckerboard="0"
     inkscape:deskcolor="#d1d1d1"
     inkscape:document-units="mm"
     showguides="true"
     showgrid="true"
     inkscape:zoom="1"
     inkscape:cx="238.49999"
     inkscape:cy="108.5"
     inkscape:window-width="2560"
     inkscape:window-height="1377"
     inkscape:window-x="2552"
     inkscape:window-y="-8"
     inkscape:window-maximized="1"
     inkscape:current-layer="layer1"><inkscape:grid
       id="grid2"
       units="px"
       originx="0"
       originy="0"
       spacingx="1.3229168"
       spacingy="1.3229167"
       empcolor="#0099e5"
       empopacity="0.30196078"
       color="#0099e5"
       opacity="0.14901961"
       empspacing="5"
       enabled="true"
       visible="true"
       dotted="true"
       snapvisiblegridlinesonly="true" /></sodipodi:namedview><defs
     id="defs1"><linearGradient
       id="linearGradient37"
       inkscape:collect="always"><stop
         style="stop-color:#90967b;stop-opacity:1;"
         offset="0"
         id="stop37" /><stop
         style="stop-color:#a5aa94;stop-opacity:1;"
         offset="1"
         id="stop38" /></linearGradient><inkscape:path-effect
       effect="taper_stroke"
       start_shape="center | center"
       end_shape="center | center"
       id="path-effect32"
       is_visible="true"
       lpeversion="1"
       stroke_width="1"
       subpath="1"
       attach_start="0.2"
       end_offset="0.2"
       start_smoothing="0.5"
       end_smoothing="0.5"
       jointype="extrapolated"
       miter_limit="100" /><inkscape:path-effect
       effect="taper_stroke"
       start_shape="center | center"
       end_shape="center | center"
       id="path-effect31"
       is_visible="true"
       lpeversion="1"
       stroke_width="1"
       subpath="1"
       attach_start="0.4"
       end_offset="0.4"
       start_smoothing="0.5"
       end_smoothing="0.5"
       jointype="extrapolated"
       miter_limit="100" /><marker
       style="overflow:visible"
       id="Diamond"
       refX="0"
       refY="0"
       orient="auto"
       inkscape:stockid="Diamond"
       markerWidth="0.5"
       markerHeight="0.5"
       viewBox="0 0 1 1"
       inkscape:isstock="true"
       inkscape:collect="always"
       preserveAspectRatio="xMidYMid"><path
         transform="scale(0.45)"
         style="fill:context-stroke;fill-rule:evenodd;stroke:none"
         d="M 0,-7.0710768 -7.0710894,0 0,7.0710589 7.0710462,0 Z"
         id="path23" /></marker><marker
       style="overflow:visible"
       id="marker16"
       refX="0"
       refY="0"
       orient="auto"
       inkscape:stockid="Dot"
       markerWidth="0.5"
       markerHeight="0.5"
       viewBox="0 0 1 1"
       inkscape:isstock="true"
       inkscape:collect="always"
       preserveAspectRatio="xMidYMid"><path
         transform="scale(0.5)"
         style="fill:context-stroke;fill-rule:evenodd;stroke:none"
         d="M 5,0 C 5,2.76 2.76,5 0,5 -2.76,5 -5,2.76 -5,0 c 0,-2.76 2.3,-5 5,-5 2.76,0 5,2.24 5,5 z"
         sodipodi:nodetypes="sssss"
         id="path16" /></marker><marker
       style="overflow:visible"
       id="Dot"
       refX="0"
       refY="0"
       orient="auto"
       inkscape:stockid="Dot"
       markerWidth="0.5"
       markerHeight="0.5"
       viewBox="0 0 1 1"
       inkscape:isstock="true"
       inkscape:collect="always"
       preserveAspectRatio="xMidYMid"><path
         transform="scale(0.5)"
         style="fill:context-stroke;fill-rule:evenodd;stroke:none"
         d="M 5,0 C 5,2.76 2.76,5 0,5 -2.76,5 -5,2.76 -5,0 c 0,-2.76 2.3,-5 5,-5 2.76,0 5,2.24 5,5 z"
         sodipodi:nodetypes="sssss"
         id="path17" /></marker><linearGradient
       id="linearGradient7"
       inkscape:collect="always"><stop
         style="stop-color:#949464;stop-opacity:1;"
         offset="0"
         id="stop7" /><stop
         style="stop-color:#c2c298;stop-opacity:1;"
         offset="1"
         id="stop8" /></linearGradient><radialGradient
       inkscape:collect="always"
       xlink:href="#linearGradient7"
       id="radialGradient8"
       cx="44.979172"
       cy="74.948318"
       fx="44.979172"
       fy="74.948318"
       r="41.010422"
       gradientTransform="matrix(1,0,0,1.048387,0,-3.1685921)"
       gradientUnits="userSpaceOnUse" /><filter
       inkscape:menu-tooltip="In and out glow with a possible offset and colorizable flood"
       inkscape:menu="Shadows and Glows"
       inkscape:label="Cutout Glow"
       style="color-interpolation-filters:sRGB"
       id="filter41"
       x="-0.10268904"
       y="-1.6965542"
       width="1.2481652"
       height="4.7710612"><feOffset
         dy="3"
         dx="3"
         id="feOffset41" /><feGaussianBlur
         stdDeviation="3 5.611"
         result="blur"
         id="feGaussianBlur41" /><feFlood
         flood-color="rgb(0,0,0)"
         flood-opacity="1"
         result="flood"
         id="feFlood41" /><feComposite
         in="flood"
         in2="SourceGraphic"
         operator="in"
         result="composite"
         id="feComposite41" /><feBlend
         in="blur"
         in2="composite"
         mode="normal"
         id="feBlend41" /></filter><filter
       inkscape:label="Metallized Paint"
       inkscape:menu="Materials"
       inkscape:menu-tooltip="Metallized effect with a soft lighting, slightly translucent at the edges"
       style="color-interpolation-filters:sRGB"
       id="filter60"
       x="-0.32521618"
       y="-2.8724408"
       width="1.6504324"
       height="6.7448815"><feGaussianBlur
         stdDeviation="0.001 0"
         result="result1"
         id="feGaussianBlur55" /><feComposite
         in="result1"
         in2="result1"
         result="result4"
         operator="in"
         id="feComposite55" /><feBlend
         in="result1"
         mode="multiply"
         result="result5"
         in2="result4"
         id="feBlend55" /><feGaussianBlur
         stdDeviation="8"
         result="result6"
         in="result5"
         id="feGaussianBlur56" /><feComposite
         operator="atop"
         in="result6"
         in2="result5"
         result="result8"
         id="feComposite56" /><feComposite
         operator="in"
         result="fbSourceGraphic"
         in="result6"
         in2="result8"
         id="feComposite57" /><feGaussianBlur
         result="result0"
         in="fbSourceGraphic"
         stdDeviation="1.5"
         id="feGaussianBlur57" /><feSpecularLighting
         specularExponent="50"
         specularConstant="1.8000000000000003"
         surfaceScale="1.2000000000000002"
         lighting-color="#ffffff"
         result="result1"
         in="result0"
         id="feSpecularLighting57"><fePointLight
           z="21000"
           y="-9000"
           x="-6000"
           id="fePointLight57" /></feSpecularLighting><feComposite
         operator="in"
         result="result2"
         in="result1"
         in2="fbSourceGraphic"
         id="feComposite58" /><feComposite
         k3="1"
         k2="1.5700000000000001"
         operator="arithmetic"
         result="result4"
         in="fbSourceGraphic"
         in2="result2"
         id="feComposite59"
         k1="1.9199999999999999"
         k4="0" /><feComposite
         operator="in"
         in="result9"
         in2="result4"
         result="result91"
         id="feComposite60" /><feBlend
         mode="color-burn"
         in2="result91"
         id="feBlend60" /></filter><filter
       inkscape:menu-tooltip="In and out glow with a possible offset and colorizable flood"
       inkscape:menu="Shadows and Glows"
       inkscape:label="Cutout Glow"
       style="color-interpolation-filters:sRGB"
       id="filter41-4"
       x="-0.20932767"
       y="-1.6965539"
       width="1.5058752"
       height="4.7710605"><feOffset
         dy="3"
         dx="3"
         id="feOffset41-8" /><feGaussianBlur
         stdDeviation="3 5.611"
         result="blur"
         id="feGaussianBlur41-8" /><feFlood
         flood-color="rgb(0,0,0)"
         flood-opacity="1"
         result="flood"
         id="feFlood41-2" /><feComposite
         in="flood"
         in2="SourceGraphic"
         operator="in"
         result="composite"
         id="feComposite41-4" /><feBlend
         in="blur"
         in2="composite"
         mode="normal"
         id="feBlend41-5" /></filter><filter
       inkscape:label="Metallized Paint"
       inkscape:menu="Materials"
       inkscape:menu-tooltip="Metallized effect with a soft lighting, slightly translucent at the edges"
       style="color-interpolation-filters:sRGB"
       id="filter60-4"
       x="-0.32521618"
       y="-2.8724408"
       width="1.6504324"
       height="6.7448815"><feGaussianBlur
         stdDeviation="0.001 0"
         result="result1"
         id="feGaussianBlur55-8" /><feComposite
         in="result1"
         in2="result1"
         result="result4"
         operator="in"
         id="feComposite55-8" /><feBlend
         in="result1"
         mode="multiply"
         result="result5"
         in2="result4"
         id="feBlend55-2" /><feGaussianBlur
         stdDeviation="8"
         result="result6"
         in="result5"
         id="feGaussianBlur56-4" /><feComposite
         operator="atop"
         in="result6"
         in2="result5"
         result="result8"
         id="feComposite56-5" /><feComposite
         operator="in"
         result="fbSourceGraphic"
         in="result6"
         in2="result8"
         id="feComposite57-5" /><feGaussianBlur
         result="result0"
         in="fbSourceGraphic"
         stdDeviation="1.5"
         id="feGaussianBlur57-1" /><feSpecularLighting
         specularExponent="50"
         specularConstant="1.79999995"
         surfaceScale="1.20000005"
         lighting-color="#ffffff"
         result="result1"
         in="result0"
         id="feSpecularLighting57-7"><fePointLight
           z="21000"
           y="-9000"
           x="-6000"
           id="fePointLight57-1" /></feSpecularLighting><feComposite
         operator="in"
         result="result2"
         in="result1"
         in2="fbSourceGraphic"
         id="feComposite58-1" /><feComposite
         k3="1"
         k2="1.57"
         operator="arithmetic"
         result="result4"
         in="fbSourceGraphic"
         in2="result2"
         id="feComposite59-5"
         k1="1.92"
         k4="0" /><feComposite
         operator="in"
         in="result9"
         in2="result4"
         result="result91"
         id="feComposite60-2" /><feBlend
         mode="color-burn"
         in2="result91"
         id="feBlend60-7" /></filter><filter
       inkscape:menu-tooltip="In and out glow with a possible offset and colorizable flood"
       inkscape:menu="Shadows and Glows"
       inkscape:label="Cutout Glow"
       style="color-interpolation-filters:sRGB"
       id="filter41-1"
       x="-0.10268904"
       y="-1.6965542"
       width="1.2481652"
       height="4.7710612"><feOffset
         dy="3"
         dx="3"
         id="feOffset41-3" /><feGaussianBlur
         stdDeviation="3 5.611"
         result="blur"
         id="feGaussianBlur41-87" /><feFlood
         flood-color="rgb(0,0,0)"
         flood-opacity="1"
         result="flood"
         id="feFlood41-4" /><feComposite
         in="flood"
         in2="SourceGraphic"
         operator="in"
         result="composite"
         id="feComposite41-2" /><feBlend
         in="blur"
         in2="composite"
         mode="normal"
         id="feBlend41-7" /></filter><inkscape:path-effect
       effect="taper_stroke"
       start_shape="center | center"
       end_shape="center | center"
       id="path-effect31-4"
       is_visible="true"
       lpeversion="1"
       stroke_width="1"
       subpath="1"
       attach_start="0.43917744"
       end_offset="0.4"
       start_smoothing="0.5"
       end_smoothing="0.5"
       jointype="extrapolated"
       miter_limit="100" /><linearGradient
       inkscape:collect="always"
       xlink:href="#linearGradient37"
       id="linearGradient38"
       x1="33.072922"
       y1="60.192708"
       x2="37.041672"
       y2="60.192708"
       gradientUnits="userSpaceOnUse"
       gradientTransform="translate(-1.5149424e-6)" /><linearGradient
       inkscape:collect="always"
       xlink:href="#linearGradient37"
       id="linearGradient39"
       gradientUnits="userSpaceOnUse"
       gradientTransform="translate(66.145839)"
       x1="33.072922"
       y1="60.192708"
       x2="37.041672"
       y2="60.192708" /></defs><g
     inkscape:label="Layer 1"
     inkscape:groupmode="layer"
     id="layer1"><path
       id="path60"
       style="display:inline;fill:#000000;fill-opacity:1;stroke:none;stroke-width:1;stroke-linejoin:round;stroke-dasharray:none;stroke-opacity:1"
       d="m 84.783203,19.845703 c -17.348588,0.0076 -34.70023,-0.03834 -52.046875,0.04883 -1.87396,0.434365 -2.828307,2.271884 -4.220416,3.419475 -1.525832,1.583684 -3.288509,3.003477 -4.461224,4.889119 -0.51709,2.131657 -0.09846,4.336628 -0.242688,6.500781 0.01511,7.086687 -0.06499,14.178125 0.07874,21.261704 0.568539,1.968553 2.497768,3.007197 3.733809,4.512635 0.933744,0.934335 1.867488,1.86867 2.801231,2.803005 0,1.473307 0,2.946615 0,4.419922 -2.109772,2.215342 -4.511627,4.192424 -6.324219,6.671875 -0.58932,1.994747 -0.138503,4.091051 -0.289483,6.13125 0.0152,7.254141 -0.06538,14.513004 0.07866,21.764041 0.572793,1.97056 2.499983,3.02148 3.755457,4.51246 1.46578,1.41404 2.765322,3.06818 4.541302,4.10787 2.129071,0.49824 4.32572,0.0984 6.485156,0.23637 21.570851,-0.01 43.144244,0.0286 64.713507,-0.0275 2.02926,-0.44586 3.09706,-2.40755 4.57765,-3.67014 1.09774,-1.13857 2.50558,-2.15886 3.02456,-3.70642 0.30828,-2.49936 0.0343,-5.022291 0.137,-7.531945 -0.0162,-7.488138 0.0509,-14.981743 -0.057,-22.466407 -0.54898,-1.959656 -2.45601,-2.995239 -3.68504,-4.482212 -0.4931,-0.559992 -1.17397,-1.042266 -1.54934,-1.650991 0,-1.441927 0,-2.883854 0,-4.325781 1.69555,-1.811417 3.73023,-3.361734 5.05079,-5.486328 0.5057,-2.130686 0.10068,-4.331004 0.24045,-6.492969 -0.0166,-7.955473 0.0519,-15.916276 -0.0569,-23.868359 -0.59006,-2.022478 -2.5634,-3.089703 -3.85052,-4.620262 -1.13139,-1.107427 -2.1966,-2.570126 -3.83503,-2.895363 -2.42487,-0.16286 -4.864434,-0.02092 -7.29492,-0.06489 -3.76823,0.0034 -7.53646,0.0068 -11.30469,0.01021 z"
       inkscape:label="Outline" /><path
       style="display:inline;fill:url(#radialGradient8);fill-opacity:1;stroke:none;stroke-width:4;stroke-linejoin:round"
       d="m 33.072919,108.47917 -6.614583,-6.61459 V 75.406252 l 6.614583,-6.614584 V 62.177085 L 26.458336,55.562502 V 29.104166 l 6.614583,-6.614582 h 70.114591 l 5.29167,5.291666 v 29.104169 l -5.29167,5.291666 v 6.614583 l 5.29167,5.291667 V 103.1875 l -5.29167,5.29167 z"
       id="path2"
       inkscape:label="Base" /><g
       id="g3"
       inkscape:label="Shadows"
       style="display:inline"><path
         style="fill:#000000;fill-opacity:0.18;stroke:none;stroke-width:4;stroke-linejoin:round"
         d="M 33.072919,108.47917 V 96.572918 h 70.114591 v 11.906252 z"
         id="path3" /><path
         style="fill:#000000;fill-opacity:0.24;stroke:none;stroke-width:4;stroke-linejoin:round"
         d="m 33.072919,108.47918 -6.614583,-6.61459 V 89.958342 l 6.614583,6.614583 z"
         id="path4" /><path
         style="display:inline;fill:#000000;fill-opacity:0.08;stroke:none;stroke-width:4;stroke-linejoin:round"
         d="m 103.18751,108.47917 5.29167,-5.29167 V 92.604168 l -5.29167,3.96875 z"
         id="path5" /><path
         style="fill:#000000;fill-opacity:0.24;stroke:none;stroke-width:4;stroke-linejoin:round"
         d="m 26.458336,55.562502 6.614583,6.614583 V 51.593752 l -6.614583,-5.291667 z"
         id="path6" /><path
         style="fill:#000000;fill-opacity:0.08;stroke:none;stroke-width:4.0442;stroke-linejoin:round"
         d="m 103.18751,62.44167 5.29167,-5.40926 V 46.302085 l -5.29167,5.291667 z"
         id="path7"
         sodipodi:nodetypes="ccccc" /></g><g
       id="g1"
       inkscape:label="ArchoLines"
       style="display:inline"><path
         style="fill:none;fill-opacity:1;stroke:#dce260;stroke-width:1;stroke-linejoin:round;stroke-dasharray:none;stroke-opacity:1;marker-end:url(#Dot)"
         d="m 46.302088,96.572918 v -23.8125 H 66.14584 l 10e-7,-5.291666"
         id="path9"
         sodipodi:nodetypes="cccc" /><path
         style="fill:none;fill-opacity:1;stroke:#dce260;stroke-width:1;stroke-linejoin:round;stroke-dasharray:none;stroke-opacity:1;marker-end:url(#marker16)"
         d="M 108.47918,79.375002 H 79.375007 l 2e-6,-11.90625"
         id="path10"
         sodipodi:nodetypes="ccc" /><path
         style="fill:none;fill-opacity:1;stroke:#dce260;stroke-width:1;stroke-linejoin:round;stroke-dasharray:none;stroke-opacity:1;marker-end:url(#marker16)"
         d="M 92.604176,96.572918 V 85.989585 H 72.760424 l 10e-7,-18.520833"
         id="path11"
         sodipodi:nodetypes="cccc" /><path
         style="fill:none;fill-opacity:1;stroke:#dce260;stroke-width:1;stroke-linejoin:round;stroke-dasharray:none;stroke-opacity:1;marker-end:url(#marker16)"
         d="m 26.458336,39.687502 h 19.843752 v 11.90625"
         id="path13"
         sodipodi:nodetypes="ccc" /><path
         style="fill:none;fill-opacity:1;stroke:#dce260;stroke-width:1;stroke-linejoin:round;stroke-dasharray:none;stroke-opacity:1;marker-end:url(#marker16)"
         d="M 108.47918,46.302085 H 85.989593 v 5.291667"
         id="path14"
         sodipodi:nodetypes="ccc" /><path
         style="fill:none;fill-opacity:1;stroke:#dce260;stroke-width:1;stroke-linejoin:round;stroke-dasharray:none;stroke-opacity:1;marker-end:url(#marker16)"
         d="m 66.14584,22.489584 10e-7,29.104168"
         id="path15"
         sodipodi:nodetypes="cc" /><path
         style="fill:none;fill-opacity:1;stroke:#dce260;stroke-width:1;stroke-linejoin:round;stroke-dasharray:none;stroke-opacity:1;marker-end:url(#Diamond)"
         d="M 66.14584,96.572918 V 79.375002 h 6.614584"
         id="path22" /><path
         style="fill:none;fill-opacity:1;stroke:#b7bf1b;stroke-width:1;stroke-linejoin:round;stroke-dasharray:none;stroke-opacity:1"
         d="M 46.302088,96.572918 V 108.47917"
         id="path26" /><path
         style="fill:none;fill-opacity:1;stroke:#b7bf1b;stroke-width:1;stroke-linejoin:round;stroke-dasharray:none;stroke-opacity:1"
         d="M 66.14584,96.572918 V 108.47917"
         id="path28" /><path
         style="fill:none;fill-opacity:1;stroke:#b7bf1b;stroke-width:1;stroke-linejoin:round;stroke-dasharray:none;stroke-opacity:1"
         d="M 92.604176,96.572918 V 108.47917"
         id="path29" /><path
         style="fill:none;fill-opacity:1;stroke:none;stroke-width:4;stroke-linejoin:round"
         d="M 46.302088,96.572918 V 71.437502 h 14.552086 v -15.875"
         id="path8" /></g><g
       id="g39"
       inkscape:label="Wood"><path
         style="fill:#675c4c;fill-opacity:0.8;stroke:none;stroke-width:1;stroke-linejoin:round;stroke-opacity:1"
         d="m 33.072919,51.593752 c 0,0 5.291669,2.645833 18.520836,2.645833 13.229169,0 13.229169,-3.96875 25.135419,-2.645833 11.906252,1.322917 26.458336,2.645833 26.458336,2.645833 l 0,13.229167 c 0,0 -21.197315,-2.153571 -25.13542,-2.645834 C 67.468757,63.500002 63.01646,65.825053 51.593756,66.145836 42.1495,66.411058 33.689663,65.288521 33.07292,64.822919 Z"
         id="path1"
         sodipodi:nodetypes="cssccsscc" /><path
         id="path32"
         style="display:inline;fill:#4c4238;fill-opacity:1;stroke:none;stroke-width:1;stroke-linejoin:round;stroke-opacity:1"
         d="m 103.36755,67.438536 c -2.088,-0.25246 -4.117385,-1.36534 -6.151585,-2.11668 -1.550487,-0.572679 -3.026439,-1.354267 -4.611788,-1.821854 -2.156676,-0.636095 -4.389057,-1.002136 -6.614584,-1.322916 -2.190962,-0.315798 -4.404362,-0.46731 -6.614584,-0.589632 -2.642412,-0.14624 -5.293905,-0.295001 -7.937501,-0.172019 -2.217033,0.103137 -4.407824,0.524837 -6.614584,0.761651 -2.17514,0.23342 -4.345318,0.549376 -6.530642,0.649741 -3.822554,0.175558 -7.656435,0.08081 -11.479439,-0.08467 -2.380341,-0.103031 -4.765507,-0.236688 -7.125339,-0.565071 -2.227067,-0.309908 -6.614584,-1.322917 -6.614584,-1.322917 v 3.96875 c 0,0 1.507513,0.11306 2.811893,0.303192 8.764532,1.004864 17.650999,1.434402 26.424991,0.282602 5.965367,-0.742814 11.998707,-0.88389 17.976692,-0.185031 7.698561,0.683348 15.351526,1.888335 23.079874,2.215711 M 33.252958,64.792678 c 0,0 9.682396,1.223802 14.552086,1.322918 8.828635,0.179694 19.406575,-1.642792 26.458336,-1.322917"
         sodipodi:nodetypes="caaaaaaaaacccccccsc" /><path
         style="display:inline;fill:#33261b;fill-opacity:1;fill-rule:nonzero;stroke:none;stroke-width:1;stroke-linejoin:round;stroke-opacity:1"
         d="m 36.885028,51.973645 c -0.963326,-0.213661 -1.968876,-0.30641 -2.69653,-0.347271 l 0,0 c -0.331982,-0.01864 -0.612724,-0.02678 -0.80676,-0.03022 l 0,0 0,0 0,0 c -0.09466,-0.0017 -0.170674,-0.0023 -0.222767,-0.0024 0,0 0,0 0,0 -0.05515,-8e-6 -0.08554,1.72e-4 -0.08554,1.72e-4 0,0 0.02671,0.01456 0.07547,0.04043 0,0 0,0 0,0 0.04665,0.02457 0.113158,0.05905 0.198404,0.101771 l 0,0 0,0 1e-6,0 c 0.175652,0.08802 0.42538,0.208313 0.732788,0.343136 l 0,0 c 0.67681,0.296836 1.610475,0.653804 2.588403,0.870702 3.229915,0.716377 7.921921,1.654739 10.934219,1.789167 5.888751,0.262794 11.768669,-0.769299 17.548517,-1.613128 3.868343,-0.564758 7.722525,-1.049569 11.575692,-1.032213 4.368325,0.01967 8.740429,0.876316 13.181668,1.320441 l 7.9375,0.793749 c 2.645829,0.264583 5.341419,0.03165 5.341419,0.03165 0,0 -2.59608,-0.762102 -5.241915,-1.026685 l -7.9375,-0.79375 c -4.344002,-0.4344 -8.816767,-1.305306 -13.276668,-1.325393 -4.91522,-0.02214 -9.80237,0.755433 -14.631597,1.474772 -4.838678,0.720747 -9.647361,1.385991 -14.452534,1.171553 C 44.772932,53.61181 40.12036,52.691224 36.885028,51.973645 Z"
         id="path30"
         sodipodi:nodetypes="caaac"
         inkscape:original-d="m 33.072919,51.593752 c 0,0 9.626768,2.426034 14.552086,2.645833 9.73171,0.434291 19.362873,-2.689712 29.10417,-2.645833 4.431672,0.01996 8.819445,0.881944 13.229168,1.322917 4.409722,0.440972 13.229167,1.322916 13.229167,1.322916"
         inkscape:path-effect="#path-effect31" /><path
         style="display:inline;fill:#33261b;fill-opacity:1;fill-rule:nonzero;stroke:none;stroke-width:1;stroke-linejoin:round;stroke-opacity:1"
         d="m 38.456773,52.423593 c -1.987751,-0.251146 -4.038161,-0.0064 -4.038161,-0.0064 0,0 1.925092,0.747076 3.912843,0.998222 l 0.0037,5.87e-4 c 2.892874,0.343232 6.793132,0.755888 9.298532,0.823858 9.735906,0.264129 19.500225,-1.404476 29.11348,-1.322751 4.392533,0.03734 8.7904,0.412984 13.186792,0.824748 2.901791,0.271781 7.557552,0.871688 10.811712,1.307699 l -0.001,-1.86e-4 c 1.83403,0.250893 3.73565,0.02021 3.7878,0.0138 6.6e-4,-2.4e-4 5.7e-4,-2.06e-4 5.7e-4,-2.06e-4 0,0 8e-5,5.8e-5 -4.9e-4,-3.55e-4 -0.0485,-0.02018 -1.81661,-0.75288 -3.65234,-1.004005 l -0.001,-1.86e-4 c -3.246126,-0.434935 -7.923963,-1.038029 -10.85126,-1.312199 -4.397461,-0.411865 -8.832078,-0.791329 -13.271544,-0.82907 -9.771158,-0.08307 -19.453276,1.584653 -29.09486,1.323083 -2.443858,-0.0663 -6.30338,-0.472656 -9.207831,-0.817261 z"
         id="path30-2"
         sodipodi:nodetypes="caaac"
         inkscape:path-effect="#path-effect31-4"
         inkscape:original-d="m 34.418128,52.417165 c 0,0 8.799081,1.202732 13.229168,1.322917 9.707835,0.263367 19.393114,-1.405473 29.10417,-1.322917 4.418169,0.03756 8.830092,0.414893 13.229168,0.826909 4.86714,0.455855 14.552086,1.818924 14.552086,1.818924"
         transform="translate(-1.3452076,12.405754)" /><path
         style="fill:#4c4238;fill-opacity:1;stroke:none;stroke-width:1;stroke-linejoin:round;stroke-opacity:1"
         d="m 44.293242,63.189196 c 0.387305,-0.359815 0.83454,-0.656764 1.16475,-1.075276 0.188996,-0.212782 0.343317,-0.322989 0.372667,-0.393481 0.311055,-0.290437 0.38604,-0.726687 0.476499,-1.123196 0.09717,-0.425934 0.12638,-0.877045 0.06207,-1.309164 -0.102741,-0.690349 -0.305049,-1.399236 -0.703912,-1.971989 -0.244415,-0.350971 -0.624419,-0.591778 -0.983783,-0.823676 -0.318768,-0.205702 -0.664349,-0.377246 -1.025278,-0.494108 -0.519177,-0.168101 -1.065803,-0.286073 -1.61151,-0.288547 -0.438709,-0.002 -0.892031,0.0529 -1.297586,0.220214 -0.510671,0.210681 -1.02229,0.513797 -1.354129,0.955446 -0.203989,0.27149 -0.311409,0.624053 -0.332445,0.962986 -0.02199,0.354334 0.220395,1.041995 0.220395,1.041995 0,0 0.150986,-0.940939 0.406524,-1.326325 0.222738,-0.335918 0.548726,-0.637225 0.927003,-0.776362 0.420178,-0.154549 0.90891,-0.119699 1.343058,-0.01038 0.403573,0.10162 0.833529,0.275991 1.095027,0.599745 0.380249,0.470778 0.510528,1.135014 0.517613,1.740135 0.0066,0.566741 -0.178577,1.14121 -0.44649,1.640672 -0.323341,0.602795 -0.879741,1.049627 -1.351568,1.54417 -0.263728,0.153994 -0.248257,0.547049 -0.501426,0.545656 -0.06302,0.08156 -0.124402,0.260526 -0.260325,0.201159"
         id="path33"
         sodipodi:nodetypes="cccaaaaaaaaacaaaaaaccc" /><path
         style="fill:#4c4238;fill-opacity:1;stroke:none;stroke-width:1;stroke-linejoin:round;stroke-opacity:1"
         d="m 56.885421,63.169267 c 0.01124,-0.430809 0.31761,-1.014127 0.06126,-1.407661 -0.367103,-0.563556 -1.326675,-0.35113 -1.879297,-0.734495 -0.489185,-0.339358 -1.019666,-0.760512 -1.191606,-1.330514 -0.17695,-0.586611 0.325395,-1.20932 0.264585,-1.819014 -0.04082,-0.409272 -0.116375,-0.879396 -0.415286,-1.161924 -0.279366,-0.264054 -1.106082,-0.326367 -1.106082,-0.326367 0,0 1.051787,-0.22917 1.501952,-0.01005 0.521492,0.253838 0.851999,0.836797 1.064211,1.376569 0.03696,0.09402 -0.01649,0.210903 0.02756,0.301815 0.269751,0.556685 0.728099,1.309033 1.345904,1.277701 0.552835,-0.02804 0.642639,-0.923276 1.082513,-1.259316 0.428299,-0.327197 0.948777,-0.524319 1.460171,-0.694535 0.669919,-0.222981 1.417538,-0.164482 2.076507,-0.418002 0.603109,-0.232029 1.072837,-0.735437 1.666844,-0.989863 0.466418,-0.199776 0.976835,-0.274992 1.465638,-0.411109 0.677641,-0.188703 1.335718,-0.477241 2.033983,-0.562284 0.631939,-0.07696 1.272513,0.04907 1.909114,0.05217 0.989855,0.0048 2.969141,-0.05219 2.969141,-0.05219 0,0 -0.740591,0.572464 -1.174089,0.727601 -0.471219,0.168637 -0.993335,0.124216 -1.488286,0.19844 -0.596851,0.08951 -1.213078,0.107736 -1.785938,0.297665 -0.679158,0.225172 -1.240037,0.727481 -1.908774,0.981938 -0.864863,0.329084 -1.815088,0.386232 -2.688356,0.692317 -0.516237,0.180944 -1.018076,0.408105 -1.496984,0.672471 -0.645917,0.356559 -1.386271,0.646028 -1.843393,1.225151 -0.38277,0.484928 -0.613802,1.122349 -0.639336,1.739614 -0.01768,0.427394 0.23857,1.008342 0.341683,1.236953 0.211081,0.407683 0.212904,0.198345 -0.246769,0.05444"
         id="path34"
         sodipodi:nodetypes="caaaaacaaaaaaaaaaacaaaaaaaacc" /><path
         style="fill:#4c4238;fill-opacity:1;stroke:none;stroke-width:1;stroke-linejoin:round;stroke-opacity:1"
         d="m 76.726922,52.093746 c 0.209569,0.225447 -0.275912,0.512391 -0.422263,0.763823 -0.187129,0.321489 -0.552652,0.581037 -0.58258,0.951815 -0.03017,0.373736 0.234109,0.718892 0.425746,1.041171 0.884798,0.729964 0.420323,1.252951 0.04402,2.164713 -0.08837,0.296844 -0.267503,0.602148 -0.206776,0.905854 0.06806,0.340394 0.339352,0.623868 0.604342,0.848103 0.259447,0.219544 0.612158,0.29551 0.916823,0.446149 0.422125,0.208716 0.811943,0.496869 1.262404,0.634115 0.621902,0.189481 1.284894,0.256609 1.934919,0.245091 0.444809,-0.0079 0.885324,-0.108087 1.317284,-0.214519 0.357026,-0.08797 0.723195,-0.173674 1.046512,-0.348809 0.344359,-0.186534 0.734747,-0.385647 0.920079,-0.730654 0.182896,-0.340471 0.09988,-1.155147 0.09988,-1.155147 l -0.244375,-0.760032 c -0.216033,1.243201 -0.887045,1.502505 -1.650944,1.731335 -1.242738,0.372268 -3.077313,0.206549 -3.791992,-0.876139 -0.309807,-0.469335 0.273574,-1.098899 0.29681,-1.660785 0.0224,-0.54153 0.09339,-1.135981 -0.15292,-1.618771 -0.15681,-0.307359 -0.629517,-0.371862 -0.777235,-0.683693 -0.166761,-0.352032 -0.102123,-0.78309 -0.04142,-1.167864 0.02714,-0.172045 0.22351,-0.304043 0.178385,-0.491127"
         id="path35"
         sodipodi:nodetypes="caaaaaaaaaaaaccaaaaaac" /><path
         style="fill:#4c4238;fill-opacity:1;stroke:none;stroke-width:1;stroke-linejoin:round;stroke-opacity:1"
         d="m 92.604176,63.500002 c 0.381956,-0.295884 -0.342885,0.161426 0.260304,-0.05221 0.501338,-0.14034 1.034829,-0.04281 1.551886,-0.07151 0.644708,-0.0034 1.291983,0.0051 1.934294,0 0.502328,-0.281165 0.925397,-0.716727 1.318317,-1.139302 0.352283,-0.428814 0.594263,-0.938843 0.833203,-1.433167 0.08099,-0.774013 0.220422,-1.556906 0.140317,-2.33861 -0.139212,-0.550513 -0.451796,-1.043985 -0.664954,-1.515522 -0.460559,-0.461323 -0.849319,-1.082329 -1.512096,-1.304969 -0.474153,-0.07693 -0.924223,-0.224078 -1.4244,-0.266476 -0.636735,-0.172867 -1.303198,-0.0634 -1.956028,-0.09354 -1.163696,-0.04449 -2.342836,0.0093 -3.463659,0.351633 -0.739006,0.181593 -1.182922,0.801627 -1.558973,1.410896 -0.350961,0.561534 -0.286525,1.263857 -0.281057,1.910219 0.03646,0.827995 1.017407,1.263738 1.576899,1.706037 0.463917,0.414836 1.084507,0.288833 1.696766,0.399516 0.753144,0.131481 1.539232,0.13416 2.304048,0.09194 0.662727,-0.181404 1.177023,-0.622501 1.595383,-1.133096 -0.176641,0.212993 0.407263,-0.988908 -0.147241,-0.574436 -0.58105,0.318795 -1.32862,0.162769 -1.931233,0.478112 -0.970976,0.06009 -2.081021,-0.09977 -2.723979,-0.908687 -0.549022,-0.386148 -0.892445,-1.394888 0.0012,-1.596059 0.657963,-0.381357 1.403425,-0.641913 2.171986,-0.545872 0.544171,0.02474 1.113404,-0.0061 1.633583,0.119358 0.654923,0.18533 1.410028,0.263892 1.845627,0.831994 0.535198,0.378493 0.557166,1.028472 0.780127,1.574383 0.171738,0.61774 -0.200019,1.23801 -0.704582,1.491224 -0.386953,0.308604 -0.911262,0.551358 -1.338415,0.757957 -0.663545,0.237495 -1.381302,0.288359 -2.094641,0.425261 -0.640156,0.105754 -1.312963,0.136873 -1.989504,0.03834 -0.889939,-0.04881 -1.802895,0.02512 -2.666013,-0.233867 -0.603237,0.164448 -1.088651,-0.229167 -1.691983,-0.165046 -0.606163,0.07999 -1.198167,-0.07959 -1.803827,-0.02345 -0.652337,-0.06222 -1.234804,0.167613 -1.742669,0.562676 -0.21268,0.05698 -0.336758,0.28595 -0.532029,-0.07666"
         id="path37" /></g><g
       id="g40"
       inkscape:label="Blocks"
       style="display:inline"><rect
         style="fill:url(#linearGradient38);stroke:none;stroke-width:1;stroke-linejoin:round;stroke-opacity:1"
         id="rect37"
         width="3.9687505"
         height="17.197916"
         x="33.072922"
         y="51.593754" /><rect
         style="fill:#000000;fill-opacity:0.182199;stroke:none;stroke-width:1;stroke-linejoin:round;stroke-opacity:1"
         id="rect38"
         width="3.9687505"
         height="9.260417"
         x="33.072922"
         y="59.531254" /><rect
         style="fill:url(#linearGradient39);stroke:none;stroke-width:1;stroke-linejoin:round;stroke-opacity:1"
         id="rect37-2"
         width="3.9687505"
         height="17.197916"
         x="99.218758"
         y="51.593754" /><rect
         style="fill:#000000;fill-opacity:0.182199;stroke:none;stroke-width:1;stroke-linejoin:round;stroke-opacity:1"
         id="rect38-3"
         width="3.9687505"
         height="9.260417"
         x="99.218758"
         y="59.531254" /></g></g><metadata
     id="metadata9"><rdf:RDF><cc:Work
         rdf:about=""><dc:creator><cc:Agent><dc:title>Kieran David Evans</dc:title></cc:Agent></dc:creator><dc:rights><cc:Agent><dc:title>CC BY-SA - https://creativecommons.org/licenses/by-sa/4.0/</dc:title></cc:Agent></dc:rights><cc:license
           rdf:resource="http://creativecommons.org/licenses/by-sa/4.0/" /></cc:Work><cc:License
         rdf:about="http://creativecommons.org/licenses/by-sa/4.0/"><cc:permits
           rdf:resource="http://creativecommons.org/ns#Reproduction" /><cc:permits
           rdf:resource="http://creativecommons.org/ns#Distribution" /><cc:requires
           rdf:resource="http://creativecommons.org/ns#Notice" /><cc:requires
           rdf:resource="http://creativecommons.org/ns#Attribution" /><cc:permits
           rdf:resource="http://creativecommons.org/ns#DerivativeWorks" /><cc:requires
           rdf:resource="http://creativecommons.org/ns#ShareAlike" /></cc:License></rdf:RDF></metadata></svg>
