<?xml version="1.0" encoding="UTF-8" standalone="no"?>
<!-- Created with Inkscape (http://www.inkscape.org/) -->

<svg
   width="512"
   height="512"
   viewBox="0 0 135.46666 135.46667"
   version="1.1"
   id="svg1"
   inkscape:version="1.4 (86a8ad7, 2024-10-11)"
   sodipodi:docname="MSS_KidneyStones.svg"
   xmlns:inkscape="http://www.inkscape.org/namespaces/inkscape"
   xmlns:sodipodi="http://sodipodi.sourceforge.net/DTD/sodipodi-0.dtd"
   xmlns:xlink="http://www.w3.org/1999/xlink"
   xmlns="http://www.w3.org/2000/svg"
   xmlns:svg="http://www.w3.org/2000/svg"
   xmlns:rdf="http://www.w3.org/1999/02/22-rdf-syntax-ns#"
   xmlns:cc="http://creativecommons.org/ns#"
   xmlns:dc="http://purl.org/dc/elements/1.1/">
  <sodipodi:namedview
     id="namedview1"
     pagecolor="#ffffff"
     bordercolor="#000000"
     borderopacity="0.25"
     inkscape:showpageshadow="2"
     inkscape:pageopacity="0.0"
     inkscape:pagecheckerboard="0"
     inkscape:deskcolor="#d1d1d1"
     inkscape:document-units="mm"
     showguides="true"
     showgrid="true"
     inkscape:zoom="0.37008283"
     inkscape:cx="163.47692"
     inkscape:cy="-44.584614"
     inkscape:window-width="2560"
     inkscape:window-height="1377"
     inkscape:window-x="2552"
     inkscape:window-y="-8"
     inkscape:window-maximized="1"
     inkscape:current-layer="layer1" />
  <defs
     id="defs1">
    <linearGradient
       id="linearGradient1"
       inkscape:collect="always">
      <stop
         style="stop-color:#efb4b4;stop-opacity:1;"
         offset="0"
         id="stop1" />
      <stop
         style="stop-color:#dd3d3d;stop-opacity:1;"
         offset="1"
         id="stop2" />
    </linearGradient>
    <radialGradient
       inkscape:collect="always"
       xlink:href="#linearGradient1"
       id="radialGradient2"
       cx="61.995064"
       cy="69.708366"
       fx="61.995064"
       fy="69.708366"
       r="27.261572"
       gradientTransform="matrix(1,0,0,1.6486169,39.937019,-45.326151)"
       gradientUnits="userSpaceOnUse" />
    <radialGradient
       inkscape:collect="always"
       xlink:href="#linearGradient1"
       id="radialGradient2-4"
       cx="61.995064"
       cy="69.708366"
       fx="61.995064"
       fy="69.708366"
       r="27.261572"
       gradientTransform="matrix(-1,0,0,1.6486169,97.607651,-45.326141)"
       gradientUnits="userSpaceOnUse" />
  </defs>
  <g
     inkscape:label="Layer 1"
     inkscape:groupmode="layer"
     id="layer1">
    <path
       id="path1-2"
       style="fill:none;stroke:#000000;stroke-width:5;stroke-linecap:square;stroke-linejoin:round;stroke-dasharray:none"
       d="m 43.861754,26.226752 c -4.961194,-0.0644 -9.870622,1.26852 -13.249837,4.192 -10.335261,8.941414 -15.14249,27.272191 -14.65647,40.929799 0.43597,12.250888 7.094641,27.854294 16.622241,35.567869 7.918208,6.4106 23.338524,7.36114 30.563509,0.17828 5.196832,-5.16652 3.531391,-15.562673 0,-21.983682 C 62.807728,84.504682 62.358551,83.946503 61.8312,83.421199 L 82.61391,71.246232 67.404503,67.662988 77.607498,56.177384 c 4.527055,1.832285 10.710235,2.659258 12.760978,6.055444 2.648647,4.386361 1.958928,6.427337 -0.536401,10.902694 -2.817149,5.05254 -13.298112,6.906663 -16.08584,11.975496 -3.53139,6.421009 -5.196831,16.817152 0,21.983682 7.224985,7.18286 22.644781,6.23231 30.562995,-0.17829 9.5276,-7.713572 16.18627,-23.316971 16.62224,-35.567859 0.48602,-13.657608 -4.32069,-31.988385 -14.65595,-40.929799 -6.758434,-5.84697 -19.637958,-5.33187 -26.809738,0 -5.030621,3.740021 -8.264423,11.378654 -7.622274,17.889345 l -8.629447,5.380033 c 0.33892,-0.388398 0.619141,-0.812537 0.820622,-1.285193 3.000756,-7.039515 -0.47186,-17.418522 -6.613033,-21.984185 -3.58589,-2.66594 -8.598703,-4.12761 -13.559896,-4.192 z m 15.262634,30.010577 -12.27677,7.653796 13.390914,2.554883 -8.608777,10.77557 c -1.97457,-1.17436 -3.671026,-2.464937 -4.574914,-4.086056 -2.495329,-4.475357 -3.184532,-6.516333 -0.535885,-10.902694 2.02767,-3.357976 8.093037,-4.205832 12.605432,-5.995499 z" />
    <path
       style="fill:url(#radialGradient2);stroke:none;stroke-width:4;stroke-linecap:square;stroke-linejoin:round"
       d="m 79.794368,30.489227 c 7.17178,-5.331871 20.051453,-5.846964 26.809882,0 10.33526,8.941416 15.14209,27.272136 14.65607,40.929744 -0.43597,12.250888 -7.09453,27.854201 -16.62213,35.567769 -7.918211,6.4106 -23.338277,7.36159 -30.563262,0.17873 -5.196831,-5.16653 -3.53139,-15.563087 0,-21.984096 2.787728,-5.068833 13.268778,-6.922538 16.085927,-11.975078 2.495329,-4.475357 3.184844,-6.516321 0.536197,-10.902682 -3.043836,-5.040825 -15.206701,-4.413371 -17.515786,-9.830288 -3.000755,-7.039515 0.471929,-17.418434 6.613102,-21.984099 z"
       id="path1"
       sodipodi:nodetypes="ssssssssss" />
    <path
       style="fill:url(#radialGradient2-4);stroke:none;stroke-width:4;stroke-linecap:square;stroke-linejoin:round"
       d="m 57.750302,30.489237 c -7.17178,-5.331871 -20.051449,-5.846964 -26.809879,0 -10.33526,8.941416 -15.14209,27.272136 -14.65607,40.929744 0.43597,12.250888 7.09453,27.854198 16.62213,35.567759 7.918208,6.4106 23.338274,7.36159 30.563259,0.17873 5.196832,-5.16652 3.531391,-15.563077 0,-21.984086 C 60.682014,80.112551 50.200964,78.258846 47.383815,73.206306 44.888486,68.730949 44.198971,66.689985 46.847618,62.303624 49.891454,57.262799 62.054319,57.890253 64.363404,52.473336 67.36416,45.433821 63.891475,35.054902 57.750302,30.489237 Z"
       id="path1-4"
       sodipodi:nodetypes="ssssssssss" />
    <path
       style="fill:#ffeb00;fill-opacity:1;stroke:none;stroke-width:3.00528;stroke-linecap:square;stroke-linejoin:round"
       d="M 33.674898,100.17899 82.942483,71.316909 67.733333,67.733333 100.75789,30.557627 47.176268,63.961496 l 13.39082,2.55521 z"
       id="path2"
       sodipodi:nodetypes="ccccccc" />
  </g>
  <metadata
     id="metadata9">
    <rdf:RDF>
      <cc:Work
         rdf:about="">
        <dc:creator>
          <cc:Agent>
            <dc:title>Kieran David Evans</dc:title>
          </cc:Agent>
        </dc:creator>
        <dc:rights>
          <cc:Agent>
            <dc:title>CC BY-SA - https://creativecommons.org/licenses/by-sa/4.0/</dc:title>
          </cc:Agent>
        </dc:rights>
        <cc:license
           rdf:resource="http://creativecommons.org/licenses/by-sa/4.0/" />
      </cc:Work>
      <cc:License
         rdf:about="http://creativecommons.org/licenses/by-sa/4.0/">
        <cc:permits
           rdf:resource="http://creativecommons.org/ns#Reproduction" />
        <cc:permits
           rdf:resource="http://creativecommons.org/ns#Distribution" />
        <cc:requires
           rdf:resource="http://creativecommons.org/ns#Notice" />
        <cc:requires
           rdf:resource="http://creativecommons.org/ns#Attribution" />
        <cc:permits
           rdf:resource="http://creativecommons.org/ns#DerivativeWorks" />
        <cc:requires
           rdf:resource="http://creativecommons.org/ns#ShareAlike" />
      </cc:License>
    </rdf:RDF>
  </metadata>
</svg>
