<?xml version="1.0" encoding="UTF-8" standalone="no"?>
<!-- Created with Inkscape (http://www.inkscape.org/) -->

<svg
   width="512"
   height="512"
   viewBox="0 0 135.46666 135.46667"
   version="1.1"
   id="svg1"
   inkscape:version="1.4 (86a8ad7, 2024-10-11)"
   sodipodi:docname="MSS_RandomiseGenome.svg"
   inkscape:export-filename="MSS_RandomiseGenome.png"
   inkscape:export-xdpi="96"
   inkscape:export-ydpi="96"
   xmlns:inkscape="http://www.inkscape.org/namespaces/inkscape"
   xmlns:sodipodi="http://sodipodi.sourceforge.net/DTD/sodipodi-0.dtd"
   xmlns="http://www.w3.org/2000/svg"
   xmlns:svg="http://www.w3.org/2000/svg"
   xmlns:rdf="http://www.w3.org/1999/02/22-rdf-syntax-ns#"
   xmlns:cc="http://creativecommons.org/ns#"
   xmlns:dc="http://purl.org/dc/elements/1.1/">
  <sodipodi:namedview
     id="namedview1"
     pagecolor="#ffffff"
     bordercolor="#000000"
     borderopacity="0.25"
     inkscape:showpageshadow="2"
     inkscape:pageopacity="0.0"
     inkscape:pagecheckerboard="0"
     inkscape:deskcolor="#d1d1d1"
     inkscape:document-units="mm"
     showguides="true"
     showgrid="true"
     inkscape:zoom="1.4803313"
     inkscape:cx="288.78671"
     inkscape:cy="188.80909"
     inkscape:window-width="2560"
     inkscape:window-height="1377"
     inkscape:window-x="-8"
     inkscape:window-y="-8"
     inkscape:window-maximized="1"
     inkscape:current-layer="layer1" />
  <defs
     id="defs1" />
  <g
     inkscape:label="Layer 1"
     inkscape:groupmode="layer"
     id="layer1">
    <path
       style="fill:#0004ff;fill-opacity:1;stroke:#0400ff;stroke-width:3.88541;stroke-linecap:round;stroke-linejoin:round;stroke-dasharray:none;stroke-opacity:1"
       d="m 51.326586,25.976975 16.949376,-0.05927"
       id="path12" />
    <path
       id="path22"
       style="fill:none;fill-opacity:1;stroke:#0400ff;stroke-width:3.90001;stroke-linecap:butt;stroke-linejoin:round;stroke-dasharray:none;stroke-opacity:1"
       d="M 67.280844 33.914496 L 85.255408 33.914495 " />
    <path
       id="path31"
       style="fill:none;fill-opacity:1;stroke:#08ff00;stroke-width:3.90001;stroke-linecap:round;stroke-linejoin:round;stroke-dasharray:none;stroke-opacity:1"
       d="M 51.028131 33.914495 L 67.280844 33.914496 " />
    <path
       id="path23"
       style="fill:none;fill-opacity:1;stroke:#fffe00;stroke-width:3.90001;stroke-linecap:round;stroke-linejoin:round;stroke-dasharray:none;stroke-opacity:1"
       d="M 67.437672 41.957458 L 54.870881 41.957458 " />
    <path
       id="path32"
       style="fill:none;fill-opacity:1;stroke:#ff0d00;stroke-width:3.90001;stroke-linecap:round;stroke-linejoin:round;stroke-dasharray:none;stroke-opacity:1"
       d="M 81.412658 41.957458 L 67.437672 41.957458 " />
    <path
       id="path24"
       style="fill:none;fill-opacity:1;stroke:#37ff00;stroke-width:3.90001;stroke-linecap:butt;stroke-linejoin:round;stroke-dasharray:none;stroke-opacity:1"
       d="M 67.532984 50.268518 L 75.291071 50.268518 " />
    <path
       id="path33"
       style="fill:none;fill-opacity:1;stroke:#0400ff;stroke-width:3.90001;stroke-linecap:round;stroke-linejoin:round;stroke-dasharray:none;stroke-opacity:1"
       d="M 59.830707 50.268518 L 67.532984 50.268518 " />
    <path
       id="path25"
       style="fill:none;fill-opacity:1;stroke:#0400ff;stroke-width:3.90001;stroke-linecap:butt;stroke-linejoin:round;stroke-dasharray:none;stroke-opacity:1"
       d="M 67.936888 85.478823 L 76.14005 85.478823 " />
    <path
       id="path34"
       style="fill:none;fill-opacity:1;stroke:#00ff25;stroke-width:3.90001;stroke-linecap:round;stroke-linejoin:round;stroke-dasharray:none;stroke-opacity:1"
       d="M 59.383876 85.478823 L 67.936888 85.478823 " />
    <path
       id="path35"
       style="fill:none;fill-opacity:1;stroke:#fcff00;stroke-width:3.90001;stroke-linecap:butt;stroke-linejoin:round;stroke-dasharray:none;stroke-opacity:1"
       d="M 81.055193 93.655837 L 68.031148 93.655837 " />
    <path
       id="path26"
       style="fill:none;fill-opacity:1;stroke:#ff1e00;stroke-width:3.90001;stroke-linecap:round;stroke-linejoin:round;stroke-dasharray:none;stroke-opacity:1"
       d="M 68.031148 93.655837 L 55.407078 93.655837 " />
    <path
       id="path36"
       style="fill:none;fill-opacity:1;stroke:#fff200;stroke-width:3.90001;stroke-linecap:butt;stroke-linejoin:round;stroke-dasharray:none;stroke-opacity:1"
       d="M 51.162182 102.22797 L 68.129232 102.22797 " />
    <path
       id="path27"
       style="fill:none;fill-opacity:1;stroke:#ff2500;stroke-width:3.90001;stroke-linecap:round;stroke-linejoin:round;stroke-dasharray:none;stroke-opacity:1"
       d="M 68.129232 102.22797 L 84.495795 102.22797 " />
    <path
       id="path37"
       style="fill:none;fill-opacity:1;stroke:#0400ff;stroke-width:3.90001;stroke-linecap:butt;stroke-linejoin:round;stroke-dasharray:none;stroke-opacity:1"
       d="M 86.372487 109.95815 L 68.218045 109.95815 " />
    <path
       id="path28"
       style="fill:none;fill-opacity:1;stroke:#00ff00;stroke-width:3.90001;stroke-linecap:round;stroke-linejoin:round;stroke-dasharray:none;stroke-opacity:1"
       d="M 68.218045 109.95815 L 49.642955 109.95815 " />
    <path
       style="display:inline;fill:#ffffff;fill-opacity:1;stroke:#000000;stroke-width:3.9;stroke-linecap:round;stroke-linejoin:round;stroke-dasharray:none;stroke-opacity:1"
       d="m 48.783827,23.759998 c -1.38306,-5.422278 -9.78666,-4.327661 -9.099574,1.074256 2.628558,20.665893 16.154377,31.824059 24.771061,46.382551 13.252055,14.439855 16.607879,27.742874 22.622552,41.200845 2.360439,5.28154 9.755277,1.42709 8.720426,-2.71723 C 92.929889,98.213182 87.524728,84.343314 71.406379,64.26574 61.870396,51.847109 52.934263,40.031751 48.783827,23.759998 Z"
       id="path29"
       sodipodi:nodetypes="sscsscs" />
    <path
       style="display:inline;fill:#ffffff;fill-opacity:1;stroke:#000000;stroke-width:3.90001;stroke-linecap:round;stroke-linejoin:round;stroke-dasharray:none;stroke-opacity:1"
       d="m 86.509145,24.960637 c 1.311957,-5.007373 10.00581,-5.608396 9.478721,-0.126383 -1.720831,17.897591 -13.406324,32.46565 -25.52936,46.635315 -10.61972,12.412556 -18.354631,26.567928 -21.927446,40.000211 -1.180661,4.43879 -9.013772,5.06785 -8.783617,-0.63192 C 40.325951,96.511198 51.43166,78.808751 64.960846,62.875527 76.584208,49.186778 83.283255,37.272952 86.509145,24.960637 Z"
       id="path30"
       sodipodi:nodetypes="sssssss" />
    <path
       d="m 91.684341,55.672376 c -1.396135,1.396083 -1.396135,3.659444 0,5.055574 1.396125,1.396131 3.659294,1.396131 5.055424,0 z M 106.27294,51.19494 c 1.39612,-1.396083 1.39612,-3.659635 0,-5.055718 -1.39614,-1.396082 -3.65931,-1.396082 -5.05545,0 z m -5.05545,0 c 1.39614,1.396083 3.65931,1.396083 5.05545,0 1.39612,-1.396083 1.39612,-3.659635 0,-5.055718 z M 96.739765,36.60607 c -1.39613,-1.396083 -3.659299,-1.396083 -5.055424,0 -1.396135,1.396083 -1.396135,3.659634 0,5.055716 z m 7.005455,15.635944 c 1.97432,0 3.57494,-1.600569 3.57494,-3.574933 0,-1.974363 -1.60062,-3.574932 -3.57494,-3.574932 z m -10.963145,-3.574933 -0.0034,3.574933 h 0.0034 z m -19.933824,10.734331 2.986738,1.964783 v 0 z m -8.468298,6.367193 c -1.084869,1.649237 -0.627761,3.866171 1.021958,4.95152 1.649226,1.084873 3.866168,0.627758 4.951519,-1.021953 z m 5.973477,3.929567 c 1.084869,-1.649236 0.62775,-3.866171 -1.021958,-4.951521 -1.649237,-1.084873 -3.866168,-0.627758 -4.951519,1.021954 z m -8.468298,6.367193 -2.986554,-1.964783 h -4.6e-5 z m -19.909998,10.73433 v 3.574934 h 9.1e-5 z m -4.96201,-3.574932 c -1.974366,0 -3.574932,1.600617 -3.574932,3.574932 0,1.974318 1.600566,3.574934 3.574932,3.574934 z M 70.35343,65.768605 c -1.085351,-1.649712 -3.302293,-2.106827 -4.951519,-1.021954 -1.649719,1.08535 -2.106827,3.302285 -1.021958,4.951521 z m 2.494821,10.29676 2.986738,-1.964783 v 0 z m 19.933824,10.73433 v -3.574932 h -0.0034 z m 10.963145,3.574934 c 1.97432,0 3.57494,-1.600616 3.57494,-3.574934 0,-1.974315 -1.60062,-3.574932 -3.57494,-3.574932 z M 64.379953,69.698172 c 1.085351,1.649711 3.302282,2.106826 4.951519,1.021953 1.649708,-1.085349 2.106827,-3.302283 1.021958,-4.95152 z m -2.494821,-10.29676 -2.9866,1.964783 h 4.6e-5 z m -19.909998,-10.734331 9.1e-5,-3.574932 h -9.1e-5 z m -4.96201,-3.574932 c -1.974366,0 -3.574932,1.600569 -3.574932,3.574932 0,1.974364 1.600566,3.574933 3.574932,3.574933 z m 59.726641,29.646677 c -1.39613,-1.39613 -3.659299,-1.39613 -5.055424,0 -1.396135,1.39613 -1.396135,3.659301 0,5.055431 z m 4.477725,14.588582 c 1.39614,1.396134 3.65931,1.396134 5.05545,0 1.39612,-1.396127 1.39612,-3.659298 0,-5.055428 z m 5.05545,0 c 1.39612,-1.396127 1.39612,-3.659298 0,-5.055428 -1.39614,-1.39613 -3.65931,-1.39613 -5.05545,0 z m -14.588599,4.477725 c -1.396135,1.396133 -1.396135,3.659303 0,5.055429 1.396125,1.396128 3.659294,1.396128 5.055424,0 z m 5.055424,-33.077183 9.533175,-9.53301 -5.05545,-5.055718 -9.533149,9.533154 z m 9.533175,-14.588728 -9.533175,-9.533152 -5.055424,5.055716 9.533149,9.533154 z m -2.52772,-1.047073 H 92.782075 v 7.149865 h 10.963145 z m -10.959809,0 c -9.232372,-0.0089 -17.8494,4.631158 -22.923899,12.344481 l 5.973477,3.929565 c 3.750343,-5.70116 10.119438,-9.130807 16.943749,-9.124181 z m -22.923899,12.344433 -5.481559,8.332023 5.973477,3.929567 5.481559,-8.331977 z m -5.481559,8.332023 -5.481375,8.331977 5.973281,3.929566 5.481571,-8.331976 z m -5.481421,8.331977 c -3.746617,5.695106 -10.106471,9.124181 -16.92349,9.124181 l 1.83e-4,7.149866 c 9.223051,-4.8e-4 17.827525,-4.639311 22.896634,-12.344481 z m -16.923398,9.124181 h -4.96201 v 7.149866 h 4.96201 z m 22.404819,-13.526591 5.481559,8.331976 5.973477,-3.929566 -5.481559,-8.331977 z m 5.481559,8.331976 c 5.074499,7.713274 13.691527,12.353535 22.923899,12.344481 l -0.0069,-7.149866 c -6.82429,0.0066 -13.193397,-3.422879 -16.94374,-9.124181 z M 92.782075,90.374629 H 103.74522 V 83.224763 H 92.782075 Z M 70.35343,65.768605 l -5.481571,-8.332023 -5.973281,3.929613 5.481375,8.331977 z M 64.871859,57.43663 C 59.80275,49.731458 51.198276,45.092388 41.975225,45.092149 l -1.83e-4,7.149865 c 6.817019,1.9e-4 13.176873,3.429028 16.92349,9.124181 z M 41.975134,45.092149 h -4.96201 v 7.149865 h 4.96201 z m 49.709207,34.702108 9.533149,9.533151 5.05545,-5.055428 -9.533175,-9.533154 z m 9.533149,4.477723 -9.533149,9.533153 5.055424,5.055429 9.533175,-9.533154 z"
       fill="#000000"
       id="path1-4"
       style="display:inline;fill:#c50000;fill-opacity:1;stroke-width:4.76658"
       inkscape:label="Randomise" />
  </g>
  <metadata
     id="metadata9">
    <rdf:RDF>
      <cc:Work
         rdf:about="">
        <dc:creator>
          <cc:Agent>
            <dc:title>Kieran David Evans</dc:title>
          </cc:Agent>
        </dc:creator>
        <dc:rights>
          <cc:Agent>
            <dc:title>CC BY-SA - https://creativecommons.org/licenses/by-sa/4.0/</dc:title>
          </cc:Agent>
        </dc:rights>
        <cc:license
           rdf:resource="http://creativecommons.org/licenses/by-sa/4.0/" />
      </cc:Work>
      <cc:License
         rdf:about="http://creativecommons.org/licenses/by-sa/4.0/">
        <cc:permits
           rdf:resource="http://creativecommons.org/ns#Reproduction" />
        <cc:permits
           rdf:resource="http://creativecommons.org/ns#Distribution" />
        <cc:requires
           rdf:resource="http://creativecommons.org/ns#Notice" />
        <cc:requires
           rdf:resource="http://creativecommons.org/ns#Attribution" />
        <cc:permits
           rdf:resource="http://creativecommons.org/ns#DerivativeWorks" />
        <cc:requires
           rdf:resource="http://creativecommons.org/ns#ShareAlike" />
      </cc:License>
    </rdf:RDF>
  </metadata>
</svg>
