<?xml version="1.0" encoding="UTF-8" standalone="no"?>
<!-- Created with Inkscape (http://www.inkscape.org/) -->

<svg
   width="512"
   height="512"
   viewBox="0 0 135.46666 135.46667"
   version="1.1"
   id="svg1"
   inkscape:version="1.4 (86a8ad7, 2024-10-11)"
   xml:space="preserve"
   sodipodi:docname="MSSFP_FroggeAffinity.svg"
   inkscape:export-filename="MSSFP_FroggeAffinity.png"
   inkscape:export-xdpi="96"
   inkscape:export-ydpi="96"
   xmlns:inkscape="http://www.inkscape.org/namespaces/inkscape"
   xmlns:sodipodi="http://sodipodi.sourceforge.net/DTD/sodipodi-0.dtd"
   xmlns="http://www.w3.org/2000/svg"
   xmlns:svg="http://www.w3.org/2000/svg"
   xmlns:rdf="http://www.w3.org/1999/02/22-rdf-syntax-ns#"
   xmlns:cc="http://creativecommons.org/ns#"
   xmlns:dc="http://purl.org/dc/elements/1.1/"><sodipodi:namedview
     id="namedview1"
     pagecolor="#ffffff"
     bordercolor="#000000"
     borderopacity="0.25"
     inkscape:showpageshadow="2"
     inkscape:pageopacity="0.0"
     inkscape:pagecheckerboard="0"
     inkscape:deskcolor="#d1d1d1"
     inkscape:document-units="mm"
     showguides="true"
     showgrid="true"
     inkscape:zoom="1.0467523"
     inkscape:cx="413.66043"
     inkscape:cy="291.85511"
     inkscape:window-width="2560"
     inkscape:window-height="1377"
     inkscape:window-x="2552"
     inkscape:window-y="-8"
     inkscape:window-maximized="1"
     inkscape:current-layer="layer1" /><defs
     id="defs1" /><g
     inkscape:label="Layer 1"
     inkscape:groupmode="layer"
     id="layer1"><path
       style="fill:#6b0808;fill-opacity:1;stroke:#000000;stroke-width:3.6;stroke-linejoin:round;stroke-dasharray:none;stroke-opacity:1"
       d="M 62.054041,130.68 C 40.031138,130.49546 17.053259,131.86276 8.0885103,110.45872 v -29.7 c 3.0178747,-5.691083 4.9011047,-2.305011 6.9510637,-0.252765 v 11.627234 c 4.202973,4.676846 6.80405,0.276283 10.110638,-0.126384 l 0.505532,-7.709363 c 2.148511,-6.057178 4.297021,-3.161918 6.445532,0.379151 l 0.379148,3.159575 c 23.67586,-8.047893 46.450783,-4.383617 69.131486,0.505531 v -5.05532 c 2.78462,-7.762826 6.70003,-1.7534 6.82468,0 l 0.37915,7.835744 c 3.20339,4.096368 6.70144,2.594417 10.23702,0.379151 l 1.5166,-10.742554 c 1.95588,-0.551147 2.50565,-4.56821 6.57191,0 l 0.50553,29.7 c -15.14887,22.4167 -34.964502,19.55509 -53.965526,21.10595 l -0.126383,-6.06638 9.225957,-0.50553 5.813615,-7.4566 0.379151,-8.72042 c 2.719387,-4.32686 4.599731,-2.50073 6.319149,0.50553 l 1.516595,10.99532 c 5.086872,0.20077 10.249972,-0.74185 15.671492,-5.56085 5.21818,-7.9754 2.26449,-9.49934 1.51659,-12.76468 -30.777896,-11.695291 -61.651437,-17.412249 -92.7651,0.63192 -1.930839,3.24383 -1.155698,6.48765 0.252765,9.73148 4.346883,4.48637 8.806882,8.85092 17.44085,8.72043 l 1.011065,-11.62724 c 2.106383,-3.48507 4.212767,-1.50216 6.31915,0.25277 -0.693641,11.25688 5.253228,16.07447 15.671487,16.55617 z"
       id="path9"
       sodipodi:nodetypes="ccccccccccccccccccccccccccccccccc" /><path
       style="fill:#afafaf;fill-opacity:1;stroke:#000000;stroke-width:3.91405;stroke-linejoin:round;stroke-dasharray:none"
       d="M 36.986637,62.689794 32.699503,61.535565 C 25.999801,59.067984 21.42688,54.878725 19.343439,48.674171 19.188682,41.37882 22.028321,36.279358 25.114579,31.360751 l -2.143565,-4.946688 9.89338,-2.143567 c 3.07077,-4.090745 6.727711,-7.488741 12.201838,-8.739155 l -0.989339,-3.957352 c 0.551058,-1.8441973 1.987512,-2.0946847 3.627575,-1.9786749 l 5.936027,2.9680149 C 69.412388,9.751571 84.664589,4.7363152 105.74564,24.435385 l 5.93602,1.484008 c 1.96521,0.482813 1.73504,1.592877 2.30846,2.473344 l -2.30846,2.968014 c 3.82674,3.946178 5.65603,9.708229 7.09026,15.82941 -0.40055,2.886019 -2.42971,6.667775 -11.54227,14.345404 h -6.76048 c 1.05836,6.227204 0.80639,12.978547 0.82445,19.621875 7.31419,19.22991 6.85548,32.11712 -13.191179,29.02058 -13.047515,-5.28258 -25.810589,-4.59187 -38.419299,-0.65956 -25.085403,3.3272 -17.037088,-13.90302 -13.191173,-28.525911 -0.820084,-6.025151 -1.48884,-12.061943 0.494668,-18.302755 z"
       id="path1"
       sodipodi:nodetypes="cccccccccccccccccccccc" /></g><metadata
     id="metadata9"><rdf:RDF><cc:Work
         rdf:about=""><dc:creator><cc:Agent><dc:title>Kieran David Evans</dc:title></cc:Agent></dc:creator><dc:rights><cc:Agent><dc:title>CC BY-SA - https://creativecommons.org/licenses/by-sa/4.0/</dc:title></cc:Agent></dc:rights><cc:license
           rdf:resource="http://creativecommons.org/licenses/by-sa/4.0/" /></cc:Work><cc:License
         rdf:about="http://creativecommons.org/licenses/by-sa/4.0/"><cc:permits
           rdf:resource="http://creativecommons.org/ns#Reproduction" /><cc:permits
           rdf:resource="http://creativecommons.org/ns#Distribution" /><cc:requires
           rdf:resource="http://creativecommons.org/ns#Notice" /><cc:requires
           rdf:resource="http://creativecommons.org/ns#Attribution" /><cc:permits
           rdf:resource="http://creativecommons.org/ns#DerivativeWorks" /><cc:requires
           rdf:resource="http://creativecommons.org/ns#ShareAlike" /></cc:License></rdf:RDF></metadata></svg>
