<?xml version="1.0" encoding="UTF-8" standalone="no"?>
<!-- Created with Inkscape (http://www.inkscape.org/) -->

<svg
   width="512"
   height="512"
   viewBox="0 0 135.46666 135.46667"
   version="1.1"
   id="svg1"
   inkscape:version="1.4 (86a8ad7, 2024-10-11)"
   xml:space="preserve"
   sodipodi:docname="MSSFP_JroggeAffinity.svg"
   inkscape:export-filename="MSSFP_JroggeAffinity.png"
   inkscape:export-xdpi="96"
   inkscape:export-ydpi="96"
   xmlns:inkscape="http://www.inkscape.org/namespaces/inkscape"
   xmlns:sodipodi="http://sodipodi.sourceforge.net/DTD/sodipodi-0.dtd"
   xmlns="http://www.w3.org/2000/svg"
   xmlns:svg="http://www.w3.org/2000/svg"
   xmlns:rdf="http://www.w3.org/1999/02/22-rdf-syntax-ns#"
   xmlns:cc="http://creativecommons.org/ns#"
   xmlns:dc="http://purl.org/dc/elements/1.1/"><sodipodi:namedview
     id="namedview1"
     pagecolor="#ffffff"
     bordercolor="#000000"
     borderopacity="0.25"
     inkscape:showpageshadow="2"
     inkscape:pageopacity="0.0"
     inkscape:pagecheckerboard="0"
     inkscape:deskcolor="#d1d1d1"
     inkscape:document-units="mm"
     showguides="true"
     showgrid="true"
     inkscape:zoom="1.0467523"
     inkscape:cx="413.66043"
     inkscape:cy="291.85511"
     inkscape:window-width="2560"
     inkscape:window-height="1377"
     inkscape:window-x="2552"
     inkscape:window-y="-8"
     inkscape:window-maximized="1"
     inkscape:current-layer="layer1" /><defs
     id="defs1" /><g
     inkscape:label="Layer 1"
     inkscape:groupmode="layer"
     id="layer1"><path
       style="fill:#6b0808;fill-opacity:1;stroke:#000000;stroke-width:3.6;stroke-linejoin:round;stroke-dasharray:none;stroke-opacity:1"
       d="M 62.054041,122.21328 C 40.031138,122.02874 17.053259,123.39604 8.0885103,101.992 V 72.292048 c 3.0178747,-5.691083 4.9011047,-2.305011 6.9510637,-0.252765 v 11.627234 c 4.202973,4.676846 6.80405,0.276283 10.110638,-0.126384 l 0.505532,-7.709363 c 2.148511,-6.057178 4.297021,-3.161918 6.445532,0.379151 l 0.379148,3.159575 c 23.67586,-8.047893 46.450783,-4.383617 69.131486,0.505531 v -5.05532 c 2.78462,-7.762826 6.70003,-1.7534 6.82468,0 l 0.37915,7.835744 c 3.20339,4.096368 6.70144,2.594417 10.23702,0.379151 l 1.5166,-10.742554 c 1.95588,-0.551147 2.50565,-4.56821 6.57191,0 L 127.6468,101.992 c -15.14887,22.4167 -34.964502,19.55509 -53.965526,21.10595 l -0.126383,-6.06638 9.225957,-0.50553 5.813615,-7.4566 0.379151,-8.72042 c 2.719387,-4.326836 4.599731,-2.500715 6.319149,0.50553 l 1.516595,10.99532 c 5.086872,0.20077 10.249972,-0.74185 15.671492,-5.56085 5.21818,-7.975388 2.26449,-9.499319 1.51659,-12.764641 -30.777896,-11.695282 -61.651437,-17.41224 -92.7651,0.631917 -1.930839,3.243809 -1.155698,6.487614 0.252765,9.731444 4.346883,4.48637 8.806882,8.85092 17.44085,8.72043 l 1.011065,-11.62724 c 2.106383,-3.485055 4.212767,-1.502157 6.31915,0.25277 -0.693641,11.25688 5.253228,16.07447 15.671487,16.55617 z"
       id="path9"
       sodipodi:nodetypes="ccccccccccccccccccccccccccccccccc" /><path
       style="fill:#afafaf;fill-opacity:1;stroke:#000000;stroke-width:4;stroke-linejoin:round;stroke-dasharray:none"
       d="M 25.809139,41.975104 C 8.7642059,61.175628 8.0033089,87.842618 32.778681,95.292077 56.400599,85.661059 80.946572,87.42672 105.95887,94.9436 144.22514,67.442532 110.11053,46.159841 111.18603,42.323579 110.2885,14.629905 90.877382,6.8446188 74.595932,29.95264 L 63.793138,29.778401 C 52.175063,11.478163 27.728013,9.3780196 25.809139,41.975104 Z"
       id="path1"
       sodipodi:nodetypes="ccccccc" /></g><metadata
     id="metadata9"><rdf:RDF><cc:Work
         rdf:about=""><dc:creator><cc:Agent><dc:title>Kieran David Evans</dc:title></cc:Agent></dc:creator><dc:rights><cc:Agent><dc:title>CC BY-SA - https://creativecommons.org/licenses/by-sa/4.0/</dc:title></cc:Agent></dc:rights><cc:license
           rdf:resource="http://creativecommons.org/licenses/by-sa/4.0/" /></cc:Work><cc:License
         rdf:about="http://creativecommons.org/licenses/by-sa/4.0/"><cc:permits
           rdf:resource="http://creativecommons.org/ns#Reproduction" /><cc:permits
           rdf:resource="http://creativecommons.org/ns#Distribution" /><cc:requires
           rdf:resource="http://creativecommons.org/ns#Notice" /><cc:requires
           rdf:resource="http://creativecommons.org/ns#Attribution" /><cc:permits
           rdf:resource="http://creativecommons.org/ns#DerivativeWorks" /><cc:requires
           rdf:resource="http://creativecommons.org/ns#ShareAlike" /></cc:License></rdf:RDF></metadata></svg>
