<?xml version="1.0" encoding="UTF-8" standalone="no"?>
<!-- Created with Inkscape (http://www.inkscape.org/) -->

<svg
   width="512"
   height="512"
   viewBox="0 0 135.46666 135.46667"
   version="1.1"
   id="svg1"
   inkscape:version="1.4 (86a8ad7, 2024-10-11)"
   xml:space="preserve"
   sodipodi:docname="MSSFP_GeneticDRM.svg"
   inkscape:export-filename="MSSFP_GeneticDRM.png"
   inkscape:export-xdpi="96"
   inkscape:export-ydpi="96"
   xmlns:inkscape="http://www.inkscape.org/namespaces/inkscape"
   xmlns:sodipodi="http://sodipodi.sourceforge.net/DTD/sodipodi-0.dtd"
   xmlns="http://www.w3.org/2000/svg"
   xmlns:svg="http://www.w3.org/2000/svg"
   xmlns:rdf="http://www.w3.org/1999/02/22-rdf-syntax-ns#"
   xmlns:cc="http://creativecommons.org/ns#"
   xmlns:dc="http://purl.org/dc/elements/1.1/"><sodipodi:namedview
     id="namedview1"
     pagecolor="#ffffff"
     bordercolor="#000000"
     borderopacity="0.25"
     inkscape:showpageshadow="2"
     inkscape:pageopacity="0.0"
     inkscape:pagecheckerboard="0"
     inkscape:deskcolor="#d1d1d1"
     inkscape:document-units="mm"
     showguides="true"
     showgrid="true"
     inkscape:zoom="1.0467523"
     inkscape:cx="408.40608"
     inkscape:cy="86.457895"
     inkscape:window-width="2560"
     inkscape:window-height="1377"
     inkscape:window-x="2552"
     inkscape:window-y="-8"
     inkscape:window-maximized="1"
     inkscape:current-layer="layer1" /><defs
     id="defs1">
	

	

		
	
		
	<inkscape:path-effect
   effect="fill_between_many"
   method="originald"
   linkedpaths="#path1-1,0,1|"
   id="path-effect8" /></defs><g
     inkscape:label="Layer 1"
     inkscape:groupmode="layer"
     id="layer1"><rect
       style="display:none;fill:#2831a9;fill-opacity:1;stroke:none;stroke-width:7.08332;stroke-linejoin:round;stroke-dasharray:none;stroke-opacity:1"
       id="rect6"
       width="135.46666"
       height="135.46666"
       x="-1.4210855e-14"
       y="-1.0658141e-14" /><g
       id="g8"><path
         inkscape:original-d="M 0,0"
         inkscape:path-effect="#path-effect8"
         d="m 39.97091,10.019834 c -4.31724,0 -7.8295,3.512028 -7.8295,7.829496 0,8.321473 2.47729,16.133853 6.43114,23.677108 a 2.8109014,2.8109014 0 0 0 0.78651,1.804541 l 0.39222,0.392224 c 2.93711,5.195852 6.54909,10.271603 10.51099,15.306043 v 0.72502 c -0.81163,0.18089 -1.71667,0.189874 -2.4567,0.56689 -2.1836,1.112512 -3.96096,2.889884 -5.07359,5.073593 -1.40903,2.76565 -1.26555,5.621987 -1.26555,10.548193 v 4.100008 c 0,3.533277 -0.0642,5.99535 0.41392,8.12922 -5.79627,9.242596 -9.73894,18.94769 -9.73894,29.44523 0,4.31724 3.51203,7.8295 7.8295,7.8295 3.34175,0 6.19994,-2.1053 7.32152,-5.05861 h 40.88174 c 1.12158,2.95331 3.97977,5.05861 7.32152,5.05861 4.31724,0 7.82949,-3.51203 7.82949,-7.8295 0,-8.32006 -2.46707,-16.12016 -6.40581,-23.645068 A 2.8109014,2.8109014 0 0 0 96.10805,92.131618 L 95.72978,91.753346 C 91.09131,83.544893 84.77149,75.643872 78.04662,67.733624 c 0.85157,-1.001183 1.68121,-2.014191 2.52233,-3.021521 2.51364,0.06732 3.82464,0.252855 4.54442,0.6196 1.12645,0.573902 2.03731,1.484754 2.61121,2.61121 0.46645,0.915483 0.64686,2.708058 0.65268,6.837826 a 2.8109014,2.8109014 0 0 0 2.8174,2.805513 2.8109014,2.8109014 0 0 0 2.80603,-2.817399 c -0.006,-4.192183 0.0278,-6.835792 -1.26556,-9.374104 -1.11253,-2.183677 -2.88991,-3.961059 -5.07359,-5.073593 -0.66522,-0.338934 -1.75076,-0.15061 -2.4567,-0.331762 V 59.042681 C 95.25049,46.293131 103.3257,32.882459 103.3257,17.84933 c 0,-4.317468 -3.51226,-7.829496 -7.8295,-7.829496 -4.31724,0 -7.82949,3.512028 -7.82949,7.829496 0,2.374371 -0.32792,4.744856 -0.93121,7.115845 H 48.72541 c -0.40512,-1.602678 -0.685,-3.207705 -0.8232,-4.816244 h 25.11991 c 1.26992,0 2.2996,-1.029678 2.2996,-2.299601 0,-1.269923 -1.02968,-2.299084 -2.2996,-2.299084 H 47.45624 C 46.47127,12.351428 43.4885,10.019834 39.97091,10.019834 Z"
         id="path8"
         style="stroke:#000000;stroke-opacity:1;stroke-width:8.328;stroke-dasharray:none" /><path
         id="path1-1"
         style="color:#000000;font-style:normal;font-variant:normal;font-weight:normal;font-stretch:normal;font-size:medium;line-height:normal;font-family:sans-serif;font-variant-ligatures:normal;font-variant-position:normal;font-variant-caps:normal;font-variant-numeric:normal;font-variant-alternates:normal;font-variant-east-asian:normal;font-feature-settings:normal;font-variation-settings:normal;text-indent:0;text-align:start;text-decoration-line:none;text-decoration-style:solid;text-decoration-color:#000000;letter-spacing:normal;word-spacing:normal;text-transform:none;writing-mode:lr-tb;direction:ltr;text-orientation:mixed;dominant-baseline:auto;baseline-shift:baseline;text-anchor:start;white-space:normal;shape-padding:0;shape-margin:0;inline-size:0;clip-rule:nonzero;display:inline;overflow:visible;visibility:visible;isolation:auto;mix-blend-mode:normal;color-interpolation:sRGB;color-interpolation-filters:linearRGB;solid-color:#000000;solid-opacity:1;fill:#000000;fill-opacity:1;fill-rule:nonzero;stroke:#000000;stroke-width:8;stroke-linecap:butt;stroke-linejoin:miter;stroke-miterlimit:4;stroke-dasharray:none;stroke-dashoffset:0;stroke-opacity:1;color-rendering:auto;image-rendering:auto;shape-rendering:auto;text-rendering:auto;enable-background:accumulate;stop-color:#000000"
         d="m 178.75033,-74.6125 c -4.31724,0 -7.8295,3.512028 -7.8295,7.829496 0,8.321473 2.47729,16.133853 6.43114,23.677108 a 2.8109014,2.8109014 0 0 0 0.78651,1.804541 l 0.39222,0.392224 c 2.93711,5.195852 6.54909,10.271603 10.51099,15.306043 v 0.72502 c -0.81163,0.18089 -1.71667,0.189874 -2.4567,0.56689 -2.1836,1.112512 -3.96096,2.889884 -5.07359,5.073593 -1.40903,2.76565 -1.26555,5.621987 -1.26555,10.5481929 v 4.1000081 c 0,3.5332769 -0.0642,5.9953498 0.41392,8.1292196 -5.79627,9.2425964 -9.73894,18.9476884 -9.73894,29.4452314 0,4.317242 3.51203,7.829496 7.8295,7.829496 3.34175,0 6.19994,-2.105296 7.32152,-5.058606 h 40.88174 c 1.12158,2.95331 3.97977,5.058606 7.32152,5.058606 4.31724,0 7.82949,-3.512028 7.82949,-7.829496 0,-8.320063 -2.46707,-16.12016 -6.40581,-23.6450686 A 2.8109014,2.8109014 0 0 0 234.88747,7.4992839 L 234.5092,7.1210124 c -4.63847,-8.2084536 -10.95829,-16.1094743 -17.68316,-24.0197224 0.85157,-1.001183 1.68121,-2.014191 2.52233,-3.021521 2.51364,0.06732 3.82464,0.252855 4.54442,0.6196 1.12645,0.573902 2.03731,1.484754 2.61121,2.61121 0.46645,0.915483 0.64686,2.708058 0.65268,6.8378259 a 2.8109014,2.8109014 0 0 0 2.8174,2.8055136 2.8109014,2.8109014 0 0 0 2.80603,-2.8173991 c -0.006,-4.1921834 0.0278,-6.8357924 -1.26556,-9.3741044 -1.11253,-2.183677 -2.88991,-3.961059 -5.07359,-5.073593 -0.66522,-0.338934 -1.75076,-0.15061 -2.4567,-0.331762 v -0.946713 c 10.04565,-12.74955 18.12086,-26.160222 18.12086,-41.193351 0,-4.317468 -3.51226,-7.829496 -7.8295,-7.829496 -4.31724,0 -7.82949,3.512028 -7.82949,7.829496 0,2.374371 -0.32792,4.744856 -0.93121,7.115845 h -38.01009 c -0.40512,-1.602678 -0.685,-3.207705 -0.8232,-4.816244 h 25.11991 c 1.26992,0 2.2996,-1.029678 2.2996,-2.299601 0,-1.269923 -1.02968,-2.299084 -2.2996,-2.299084 h -25.56588 c -0.98497,-3.198818 -3.96774,-5.530412 -7.48533,-5.530412 z m 5.2e-4,4.598686 c 1.78168,0 3.23081,1.449356 3.23081,3.23081 0,10.271205 5.09346,20.02268 12.1636,29.679326 0.13368,0.293978 0.32705,0.554219 0.56534,0.766361 2.71276,3.650606 5.69608,7.289679 8.78241,10.939384 -0.2298,0.268384 -0.4638,0.539382 -0.69454,0.808219 l -0.16226,-0.162264 -20.52329,-20.523295 a 2.8109014,2.8109014 0 0 0 -1.04335,-0.636137 c -3.43823,-6.744014 -5.55005,-13.653906 -5.55005,-20.871594 0,-1.781454 1.44988,-3.23081 3.23133,-3.23081 z m 55.52426,0 c 1.78145,0 3.23132,1.449872 3.23132,3.231327 0,12.089719 -5.98959,23.360898 -13.98261,34.195846 -0.57198,-2.448107 -1.67136,-4.691801 -3.15639,-6.628536 6.32711,-9.054622 10.67687,-18.109782 10.67687,-27.56731 0,-1.781455 1.44935,-3.231327 3.23081,-3.231327 z m -14.65596,0.931726 c -1.26992,0 -2.29908,1.029161 -2.29908,2.299084 0,1.269923 1.02916,2.299601 2.29908,2.299601 h 1.1498 c 1.26993,0 2.2996,-1.029678 2.2996,-2.299601 0,-1.269923 -1.02967,-2.299084 -2.2996,-2.299084 z m -30.61983,14.014131 h 35.01388 c -0.66709,1.684062 -1.45846,3.369293 -2.35438,5.05809 h -30.31339 c -0.8923,-1.68519 -1.68038,-3.37042 -2.34611,-5.05809 z m 5.02708,9.657292 h 7.61917 c -1.56131,0.452062 -3.0342,1.115015 -4.38061,1.95647 a 2.8109014,2.8109014 0 0 0 -1.05368,1.315682 c -0.75746,-1.090984 -1.49487,-2.18179 -2.18488,-3.272152 z m 17.32142,0 h 7.63003 c -0.60971,0.963801 -1.25545,1.92955 -1.91978,2.896464 -1.69336,-1.290545 -3.61716,-2.290073 -5.71025,-2.896464 z m -4.83484,4.934066 c 0.55756,0 1.10124,0.0512 1.63762,0.12454 h -3.36103 c 0.56171,-0.08145 1.13662,-0.12454 1.72341,-0.12454 z m -5.56607,4.723226 h 11.12077 c -1.76816,2.25421 -3.63354,4.521104 -5.55522,6.803719 -1.9165,-2.274048 -3.78635,-4.540942 -5.56555,-6.803719 z m 15.90807,1.3255 c 0.95652,1.711862 1.50585,3.686185 1.50585,5.79913 v 2.674772 c -0.13824,0.170444 -0.28129,0.339267 -0.42013,0.509529 -0.26222,-0.0524 -0.47956,-0.131736 -0.87385,-0.132291 a 2.8109014,2.8109014 0 0 0 -2.8174,2.80603 2.8109014,2.8109014 0 0 0 0.38293,1.334285 c -1.32308,1.569565 -2.65638,3.128791 -3.99459,4.686019 l -4.58215,-4.582149 c 3.78565,-4.407734 7.47648,-8.763393 10.79934,-13.095325 z m -23.17636,14.502991 c 0.84085,1.008397 1.66393,2.017606 2.52077,3.025655 -3.58864,4.219303 -7.10099,8.4921362 -10.32495,12.8488282 -5.3e-4,-0.1981752 -0.005,-0.3307446 -0.005,-0.5389852 v -4.1000081 c 0,-4.9227019 0.14522,-6.9952539 0.65268,-7.9938269 v -0.0062 c 0.57341,-1.123499 1.48766,-2.037795 2.61121,-2.61121 0.55393,-0.282197 1.34216,-0.478014 2.89181,-0.572575 0.46707,-0.02854 1.05963,-0.03981 1.65365,-0.05168 z m 8.71109,2.87476 4.58215,4.582149 c -5.51175,6.4175277 -10.80982,12.7172683 -15.09313,19.0164105 -1.36676,-0.098166 -2.21764,-0.2604758 -2.73989,-0.5265828 -1.12525,-0.5732981 -2.04285,-1.4864802 -2.61689,-2.6112102 v -0.0062 c -0.0383,-0.07537 -0.0706,-0.1700038 -0.1049,-0.2583822 4.64741,-6.8961273 10.29866,-13.5935882 15.97266,-20.1961832 z m 7.83984,7.8398315 14.47611,14.476119 c -0.2967,0.2304779 -0.4807,0.5836031 -0.81907,0.7560262 -0.52035,0.2644477 -1.36313,0.4271002 -2.71818,0.5255493 -3.40343,-5.0011199 -7.4217,-9.9642472 -11.63546,-14.9474081 0.23042,-0.2691178 0.46521,-0.5407122 0.6966,-0.8102864 z m -3.71606,4.3625244 c 2.04973,2.4320843 4.04657,4.85577418 5.93556,7.2750081 h -11.85974 c 1.87705,-2.40976528 3.86813,-4.8332298 5.92418,-7.2750081 z M 183.14748,8.3571126 c 0.96298,1.0933761 2.12465,2.0064024 3.43751,2.6752894 0.64581,0.329077 1.29936,0.566953 1.98024,0.748274 -4.03449,6.952334 -6.58357,13.960541 -6.58357,21.204391 2.3e-4,1.781454 -1.44965,3.23081 -3.23133,3.23081 -1.78146,0 -3.23081,-1.449356 -3.23081,-3.23081 0,-8.575975 3.02629,-16.738488 7.62796,-24.6279544 z m 45.38896,0.7394898 2.3766,2.3765986 a 2.8109014,2.8109014 0 0 0 1.04851,0.636137 c 3.43446,6.737827 5.54488,13.647705 5.54488,20.875729 0,1.781454 -1.44935,3.23081 -3.23081,3.23081 -1.78168,0 -3.23132,-1.449356 -3.23132,-3.23081 0,-7.281916 -2.56308,-14.300617 -6.57015,-21.208525 0.67594,-0.180939 1.32532,-0.4173 1.96681,-0.74414 0.86529,-0.440928 1.37412,-1.302491 2.09548,-1.9357996 z m -37.41632,7.5866166 h 30.80794 c 0.8727,1.684965 1.63981,3.370936 2.28254,5.058606 h -35.37975 c 0.64409,-1.684288 1.41297,-3.370034 2.28927,-5.058606 z m -3.72432,9.657292 h 38.24159 c 0.38009,1.602678 0.63448,3.207996 0.74517,4.81676 h -39.73659 c 0.11137,-1.606284 0.36635,-3.211602 0.74983,-4.81676 z"
         transform="translate(-138.77942,84.632334)" /></g><g
       style="fill:#ffffff;fill-opacity:1"
       id="g5"
       transform="matrix(0.22544348,0,0,0.22544348,10.019802,10.019802)"><g
         id="g2"
         style="fill:#ffffff;fill-opacity:1">
	<g
   id="g1"
   style="fill:#ffffff;fill-opacity:1">
		<path
   d="M 413.876,34.73 C 413.876,15.579 398.297,0 379.147,0 c -19.15,0 -34.73,15.579 -34.73,34.73 0,10.532 -1.455,21.047 -4.131,31.564 H 171.685 c -1.797,-7.109 -3.038,-14.23 -3.651,-21.365 h 111.425 c 5.633,0 10.199,-4.566 10.199,-10.199 0,-5.633 -4.566,-10.199 -10.199,-10.199 H 166.055 C 161.686,10.342 148.457,0 132.854,0 c -19.15,0 -34.73,15.579 -34.73,34.73 0,80.895 52.403,151.003 112.129,221.269 C 152.28,324.16 98.124,395.274 98.124,477.27 c 0,19.15 15.579,34.73 34.73,34.73 14.823,0 27.501,-9.338 32.476,-22.438 h 181.339 c 4.975,13.1 17.653,22.438 32.476,22.438 19.15,0 34.73,-15.579 34.73,-34.73 0,-81.081 -52.47,-151.094 -112.129,-221.269 57.975,-68.161 112.13,-139.275 112.13,-221.271 z m -80.25,51.963 c -2.959,7.47 -6.47,14.947 -10.444,22.438 h -134.46 c -3.958,-7.475 -7.455,-14.952 -10.408,-22.438 z m -117.75,65.275 c -5.418,-7.484 -10.532,-14.962 -15.263,-22.438 H 311.29 c -4.718,7.458 -9.827,14.935 -15.249,22.438 z m 64.762,20.399 c -7.843,9.999 -16.116,20.054 -24.64,30.179 -8.501,-10.087 -16.796,-20.142 -24.688,-30.179 z M 118.523,34.73 c 0,-7.902 6.43,-14.332 14.332,-14.332 7.903,0 14.332,6.43 14.332,14.332 0,45.56 22.593,88.815 53.954,131.649 0.593,1.304 1.451,2.458 2.508,3.399 12.033,16.193 25.266,32.335 38.956,48.524 -4.276,4.994 -8.591,10.005 -12.924,15.039 -1.996,2.318 -3.994,4.64 -5.992,6.963 C 167.41,173.897 118.523,107.878 118.523,34.73 Z m 28.663,442.54 c 0.001,7.902 -6.429,14.332 -14.332,14.332 -7.902,0 -14.332,-6.43 -14.332,-14.332 0,-83.55 64.368,-158.316 126.617,-230.62 61.544,-71.485 119.674,-139.007 119.674,-211.919 0,-7.902 6.43,-14.332 14.332,-14.332 7.902,0 14.332,6.43 14.332,14.332 0,83.55 -64.368,158.316 -126.617,230.62 C 205.317,336.836 147.186,404.358 147.186,477.27 Z M 199.4,384.563 c 4.647,-7.459 9.691,-14.936 15.057,-22.438 h 83.181 c 5.362,7.483 10.41,14.961 15.069,22.438 z m 124.976,20.398 c 3.871,7.474 7.275,14.952 10.126,22.438 H 177.567 c 2.857,-7.471 6.268,-14.948 10.155,-22.438 z m -94.651,-63.235 c 8.326,-10.689 17.158,-21.44 26.278,-32.271 9.092,10.788 17.949,21.54 26.328,32.271 z m -61.849,127.437 c 0.494,-7.125 1.624,-14.245 3.325,-21.365 h 169.63 c 1.686,7.109 2.813,14.229 3.304,21.365 z m 225.602,8.107 c 0,7.902 -6.43,14.332 -14.332,14.332 -7.903,0 -14.332,-6.43 -14.332,-14.332 0,-64.023 -44.589,-123.461 -95.418,-183.571 4.276,-4.994 8.592,-10.005 12.924,-15.039 1.996,-2.318 3.994,-4.64 5.993,-6.964 56.216,66.317 105.165,132.254 105.165,205.574 z"
   id="path1"
   style="fill:#ffffff;fill-opacity:1" />
	</g>
</g><g
         id="g4"
         style="fill:#ffffff;fill-opacity:1">
	<g
   id="g3"
   style="fill:#ffffff;fill-opacity:1">
		<path
   d="m 319.236,24.531 h -5.1 c -5.633,0 -10.199,4.566 -10.199,10.199 0,5.633 4.566,10.199 10.199,10.199 h 5.1 c 5.633,0 10.199,-4.566 10.199,-10.199 0,-5.633 -4.566,-10.199 -10.199,-10.199 z"
   id="path2"
   style="fill:#ffffff;fill-opacity:1" />
	</g>
</g></g><g
       style="fill:none;stroke:#ff0000;stroke-width:1.91745;stroke-dasharray:none;stroke-opacity:1"
       id="g6"
       transform="matrix(2.9319163,0,0,2.9319163,32.550338,32.548259)"><path
         d="M 3,3 21,21 M 17,10 V 8 C 17,5.23858 14.7614,3 12,3 11.0283,3 10.1213,3.27719 9.35386,3.75681 M 7.08383,7.08338 C 7.02878,7.38053 7,7.6869 7,8 v 2.0288 m 12.5614,9.533 C 19.273,20.0348 18.8583,20.4201 18.362,20.673 17.7202,21 16.8802,21 15.2,21 H 8.8 C 7.11984,21 6.27976,21 5.63803,20.673 5.07354,20.3854 4.6146,19.9265 4.32698,19.362 4,18.7202 4,17.8802 4,16.2 V 14.8 C 4,13.1198 4,12.2798 4.32698,11.638 4.6146,11.0735 5.07354,10.6146 5.63803,10.327 5.99429,10.1455 6.41168,10.0647 7,10.0288 m 12.9998,4.3735 C 19.9978,12.9831 19.9731,12.227 19.673,11.638 19.3854,11.0735 18.9265,10.6146 18.362,10.327 17.773,10.0269 17.0169,10.0022 15.5977,10.0002 M 10,10 H 8.8 C 8.05259,10 7.47142,10 7,10.0288"
         stroke="#000000"
         stroke-width="2"
         stroke-linecap="round"
         stroke-linejoin="round"
         id="path1-8"
         style="stroke:#ff0000;stroke-width:1.91745;stroke-dasharray:none;stroke-opacity:1" /></g></g><metadata
     id="metadata9"><rdf:RDF><cc:Work
         rdf:about=""><dc:creator><cc:Agent><dc:title>Kieran David Evans</dc:title></cc:Agent></dc:creator><dc:rights><cc:Agent><dc:title>CC BY-SA - https://creativecommons.org/licenses/by-sa/4.0/</dc:title></cc:Agent></dc:rights><cc:license
           rdf:resource="http://creativecommons.org/licenses/by-sa/4.0/" /></cc:Work><cc:License
         rdf:about="http://creativecommons.org/licenses/by-sa/4.0/"><cc:permits
           rdf:resource="http://creativecommons.org/ns#Reproduction" /><cc:permits
           rdf:resource="http://creativecommons.org/ns#Distribution" /><cc:requires
           rdf:resource="http://creativecommons.org/ns#Notice" /><cc:requires
           rdf:resource="http://creativecommons.org/ns#Attribution" /><cc:permits
           rdf:resource="http://creativecommons.org/ns#DerivativeWorks" /><cc:requires
           rdf:resource="http://creativecommons.org/ns#ShareAlike" /></cc:License></rdf:RDF></metadata></svg>
