<?xml version="1.0" encoding="UTF-8" standalone="no"?>
<!-- Created with Inkscape (http://www.inkscape.org/) -->

<svg
   width="512"
   height="512"
   viewBox="0 0 135.46666 135.46667"
   version="1.1"
   id="svg1"
   xml:space="preserve"
   inkscape:version="1.4 (86a8ad7, 2024-10-11)"
   sodipodi:docname="MSSFP_GrassToucher.svg"
   inkscape:export-filename="MSSFP_GrassToucher.png"
   inkscape:export-xdpi="96"
   inkscape:export-ydpi="96"
   xmlns:inkscape="http://www.inkscape.org/namespaces/inkscape"
   xmlns:sodipodi="http://sodipodi.sourceforge.net/DTD/sodipodi-0.dtd"
   xmlns="http://www.w3.org/2000/svg"
   xmlns:svg="http://www.w3.org/2000/svg"><sodipodi:namedview
     id="namedview1"
     pagecolor="#ffffff"
     bordercolor="#000000"
     borderopacity="0.25"
     inkscape:showpageshadow="2"
     inkscape:pageopacity="0.0"
     inkscape:pagecheckerboard="0"
     inkscape:deskcolor="#d1d1d1"
     inkscape:document-units="mm"
     inkscape:zoom="1.0467523"
     inkscape:cx="242.65531"
     inkscape:cy="225.93693"
     inkscape:window-width="2560"
     inkscape:window-height="1377"
     inkscape:window-x="2552"
     inkscape:window-y="-8"
     inkscape:window-maximized="1"
     inkscape:current-layer="layer1" /><defs
     id="defs1" /><g
     inkscape:label="Layer 1"
     inkscape:groupmode="layer"
     id="layer1"><g
       id="g847"
       style="fill:#00a60c;fill-opacity:1"><path
         style="fill:#00a60c;fill-opacity:1;stroke-width:1;stroke-linejoin:round"
         d="m 31.99312,102.86056 c 3.020509,0.1651 6.122916,0.59637 8.221697,-2.23415 C 32.120944,80.367168 26.951369,59.133159 25.290651,36.729532 24.134975,34.751891 23.093492,32.184257 20.554239,37.355097 20.402091,59.284659 22.222646,81.167251 31.99312,102.86056 Z"
         id="path837"
         sodipodi:nodetypes="ccccc" /><path
         style="fill:#00a60c;fill-opacity:1;stroke-width:1;stroke-linejoin:round"
         d="m 35.008084,84.802976 8.088511,0.126381 C 41.504064,62.643826 40.119837,40.358296 40.189784,18.072765 38.893496,14.553029 37.384759,12.46733 34.755317,17.946382 31.542537,40.025849 32.894149,62.39059 35.008084,84.802976 Z"
         id="path838"
         sodipodi:nodetypes="ccccc" /><path
         style="fill:#00a60c;fill-opacity:1;stroke-width:1;stroke-linejoin:round"
         d="m 42.970211,107.55191 12.385532,1.01106 C 53.728739,85.963886 51.621024,63.438757 54.218297,40.189784 c -0.714115,-4.703231 -2.47687,-2.76508 -4.17064,-1.263829 -7.225801,18.819775 -7.859622,43.132866 -7.077446,68.625955 z"
         id="path839"
         sodipodi:nodetypes="ccccc" /><path
         style="fill:#00a60c;fill-opacity:1;stroke-width:1;stroke-linejoin:round"
         d="m 54.344678,99.463401 8.973193,-0.252767 C 62.709845,78.104677 64.572704,56.99872 71.027231,35.892763 71.53256,29.507437 69.889628,28.671788 66.351062,32.733191 55.941135,53.855229 51.280428,75.983381 54.344678,99.463401 Z"
         id="path840"
         sodipodi:nodetypes="ccccc" /><path
         style="fill:#00a60c;fill-opacity:1;stroke-width:1;stroke-linejoin:round"
         d="m 64.328933,85.940423 9.984256,0.505531 0.126384,-66.351061 C 72.629218,16.16324 70.983974,16.35939 69.510637,20.853191 Z"
         id="path843"
         sodipodi:nodetypes="ccccc" /><path
         style="fill:#00a60c;fill-opacity:1;stroke-width:1;stroke-linejoin:round"
         d="m 75.324252,98.578719 9.352341,-0.758298 -2.401277,-61.422124 c -3.922224,-7.855015 -4.695963,-1.76674 -6.445533,0 z"
         id="path844"
         sodipodi:nodetypes="ccccc" /><path
         style="fill:#00a60c;fill-opacity:1;stroke-width:1;stroke-linejoin:round"
         d="m 82.148933,89.858293 13.775743,0.379151 1.390213,-64.5817 c -2.401276,-7.878416 -4.802553,-3.716196 -7.203829,-0.884681 -5.028107,21.513123 -7.308611,43.2376 -7.962127,65.08723 z"
         id="path845"
         sodipodi:nodetypes="ccccc" /><path
         style="fill:#00a60c;fill-opacity:1;stroke-width:1;stroke-linejoin:round"
         d="m 88.088932,104.6451 12.006388,0.63192 c 3.45669,-21.925946 8.17073,-43.703969 17.31446,-64.960852 0.16852,-5.813624 -2.02213,-6.908928 -6.57191,-3.285956 C 98.402179,57.583308 93.298137,81.135715 88.088932,104.6451 Z"
         id="path846"
         sodipodi:nodetypes="ccccc" /><ellipse
         style="fill:#00a60c;fill-opacity:1;stroke-width:1;stroke-linejoin:round"
         id="path847"
         cx="65.087234"
         cy="97.441277"
         rx="45.371487"
         ry="18.072765" /></g></g></svg>
