<?xml version="1.0" encoding="UTF-8" standalone="no"?>
<!-- Created with Inkscape (http://www.inkscape.org/) -->

<svg
   width="128"
   height="128"
   viewBox="0 0 33.866666 33.866666"
   version="1.1"
   id="svg1"
   inkscape:version="1.3.2 (091e20e, 2023-11-25, custom)"
   sodipodi:docname="MSS_FP_Haunts_Toggle.svg"
   inkscape:export-filename="MSS_FP_Haunts_Toggle.png"
   inkscape:export-xdpi="96"
   inkscape:export-ydpi="96"
   xmlns:inkscape="http://www.inkscape.org/namespaces/inkscape"
   xmlns:sodipodi="http://sodipodi.sourceforge.net/DTD/sodipodi-0.dtd"
   xmlns="http://www.w3.org/2000/svg"
   xmlns:svg="http://www.w3.org/2000/svg">
  <sodipodi:namedview
     id="namedview1"
     pagecolor="#ffffff"
     bordercolor="#000000"
     borderopacity="0.25"
     inkscape:showpageshadow="2"
     inkscape:pageopacity="0.0"
     inkscape:pagecheckerboard="0"
     inkscape:deskcolor="#d1d1d1"
     inkscape:document-units="mm"
     inkscape:zoom="4.1798822"
     inkscape:cx="72.011599"
     inkscape:cy="63.757778"
     inkscape:window-width="2560"
     inkscape:window-height="1369"
     inkscape:window-x="2552"
     inkscape:window-y="-8"
     inkscape:window-maximized="1"
     inkscape:current-layer="layer1" />
  <defs
     id="defs1" />
  <g
     inkscape:label="Layer 1"
     inkscape:groupmode="layer"
     id="layer1">
    <g
       id="g3"
       transform="matrix(1.2394783,0,0,1.2394783,-3.7845086,-3.7083815)">
      <path
         id="path1"
         style="fill:#a5a5a5;fill-opacity:1;stroke:#000000;stroke-width:1.2;stroke-linecap:round;stroke-linejoin:round;stroke-miterlimit:4.2"
         d="M 17.23254,4.1625366 A 8.0119171,5.5277753 0 0 0 9.2206258,9.6903646 V 25.154537 c 0,0 0.1478591,2.190881 -0.7699788,3.013769 -0.9178381,0.822891 0.3798217,0.696082 0.3798217,0.696082 0,0 2.1007203,-0.968318 3.9243083,-0.921391 1.107256,0.02849 2.045581,1.073746 3.310909,1.193209 1.156312,0.10917 2.41258,-1.033966 3.497461,-0.785482 2.369436,0.542703 4.434187,0.634692 4.775419,0.418579 0.949487,-0.601341 0.633181,-0.917419 0.854728,-1.392163 0.221548,-0.474744 0.05116,-2.222603 0.05116,-2.222603 V 9.6903646 A 8.0119171,5.5277753 0 0 0 17.23254,4.1625366 Z" />
      <circle
         style="fill:#020701;fill-opacity:1;stroke:#000000;stroke-width:1.2;stroke-linecap:round;stroke-linejoin:round;stroke-miterlimit:4.2"
         id="path2"
         cx="14.131553"
         cy="10.207002"
         r="0.83871478" />
      <circle
         style="fill:#000000;fill-opacity:1;stroke:#000000;stroke-width:1.2;stroke-linecap:round;stroke-linejoin:round;stroke-miterlimit:4.2"
         id="path2-2"
         cx="19.629156"
         cy="10.207002"
         r="0.83871478" />
      <path
         style="fill:none;stroke:#000000;stroke-width:1.2;stroke-linecap:round;stroke-linejoin:round;stroke-miterlimit:4.2"
         d="m 15.570267,13.98913 c 0,0 0.406364,0.777243 1.192176,0.807065 0.904039,0.03431 1.427998,-0.807065 1.427998,-0.807065"
         id="path3"
         sodipodi:nodetypes="csc" />
    </g>
  </g>
</svg>
